<svg width="269" height="164" viewBox="0 0 269 164" fill="none" xmlns="http://www.w3.org/2000/svg">
<rect width="269" height="164" fill="white"/>
<path d="M21 50H90.9816V119.982H21V50Z" fill="#002EAB"/>
<path d="M98.0092 50H167.991V119.982H98.0092V50Z" fill="#002EAB"/>
<path d="M57.0956 97.1047L50.0305 86.9287L56.3978 76.7527H47.3557L42.791 84.4865V76.7527H35.2317V97.1047H42.791V89.0802L48.0244 97.1047H57.0956Z" fill="white"/>
<path d="M63.6028 85.5622H63.1667L64.7949 82.9165V76.7527H57.2355V97.1047H64.8821L70.1736 88.6732H70.6388L68.9816 91.348V97.1047H76.5409V76.7527H69.2723L63.6028 85.5622Z" fill="white"/>
<path d="M107.783 84.0212V97.1047H115.313V84.0212H119.848V76.7526H103.247V84.0212H107.783Z" fill="white"/>
<path d="M131.56 97.6862C137.695 97.6862 142.667 92.8598 142.667 86.9287C142.667 80.9975 137.695 76.1711 131.56 76.1711C125.425 76.1711 120.425 80.9975 120.425 86.9287C120.425 92.8598 125.425 97.6862 131.56 97.6862ZM128.653 86.9287C128.653 85.3296 129.932 84.0212 131.531 84.0212C133.13 84.0212 134.439 85.3296 134.439 86.9287C134.439 88.5278 133.13 89.807 131.531 89.807C129.932 89.807 128.653 88.5278 128.653 86.9287Z" fill="white"/>
<path d="M143.281 97.1047H150.84V90.3013H155.114V97.1047H162.674V76.7526H155.114V83.556H150.84V76.7526H143.281V97.1047Z" fill="white"/>
<path d="M21 50H90.9816V119.982H21V50Z" fill="#002EAB"/>
<path d="M98.0092 50H167.991V119.982H98.0092V50Z" fill="#002EAB"/>
<path d="M175.018 50H245V119.982H175.018V50Z" fill="#002EAB"/>
<path d="M54.8294 96.5232L47.8287 86.0345L54.1316 76.1711H46.1499L41.5852 83.9049V76.1711H34.0259V96.5232H41.5852V88.4987L46.8186 96.5232H54.8294Z" fill="white"/>
<path d="M65.2996 86.0345L65.3868 76.1711H58.6494V96.5232H65.3868L71.7026 87.5329L71.4119 96.5232H77.9548V76.1711H71.7026L65.2996 86.0345Z" fill="white"/>
<path d="M106.403 82.2397V97.1047H113.933V82.2397H118.469V76.7526H101.867V82.2397H106.403Z" fill="white"/>
<path d="M131.56 97.6862C137.695 97.6862 142.667 92.8598 142.667 86.9287C142.667 80.9975 137.695 76.1711 131.56 76.1711C125.426 76.1711 120.425 80.9975 120.425 86.9287C120.425 92.8598 125.426 97.6862 131.56 97.6862ZM128.653 86.9287C128.653 85.3296 129.932 84.0212 131.531 84.0212C133.13 84.0212 134.439 85.3296 134.439 86.9287C134.439 88.5278 133.13 89.807 131.531 89.807C129.932 89.807 128.653 88.5278 128.653 86.9287Z" fill="white"/>
<path d="M145.266 97.1047H151.914V90.3013H156.188V97.1047H162.879V76.7526H156.188V83.556H151.914V76.7526H145.266V97.1047Z" fill="white"/>
<path d="M225.372 76.1711H216.243L208.276 96.5232H222.301L219.858 89.7489H217.712L220.807 83.8759L225.372 96.5232H233.484L225.372 76.1711Z" fill="white"/>
<path d="M186.535 96.5232H193.183V89.7198H197.457V96.5232H204.148V76.1711H197.457V82.9745H193.183V76.1711H186.535V96.5232Z" fill="white"/>
</svg>
