<svg width="188" height="246" viewBox="0 0 188 246" fill="none" xmlns="http://www.w3.org/2000/svg">
<path d="M38.5739 29.428V22.588C39.6299 22.516 40.4699 22.264 41.0939 21.832C41.7179 21.4 42.2819 20.488 42.7859 19.096C43.3139 17.704 43.7459 15.688 44.0819 13.048L45.5579 0.987998H60.2459V22.336H62.4419V29.428H59.4539V25H41.5619V29.428H38.5739ZM47.0339 13.264C46.4819 17.896 45.2579 20.92 43.3619 22.336H57.2579V3.652H48.2219L47.0339 13.264ZM86.8015 25H83.3815L81.2575 19.672H69.3055L67.1815 25H63.7615L73.4095 0.987998H77.1175L86.8015 25ZM80.3575 17.008L75.2815 4.084L70.1695 17.008H80.3575ZM108.157 25H104.449L95.3408 14.2L92.9288 16.936V25H89.9408V0.987998H92.9288V13.408L103.549 0.987998H107.293L97.2848 12.4L108.157 25ZM132.118 25H128.698L126.574 19.672H114.622L112.498 25H109.078L118.726 0.987998H122.434L132.118 25ZM125.674 17.008L120.598 4.084L115.486 17.008H125.674ZM138.245 25H135.257V0.987998H144.905C147.233 0.987998 149.069 1.684 150.413 3.076C151.757 4.468 152.429 6.184 152.429 8.224C152.429 10.264 151.745 11.98 150.377 13.372C149.033 14.764 147.209 15.46 144.905 15.46H138.245V25ZM144.545 12.796C145.961 12.796 147.113 12.376 148.001 11.536C148.889 10.672 149.333 9.568 149.333 8.224C149.333 6.88 148.889 5.788 148.001 4.948C147.113 4.084 145.961 3.652 144.545 3.652H138.245V12.796H144.545ZM42.5974 69H39.6094V47.652H25.5694V69H22.5814V44.988H42.5974V69ZM68.7663 69H65.3463L63.2223 63.672H51.2703L49.1463 69H45.7263L55.3743 44.988H59.0823L68.7663 69ZM62.3223 61.008L57.2463 48.084L52.1343 61.008H62.3223ZM91.9217 69H88.9337V57.984H74.8937V69H71.9057V44.988H74.8937V55.32H88.9337V44.988H91.9217V69ZM118.091 69H114.671L112.547 63.672H100.595L98.4706 69H95.0506L104.699 44.988H108.407L118.091 69ZM111.647 61.008L106.571 48.084L101.459 61.008H111.647ZM144.738 69H141.75V49.236L133.578 69H132.354L124.218 49.236V69H121.23V44.988H125.514L132.966 63.06L140.454 44.988H144.738V69ZM170.895 69H167.475L165.351 63.672H153.399L151.275 69H147.855L157.503 44.988H161.211L170.895 69ZM164.451 61.008L159.375 48.084L154.263 61.008H164.451ZM18.3981 113H14.6901L25.5621 100.4L15.5541 88.988H19.2981L28.9461 100.292V88.988H31.9341V100.292L41.6181 88.988H45.3621L35.3181 100.4L46.2261 113H42.4821L33.3741 102.2L31.9341 103.856V113H28.9461V103.856L27.5061 102.2L18.3981 113ZM52.4966 113H49.6166V88.988H52.6046V107.744L66.4286 88.988H69.4886V113H66.5006V93.848L52.4966 113ZM77.3729 88.988V95.252C77.3729 98.948 79.2329 100.796 82.9529 100.796C84.9449 100.796 86.7929 100.52 88.4969 99.968V88.988H91.4849V113H88.4969V102.632C86.4809 103.184 84.5489 103.46 82.7009 103.46C79.9649 103.46 77.8889 102.728 76.4729 101.264C75.0809 99.776 74.3849 97.76 74.3849 95.216V88.988H77.3729ZM98.6247 113H94.9167L105.789 100.4L95.7807 88.988H99.5247L109.173 100.292V88.988H112.161V100.292L121.845 88.988H125.589L115.545 100.4L126.453 113H122.709L113.601 102.2L112.161 103.856V113H109.173V103.856L107.733 102.2L98.6247 113ZM150.399 113H146.979L144.855 107.672H132.903L130.779 113H127.359L137.007 88.988H140.715L150.399 113ZM143.955 105.008L138.879 92.084L133.767 105.008H143.955ZM163.147 113.432C159.619 113.432 156.751 112.256 154.543 109.904C152.335 107.552 151.231 104.588 151.231 101.012C151.231 97.436 152.335 94.472 154.543 92.12C156.751 89.768 159.619 88.592 163.147 88.592C166.651 88.592 169.507 89.768 171.715 92.12C173.947 94.472 175.063 97.436 175.063 101.012C175.063 104.588 173.947 107.552 171.715 109.904C169.507 112.256 166.651 113.432 163.147 113.432ZM163.147 110.768C165.787 110.768 167.911 109.856 169.519 108.032C171.151 106.184 171.967 103.844 171.967 101.012C171.967 98.156 171.151 95.816 169.519 93.992C167.911 92.168 165.787 91.256 163.147 91.256C160.483 91.256 158.347 92.168 156.739 93.992C155.131 95.816 154.327 98.156 154.327 101.012C154.327 103.844 155.131 106.184 156.739 108.032C158.347 109.856 160.483 110.768 163.147 110.768ZM10.5368 161.428V154.588C11.5928 154.516 12.4328 154.264 13.0568 153.832C13.6808 153.4 14.2448 152.488 14.7488 151.096C15.2768 149.704 15.7088 147.688 16.0448 145.048L17.5208 132.988H32.2088V154.336H34.4048V161.428H31.4168V157H13.5248V161.428H10.5368ZM18.9968 145.264C18.4448 149.896 17.2208 152.92 15.3248 154.336H29.2208V135.652H20.1848L18.9968 145.264ZM57.3244 157.432C53.9644 157.432 51.1924 156.364 49.0084 154.228C46.8244 152.068 45.6364 149.32 45.4444 145.984H41.1964V157H38.2084V132.988H41.1964V143.32H45.4804C45.8404 140.152 47.1004 137.572 49.2604 135.58C51.4204 133.588 54.1084 132.592 57.3244 132.592C60.8284 132.592 63.6964 133.768 65.9284 136.12C68.1604 138.472 69.2764 141.436 69.2764 145.012C69.2764 148.588 68.1604 151.552 65.9284 153.904C63.6964 156.256 60.8284 157.432 57.3244 157.432ZM57.3244 154.768C59.9644 154.768 62.1004 153.856 63.7324 152.032C65.3644 150.184 66.1804 147.844 66.1804 145.012C66.1804 142.18 65.3644 139.852 63.7324 138.028C62.1004 136.18 59.9644 135.256 57.3244 135.256C54.6604 135.256 52.5244 136.168 50.9164 137.992C49.3084 139.816 48.5044 142.156 48.5044 145.012C48.5044 147.844 49.3084 150.184 50.9164 152.032C52.5244 153.856 54.6604 154.768 57.3244 154.768ZM93.9431 157H90.9551V145.984H76.9151V157H73.9271V132.988H76.9151V143.32H90.9551V132.988H93.9431V157ZM117.772 157H114.064L104.956 146.2L102.544 148.936V157H99.556V132.988H102.544V145.408L113.164 132.988H116.908L106.9 144.4L117.772 157ZM136.909 157H121.177V132.988H136.909V135.652H124.165V143.392H136.657V146.056H124.165V154.336H136.909V157ZM144.661 157H141.673V132.988H151.321C153.649 132.988 155.485 133.684 156.829 135.076C158.173 136.468 158.845 138.184 158.845 140.224C158.845 142.264 158.161 143.98 156.793 145.372C155.449 146.764 153.625 147.46 151.321 147.46H144.661V157ZM150.961 144.796C152.377 144.796 153.529 144.376 154.417 143.536C155.305 142.672 155.749 141.568 155.749 140.224C155.749 138.88 155.305 137.788 154.417 136.948C153.529 136.084 152.377 135.652 150.961 135.652H144.661V144.796H150.961ZM181.018 157H177.31L168.202 146.2L165.79 148.936V157H162.802V132.988H165.79V145.408L176.41 132.988H180.154L170.146 144.4L181.018 157ZM23.4415 201H19.8415L12.1735 190.776L4.5055 201H0.8695L10.2295 188.688L1.4095 176.988H5.0455L12.1735 186.6L19.2655 176.988H22.9015L14.1175 188.652L23.4415 201ZM36.584 201.432C33.056 201.432 30.188 200.256 27.98 197.904C25.772 195.552 24.668 192.588 24.668 189.012C24.668 185.436 25.772 182.472 27.98 180.12C30.188 177.768 33.056 176.592 36.584 176.592C40.088 176.592 42.944 177.768 45.152 180.12C47.384 182.472 48.5 185.436 48.5 189.012C48.5 192.588 47.384 195.552 45.152 197.904C42.944 200.256 40.088 201.432 36.584 201.432ZM36.584 198.768C39.224 198.768 41.348 197.856 42.956 196.032C44.588 194.184 45.404 191.844 45.404 189.012C45.404 186.156 44.588 183.816 42.956 181.992C41.348 180.168 39.224 179.256 36.584 179.256C33.92 179.256 31.784 180.168 30.176 181.992C28.568 183.816 27.764 186.156 27.764 189.012C27.764 191.844 28.568 194.184 30.176 196.032C31.784 197.856 33.92 198.768 36.584 198.768ZM79.0514 176.988H82.0394V201H53.1674V176.988H56.1554V198.336H66.1274V176.988H69.1154V198.336H79.0514V176.988ZM90.5357 201H87.6557V176.988H90.6437V195.744L104.468 176.988H107.528V201H104.54V181.848L90.5357 201ZM136.652 201H133.664V181.236L125.492 201H124.268L116.132 181.236V201H113.144V176.988H117.428L124.88 195.06L132.368 176.988H136.652V201ZM145.133 201H142.253V176.988H145.241V195.744L159.065 176.988H162.125V201H159.137V181.848L145.133 201ZM187.758 201H184.77V189.984H170.73V201H167.742V176.988H170.73V187.32H184.77V176.988H187.758V201ZM28.4234 245H25.4354V225.236L17.2634 245H16.0394L7.90342 225.236V245H4.91542V220.988H9.19942L16.6514 239.06L24.1394 220.988H28.4234V245ZM49.7568 245H34.0248V220.988H49.7568V223.652H37.0128V231.392H49.5048V234.056H37.0128V242.336H49.7568V245ZM52.8649 245.432V242.768C53.8969 242.768 54.7369 242.528 55.3849 242.048C56.0329 241.568 56.6089 240.62 57.1129 239.204C57.6169 237.764 58.0369 235.712 58.3729 233.048L59.8489 220.988H74.5369V245H71.5489V223.652H62.5129L61.3249 233.264C61.0129 235.832 60.5929 237.944 60.0649 239.6C59.5609 241.256 58.9249 242.504 58.1569 243.344C57.4129 244.16 56.6329 244.712 55.8169 245C55.0249 245.288 54.0409 245.432 52.8649 245.432ZM80.1498 220.988H83.1378V230.528H89.7978C92.1018 230.528 93.9258 231.224 95.2698 232.616C96.6378 234.008 97.3218 235.724 97.3218 237.764C97.3218 239.804 96.6498 241.52 95.3058 242.912C93.9618 244.304 92.1258 245 89.7978 245H80.1498V220.988ZM89.4378 233.192H83.1378V242.336H89.4378C90.8538 242.336 92.0058 241.916 92.8938 241.076C93.7818 240.212 94.2258 239.108 94.2258 237.764C94.2258 236.42 93.7818 235.328 92.8938 234.488C92.0058 233.624 90.8538 233.192 89.4378 233.192ZM101.279 220.988H116.867V223.652H104.267V230.528H110.927C113.231 230.528 115.055 231.224 116.399 232.616C117.767 234.008 118.451 235.724 118.451 237.764C118.451 239.804 117.779 241.52 116.435 242.912C115.091 244.304 113.255 245 110.927 245H101.279V220.988ZM110.567 233.192H104.267V242.336H110.567C111.983 242.336 113.135 241.916 114.023 241.076C114.911 240.212 115.355 239.108 115.355 237.764C115.355 236.42 114.911 235.328 114.023 234.488C113.135 233.624 111.983 233.192 110.567 233.192ZM124.82 245.432C123.836 245.432 122.924 245.252 122.084 244.892C121.244 244.532 120.596 244.076 120.14 243.524L121.4 241.148C122.432 242.228 123.524 242.768 124.676 242.768C125.588 242.768 126.308 242.528 126.836 242.048C127.388 241.568 128.012 240.668 128.708 239.348L129.14 238.52L119.924 220.988H123.344L130.868 235.856L138.392 220.988H141.812L131.336 240.752C130.496 242.336 129.596 243.512 128.636 244.28C127.676 245.048 126.404 245.432 124.82 245.432ZM147.931 245H144.943V220.988H154.591C156.919 220.988 158.755 221.684 160.099 223.076C161.443 224.468 162.115 226.184 162.115 228.224C162.115 230.264 161.431 231.98 160.063 233.372C158.719 234.764 156.895 235.46 154.591 235.46H147.931V245ZM154.231 232.796C155.647 232.796 156.799 232.376 157.687 231.536C158.575 230.672 159.019 229.568 159.019 228.224C159.019 226.88 158.575 225.788 157.687 224.948C156.799 224.084 155.647 223.652 154.231 223.652H147.931V232.796H154.231ZM186.088 245H183.1V233.984H169.06V245H166.072V220.988H169.06V231.32H183.1V220.988H186.088V245Z" fill="#002EAB"/>
</svg>
