<svg width="158" height="246" viewBox="0 0 158 246" fill="none" xmlns="http://www.w3.org/2000/svg">
<path d="M32.8711 25.432C29.3431 25.432 26.4751 24.256 24.2671 21.904C22.0591 19.552 20.9551 16.588 20.9551 13.012C20.9551 9.436 22.0591 6.472 24.2671 4.12C26.4751 1.768 29.3431 0.591999 32.8711 0.591999C36.3751 0.591999 39.2311 1.768 41.4391 4.12C43.6711 6.472 44.7871 9.436 44.7871 13.012C44.7871 16.588 43.6711 19.552 41.4391 21.904C39.2311 24.256 36.3751 25.432 32.8711 25.432ZM32.8711 22.768C35.5111 22.768 37.6351 21.856 39.2431 20.032C40.8751 18.184 41.6911 15.844 41.6911 13.012C41.6911 10.156 40.8751 7.816 39.2431 5.992C37.6351 4.168 35.5111 3.256 32.8711 3.256C30.2071 3.256 28.0711 4.168 26.4631 5.992C24.8551 7.816 24.0511 10.156 24.0511 13.012C24.0511 15.844 24.8551 18.184 26.4631 20.032C28.0711 21.856 30.2071 22.768 32.8711 22.768ZM60.8305 25.432C57.3265 25.432 54.3865 24.28 52.0105 21.976C49.6585 19.648 48.4825 16.66 48.4825 13.012C48.4825 9.364 49.6585 6.388 52.0105 4.084C54.3865 1.756 57.3265 0.591999 60.8305 0.591999C64.6705 0.591999 67.7065 2.176 69.9385 5.344L67.4185 6.748C66.7225 5.716 65.7865 4.876 64.6105 4.228C63.4345 3.58 62.1745 3.256 60.8305 3.256C58.1905 3.256 55.9825 4.18 54.2065 6.028C52.4545 7.852 51.5785 10.18 51.5785 13.012C51.5785 15.844 52.4545 18.184 54.2065 20.032C55.9825 21.856 58.1905 22.768 60.8305 22.768C62.1745 22.768 63.4345 22.456 64.6105 21.832C65.7865 21.184 66.7225 20.332 67.4185 19.276L69.9745 20.68C67.6465 23.848 64.5985 25.432 60.8305 25.432ZM94.2331 25H90.8131L88.6891 19.672H76.7371L74.6131 25H71.1931L80.8411 0.987998H84.5491L94.2331 25ZM87.7891 17.008L82.7131 4.084L77.6011 17.008H87.7891ZM115.588 25H111.88L102.772 14.2L100.36 16.936V25H97.3725V0.987998H100.36V13.408L110.98 0.987998H114.724L104.716 12.4L115.588 25ZM139.55 25H136.13L134.006 19.672H122.054L119.93 25H116.51L126.158 0.987998H129.866L139.55 25ZM133.106 17.008L128.03 4.084L122.918 17.008H133.106ZM19.793 69.432C16.265 69.432 13.397 68.256 11.189 65.904C8.98102 63.552 7.87702 60.588 7.87702 57.012C7.87702 53.436 8.98102 50.472 11.189 48.12C13.397 45.768 16.265 44.592 19.793 44.592C23.297 44.592 26.153 45.768 28.361 48.12C30.593 50.472 31.709 53.436 31.709 57.012C31.709 60.588 30.593 63.552 28.361 65.904C26.153 68.256 23.297 69.432 19.793 69.432ZM19.793 66.768C22.433 66.768 24.557 65.856 26.165 64.032C27.797 62.184 28.613 59.844 28.613 57.012C28.613 54.156 27.797 51.816 26.165 49.992C24.557 48.168 22.433 47.256 19.793 47.256C17.129 47.256 14.993 48.168 13.385 49.992C11.777 51.816 10.973 54.156 10.973 57.012C10.973 59.844 11.777 62.184 13.385 64.032C14.993 65.856 17.129 66.768 19.793 66.768ZM54.5924 69H50.8844L41.7764 58.2L39.3644 60.936V69H36.3764V44.988H39.3644V57.408L49.9844 44.988H53.7284L43.7204 56.4L54.5924 69ZM56.3415 69.432V66.768C57.3735 66.768 58.2135 66.528 58.8615 66.048C59.5095 65.568 60.0855 64.62 60.5895 63.204C61.0935 61.764 61.5135 59.712 61.8495 57.048L63.3255 44.988H78.0135V69H75.0255V47.652H65.9895L64.8015 57.264C64.4895 59.832 64.0695 61.944 63.5415 63.6C63.0375 65.256 62.4015 66.504 61.6335 67.344C60.8895 68.16 60.1095 68.712 59.2935 69C58.5015 69.288 57.5175 69.432 56.3415 69.432ZM99.3584 69H83.6264V44.988H99.3584V47.652H86.6144V55.392H99.1064V58.056H86.6144V66.336H99.3584V69ZM124.138 69H121.15V57.984H107.11V69H104.122V44.988H107.11V55.32H121.15V44.988H124.138V69ZM128.095 73.428V66.588C129.151 66.516 129.991 66.264 130.615 65.832C131.239 65.4 131.803 64.488 132.307 63.096C132.835 61.704 133.267 59.688 133.603 57.048L135.079 44.988H149.767V66.336H151.963V73.428H148.975V69H131.083V73.428H128.095ZM136.555 57.264C136.003 61.896 134.779 64.92 132.883 66.336H146.779V47.652H137.743L136.555 57.264ZM19.9613 113.432C16.4573 113.432 13.5173 112.28 11.1413 109.976C8.78934 107.648 7.61334 104.66 7.61334 101.012C7.61334 97.364 8.78934 94.388 11.1413 92.084C13.5173 89.756 16.4573 88.592 19.9613 88.592C23.8013 88.592 26.8373 90.176 29.0693 93.344L26.5493 94.748C25.8533 93.716 24.9173 92.876 23.7413 92.228C22.5653 91.58 21.3053 91.256 19.9613 91.256C17.3213 91.256 15.1133 92.18 13.3373 94.028C11.5853 95.852 10.7093 98.18 10.7093 101.012C10.7093 103.844 11.5853 106.184 13.3373 108.032C15.1133 109.856 17.3213 110.768 19.9613 110.768C21.3053 110.768 22.5653 110.456 23.7413 109.832C24.9173 109.184 25.8533 108.332 26.5493 107.276L29.1053 108.68C26.7773 111.848 23.7293 113.432 19.9613 113.432ZM35.7935 113H32.9135V88.988H35.9015V107.744L49.7255 88.988H52.7855V113H49.7975V93.848L35.7935 113ZM56.7458 117.428V110.588C57.8018 110.516 58.6418 110.264 59.2658 109.832C59.8898 109.4 60.4538 108.488 60.9578 107.096C61.4858 105.704 61.9178 103.688 62.2538 101.048L63.7298 88.988H78.4178V110.336H80.6138V117.428H77.6258V113H59.7338V117.428H56.7458ZM65.2058 101.264C64.6538 105.896 63.4298 108.92 61.5338 110.336H75.4297V91.652H66.3938L65.2058 101.264ZM104.433 113H101.445V101.984H87.4054V113H84.4174V88.988H87.4054V99.32H101.445V88.988H104.433V113ZM125.778 113H110.046V88.988H125.778V91.652H113.034V99.392H125.526V102.056H113.034V110.336H125.778V113ZM133.422 113H130.542V88.988H133.53V107.744L147.354 88.988H150.414V113H147.426V93.848L133.422 113ZM146.778 84.452C145.218 86.564 143.118 87.62 140.478 87.62C137.862 87.62 135.75 86.564 134.142 84.452L135.474 83.3C136.722 85.028 138.39 85.892 140.478 85.892C142.59 85.892 144.246 85.028 145.446 83.3L146.778 84.452ZM30.3805 157H27.3925V135.652H19.7965V132.988H38.0125V135.652H30.3805V157ZM51.9434 157.432C48.4154 157.432 45.5474 156.256 43.3394 153.904C41.1314 151.552 40.0274 148.588 40.0274 145.012C40.0274 141.436 41.1314 138.472 43.3394 136.12C45.5474 133.768 48.4154 132.592 51.9434 132.592C55.4474 132.592 58.3034 133.768 60.5114 136.12C62.7434 138.472 63.8594 141.436 63.8594 145.012C63.8594 148.588 62.7434 151.552 60.5114 153.904C58.3034 156.256 55.4474 157.432 51.9434 157.432ZM51.9434 154.768C54.5834 154.768 56.7074 153.856 58.3154 152.032C59.9474 150.184 60.7634 147.844 60.7634 145.012C60.7634 142.156 59.9474 139.816 58.3154 137.992C56.7074 136.168 54.5834 135.256 51.9434 135.256C49.2794 135.256 47.1434 136.168 45.5354 137.992C43.9274 139.816 43.1234 142.156 43.1234 145.012C43.1234 147.844 43.9274 150.184 45.5354 152.032C47.1434 153.856 49.2794 154.768 51.9434 154.768ZM86.7428 157H83.0348L73.9268 146.2L71.5148 148.936V157H68.5268V132.988H71.5148V145.408L82.1348 132.988H85.8788L75.8708 144.4L86.7428 157ZM93.0278 157H90.1478V132.988H93.1358V151.744L106.96 132.988H110.02V157H107.032V137.848L93.0278 157ZM126.58 157.432C123.052 157.432 120.184 156.256 117.976 153.904C115.768 151.552 114.664 148.588 114.664 145.012C114.664 141.436 115.768 138.472 117.976 136.12C120.184 133.768 123.052 132.592 126.58 132.592C130.084 132.592 132.94 133.768 135.148 136.12C137.38 138.472 138.496 141.436 138.496 145.012C138.496 148.588 137.38 151.552 135.148 153.904C132.94 156.256 130.084 157.432 126.58 157.432ZM126.58 154.768C129.22 154.768 131.344 153.856 132.952 152.032C134.584 150.184 135.4 147.844 135.4 145.012C135.4 142.156 134.584 139.816 132.952 137.992C131.344 136.168 129.22 135.256 126.58 135.256C123.916 135.256 121.78 136.168 120.172 137.992C118.564 139.816 117.76 142.156 117.76 145.012C117.76 147.844 118.564 150.184 120.172 152.032C121.78 153.856 123.916 154.768 126.58 154.768ZM9.46425 176.988H25.0523V179.652H12.4523V186.528H19.1123C21.4163 186.528 23.2403 187.224 24.5843 188.616C25.9523 190.008 26.6363 191.724 26.6363 193.764C26.6363 195.804 25.9643 197.52 24.6203 198.912C23.2763 200.304 21.4403 201 19.1123 201H9.46425V176.988ZM18.7523 189.192H12.4523V198.336H18.7523C20.1683 198.336 21.3203 197.916 22.2083 197.076C23.0963 196.212 23.5403 195.108 23.5403 193.764C23.5403 192.42 23.0963 191.328 22.2083 190.488C21.3203 189.624 20.1683 189.192 18.7523 189.192ZM41.5372 201.432C38.0092 201.432 35.1412 200.256 32.9332 197.904C30.7252 195.552 29.6212 192.588 29.6212 189.012C29.6212 185.436 30.7252 182.472 32.9332 180.12C35.1412 177.768 38.0092 176.592 41.5372 176.592C45.0412 176.592 47.8972 177.768 50.1052 180.12C52.3372 182.472 53.4532 185.436 53.4532 189.012C53.4532 192.588 52.3372 195.552 50.1052 197.904C47.8972 200.256 45.0412 201.432 41.5372 201.432ZM41.5372 198.768C44.1772 198.768 46.3012 197.856 47.9092 196.032C49.5412 194.184 50.3572 191.844 50.3572 189.012C50.3572 186.156 49.5412 183.816 47.9092 181.992C46.3012 180.168 44.1772 179.256 41.5372 179.256C38.8732 179.256 36.7372 180.168 35.1292 181.992C33.5212 183.816 32.7172 186.156 32.7172 189.012C32.7172 191.844 33.5212 194.184 35.1292 196.032C36.7372 197.856 38.8732 198.768 41.5372 198.768ZM69.4965 201.432C65.9925 201.432 63.0525 200.28 60.6765 197.976C58.3245 195.648 57.1485 192.66 57.1485 189.012C57.1485 185.364 58.3245 182.388 60.6765 180.084C63.0525 177.756 65.9925 176.592 69.4965 176.592C73.3365 176.592 76.3725 178.176 78.6045 181.344L76.0845 182.748C75.3885 181.716 74.4525 180.876 73.2765 180.228C72.1005 179.58 70.8405 179.256 69.4965 179.256C66.8565 179.256 64.6485 180.18 62.8725 182.028C61.1205 183.852 60.2445 186.18 60.2445 189.012C60.2445 191.844 61.1205 194.184 62.8725 196.032C64.6485 197.856 66.8565 198.768 69.4965 198.768C70.8405 198.768 72.1005 198.456 73.2765 197.832C74.4525 197.184 75.3885 196.332 76.0845 195.276L78.6405 196.68C76.3125 199.848 73.2645 201.432 69.4965 201.432ZM91.3766 201H88.3886V179.652H80.7926V176.988H99.0086V179.652H91.3766V201ZM112.94 201.432C109.412 201.432 106.544 200.256 104.336 197.904C102.128 195.552 101.024 192.588 101.024 189.012C101.024 185.436 102.128 182.472 104.336 180.12C106.544 177.768 109.412 176.592 112.94 176.592C116.444 176.592 119.299 177.768 121.508 180.12C123.74 182.472 124.856 185.436 124.856 189.012C124.856 192.588 123.74 195.552 121.508 197.904C119.299 200.256 116.444 201.432 112.94 201.432ZM112.94 198.768C115.58 198.768 117.704 197.856 119.312 196.032C120.944 194.184 121.76 191.844 121.76 189.012C121.76 186.156 120.944 183.816 119.312 181.992C117.704 180.168 115.58 179.256 112.94 179.256C110.276 179.256 108.14 180.168 106.532 181.992C104.924 183.816 104.12 186.156 104.12 189.012C104.12 191.844 104.924 194.184 106.532 196.032C108.14 197.856 110.276 198.768 112.94 198.768ZM149.539 201H146.551V189.984H132.511V201H129.523V176.988H132.511V187.32H146.551V176.988H149.539V201ZM12.3852 245.432C8.88117 245.432 5.94117 244.28 3.56517 241.976C1.21317 239.648 0.037172 236.66 0.037172 233.012C0.037172 229.364 1.21317 226.388 3.56517 224.084C5.94117 221.756 8.88117 220.592 12.3852 220.592C16.2252 220.592 19.2612 222.176 21.4932 225.344L18.9732 226.748C18.2772 225.716 17.3412 224.876 16.1652 224.228C14.9892 223.58 13.7292 223.256 12.3852 223.256C9.74517 223.256 7.53717 224.18 5.76117 226.028C4.00917 227.852 3.13317 230.18 3.13317 233.012C3.13317 235.844 4.00917 238.184 5.76117 240.032C7.53717 241.856 9.74517 242.768 12.3852 242.768C13.7292 242.768 14.9892 242.456 16.1652 241.832C17.3412 241.184 18.2772 240.332 18.9732 239.276L21.5292 240.68C19.2012 243.848 16.1532 245.432 12.3852 245.432ZM34.2653 245H31.2773V223.652H23.6813V220.988H41.8973V223.652H34.2653V245ZM63.9988 245H60.5788L58.4548 239.672H46.5028L44.3788 245H40.9588L50.6068 220.988H54.3148L63.9988 245ZM57.5548 237.008L52.4788 224.084L47.3668 237.008H57.5548ZM90.6461 245H87.6581V225.236L79.4861 245H78.2621L70.1261 225.236V245H67.1381V220.988H71.4221L78.8741 239.06L86.3621 220.988H90.6461V245ZM96.2475 220.988H111.835V223.652H99.2355V230.528H105.895C108.199 230.528 110.023 231.224 111.367 232.616C112.735 234.008 113.419 235.724 113.419 237.764C113.419 239.804 112.747 241.52 111.403 242.912C110.059 244.304 108.223 245 105.895 245H96.2475V220.988ZM105.535 233.192H99.2355V242.336H105.535C106.951 242.336 108.103 241.916 108.991 241.076C109.879 240.212 110.323 239.108 110.323 237.764C110.323 236.42 109.879 235.328 108.991 234.488C108.103 233.624 106.951 233.192 105.535 233.192ZM119.788 245.432C118.804 245.432 117.892 245.252 117.052 244.892C116.212 244.532 115.564 244.076 115.108 243.524L116.368 241.148C117.4 242.228 118.492 242.768 119.644 242.768C120.556 242.768 121.276 242.528 121.804 242.048C122.356 241.568 122.98 240.668 123.676 239.348L124.108 238.52L114.892 220.988H118.312L125.836 235.856L133.36 220.988H136.78L126.304 240.752C125.464 242.336 124.564 243.512 123.604 244.28C122.644 245.048 121.372 245.432 119.788 245.432ZM136.322 245.432V242.768C137.354 242.768 138.194 242.528 138.842 242.048C139.49 241.568 140.066 240.62 140.57 239.204C141.074 237.764 141.494 235.712 141.83 233.048L143.306 220.988H157.994V245H155.006V223.652H145.97L144.782 233.264C144.47 235.832 144.05 237.944 143.522 239.6C143.018 241.256 142.382 242.504 141.614 243.344C140.87 244.16 140.09 244.712 139.274 245C138.482 245.288 137.498 245.432 136.322 245.432Z" fill="#002EAB"/>
</svg>
