<svg width="32" height="70" viewBox="0 0 32 70" fill="none" xmlns="http://www.w3.org/2000/svg">
<path fill-rule="evenodd" clip-rule="evenodd" d="M0 5.59458e-06C3.78977e-07 4.24563 0.408359 8.44969 1.20176 12.3721C1.99516 16.2946 3.15807 19.8586 4.62408 22.8607C6.0901 25.8628 7.83051 28.2442 9.74595 29.869C10.9702 30.9074 12.2505 31.6237 13.5565 32.0055V62.6238H5.21666L5.21666 69.3757H26.3585V62.6238H18.0184V32.0056C19.3245 31.6238 20.605 30.9075 21.8293 29.869C23.7447 28.2442 25.4851 25.8628 26.9511 22.8607C28.4171 19.8586 29.58 16.2946 30.3734 12.3721C31.1668 8.44968 31.5752 4.24563 31.5752 0L15.7876 4.21438e-06L0 5.59458e-06Z" fill="white"/>
</svg>
