<svg width="188" height="246" viewBox="0 0 188 246" fill="none" xmlns="http://www.w3.org/2000/svg">
<path d="M38.5739 29.428V22.588C39.6299 22.516 40.4699 22.264 41.0939 21.832C41.7179 21.4 42.2819 20.488 42.7859 19.096C43.3139 17.704 43.7459 15.688 44.0819 13.048L45.5579 0.987998H60.2459V22.336H62.4419V29.428H59.4539V25H41.5619V29.428H38.5739ZM47.0339 13.264C46.4819 17.896 45.2579 20.92 43.3619 22.336H57.2579V3.652H48.2219L47.0339 13.264ZM86.8015 25H83.3815L81.2575 19.672H69.3055L67.1815 25H63.7615L73.4095 0.987998H77.1175L86.8015 25ZM80.3575 17.008L75.2815 4.084L70.1695 17.008H80.3575ZM108.157 25H104.449L95.3408 14.2L92.9288 16.936V25H89.9408V0.987998H92.9288V13.408L103.549 0.987998H107.293L97.2848 12.4L108.157 25ZM132.118 25H128.698L126.574 19.672H114.622L112.498 25H109.078L118.726 0.987998H122.434L132.118 25ZM125.674 17.008L120.598 4.084L115.486 17.008H125.674ZM138.245 25H135.257V0.987998H144.905C147.233 0.987998 149.069 1.684 150.413 3.076C151.757 4.468 152.429 6.184 152.429 8.224C152.429 10.264 151.745 11.98 150.377 13.372C149.033 14.764 147.209 15.46 144.905 15.46H138.245V25ZM144.545 12.796C145.961 12.796 147.113 12.376 148.001 11.536C148.889 10.672 149.333 9.568 149.333 8.224C149.333 6.88 148.889 5.788 148.001 4.948C147.113 4.084 145.961 3.652 144.545 3.652H138.245V12.796H144.545ZM18.3981 69H14.6901L25.5621 56.4L15.5541 44.988H19.2981L28.9461 56.292V44.988H31.9341V56.292L41.6181 44.988H45.3621L35.3181 56.4L46.2261 69H42.4821L33.3741 58.2L31.9341 59.856V69H28.9461V59.856L27.5061 58.2L18.3981 69ZM52.4966 69H49.6166V44.988H52.6046V63.744L66.4286 44.988H69.4886V69H66.5006V49.848L52.4966 69ZM77.3729 44.988V51.252C77.3729 54.948 79.2329 56.796 82.9529 56.796C84.9449 56.796 86.7929 56.52 88.4969 55.968V44.988H91.4849V69H88.4969V58.632C86.4809 59.184 84.5489 59.46 82.7009 59.46C79.9649 59.46 77.8889 58.728 76.4729 57.264C75.0809 55.776 74.3849 53.76 74.3849 51.216V44.988H77.3729ZM98.6247 69H94.9167L105.789 56.4L95.7807 44.988H99.5247L109.173 56.292V44.988H112.161V56.292L121.845 44.988H125.589L115.545 56.4L126.453 69H122.709L113.601 58.2L112.161 59.856V69H109.173V59.856L107.733 58.2L98.6247 69ZM150.399 69H146.979L144.855 63.672H132.903L130.779 69H127.359L137.007 44.988H140.715L150.399 69ZM143.955 61.008L138.879 48.084L133.767 61.008H143.955ZM163.147 69.432C159.619 69.432 156.751 68.256 154.543 65.904C152.335 63.552 151.231 60.588 151.231 57.012C151.231 53.436 152.335 50.472 154.543 48.12C156.751 45.768 159.619 44.592 163.147 44.592C166.651 44.592 169.507 45.768 171.715 48.12C173.947 50.472 175.063 53.436 175.063 57.012C175.063 60.588 173.947 63.552 171.715 65.904C169.507 68.256 166.651 69.432 163.147 69.432ZM163.147 66.768C165.787 66.768 167.911 65.856 169.519 64.032C171.151 62.184 171.967 59.844 171.967 57.012C171.967 54.156 171.151 51.816 169.519 49.992C167.911 48.168 165.787 47.256 163.147 47.256C160.483 47.256 158.347 48.168 156.739 49.992C155.131 51.816 154.327 54.156 154.327 57.012C154.327 59.844 155.131 62.184 156.739 64.032C158.347 65.856 160.483 66.768 163.147 66.768ZM23.4415 113H19.8415L12.1735 102.776L4.5055 113H0.8695L10.2295 100.688L1.4095 88.988H5.0455L12.1735 98.6L19.2655 88.988H22.9015L14.1175 100.652L23.4415 113ZM36.584 113.432C33.056 113.432 30.188 112.256 27.98 109.904C25.772 107.552 24.668 104.588 24.668 101.012C24.668 97.436 25.772 94.472 27.98 92.12C30.188 89.768 33.056 88.592 36.584 88.592C40.088 88.592 42.944 89.768 45.152 92.12C47.384 94.472 48.5 97.436 48.5 101.012C48.5 104.588 47.384 107.552 45.152 109.904C42.944 112.256 40.088 113.432 36.584 113.432ZM36.584 110.768C39.224 110.768 41.348 109.856 42.956 108.032C44.588 106.184 45.404 103.844 45.404 101.012C45.404 98.156 44.588 95.816 42.956 93.992C41.348 92.168 39.224 91.256 36.584 91.256C33.92 91.256 31.784 92.168 30.176 93.992C28.568 95.816 27.764 98.156 27.764 101.012C27.764 103.844 28.568 106.184 30.176 108.032C31.784 109.856 33.92 110.768 36.584 110.768ZM79.0514 88.988H82.0394V113H53.1674V88.988H56.1554V110.336H66.1274V88.988H69.1154V110.336H79.0514V88.988ZM90.5357 113H87.6557V88.988H90.6437V107.744L104.468 88.988H107.528V113H104.54V93.848L90.5357 113ZM136.652 113H133.664V93.236L125.492 113H124.268L116.132 93.236V113H113.144V88.988H117.428L124.88 107.06L132.368 88.988H136.652V113ZM145.133 113H142.253V88.988H145.241V107.744L159.065 88.988H162.125V113H159.137V93.848L145.133 113ZM187.758 113H184.77V101.984H170.73V113H167.742V88.988H170.73V99.32H184.77V88.988H187.758V113ZM54.192 157H50.484L41.376 146.2L38.964 148.936V157H35.976V132.988H38.964V145.408L49.584 132.988H53.328L43.32 144.4L54.192 157ZM66.6075 157.432C63.0795 157.432 60.2115 156.256 58.0035 153.904C55.7955 151.552 54.6915 148.588 54.6915 145.012C54.6915 141.436 55.7955 138.472 58.0035 136.12C60.2115 133.768 63.0795 132.592 66.6075 132.592C70.1115 132.592 72.9675 133.768 75.1755 136.12C77.4075 138.472 78.5235 141.436 78.5235 145.012C78.5235 148.588 77.4075 151.552 75.1755 153.904C72.9675 156.256 70.1115 157.432 66.6075 157.432ZM66.6075 154.768C69.2475 154.768 71.3715 153.856 72.9795 152.032C74.6115 150.184 75.4275 147.844 75.4275 145.012C75.4275 142.156 74.6115 139.816 72.9795 137.992C71.3715 136.168 69.2475 135.256 66.6075 135.256C63.9435 135.256 61.8075 136.168 60.1995 137.992C58.5915 139.816 57.7875 142.156 57.7875 145.012C57.7875 147.844 58.5915 150.184 60.1995 152.032C61.8075 153.856 63.9435 154.768 66.6075 154.768ZM80.1989 157.432V154.768C81.2309 154.768 82.0709 154.528 82.7189 154.048C83.3669 153.568 83.9429 152.62 84.4469 151.204C84.9509 149.764 85.3709 147.712 85.7069 145.048L87.1829 132.988H101.871V157H98.8829V135.652H89.8469L88.6589 145.264C88.3469 147.832 87.9269 149.944 87.3989 151.6C86.8949 153.256 86.2589 154.504 85.4909 155.344C84.7469 156.16 83.9669 156.712 83.1509 157C82.3589 157.288 81.3749 157.432 80.1989 157.432ZM118.428 157.432C114.9 157.432 112.032 156.256 109.824 153.904C107.616 151.552 106.512 148.588 106.512 145.012C106.512 141.436 107.616 138.472 109.824 136.12C112.032 133.768 114.9 132.592 118.428 132.592C121.932 132.592 124.788 133.768 126.996 136.12C129.228 138.472 130.344 141.436 130.344 145.012C130.344 148.588 129.228 151.552 126.996 153.904C124.788 156.256 121.932 157.432 118.428 157.432ZM118.428 154.768C121.068 154.768 123.192 153.856 124.8 152.032C126.432 150.184 127.248 147.844 127.248 145.012C127.248 142.156 126.432 139.816 124.8 137.992C123.192 136.168 121.068 135.256 118.428 135.256C115.764 135.256 113.628 136.168 112.02 137.992C110.412 139.816 109.608 142.156 109.608 145.012C109.608 147.844 110.412 150.184 112.02 152.032C113.628 153.856 115.764 154.768 118.428 154.768ZM155.027 157H152.039V145.984H137.999V157H135.011V132.988H137.999V143.32H152.039V132.988H155.027V157ZM28.4234 201H25.4354V181.236L17.2634 201H16.0394L7.90342 181.236V201H4.91542V176.988H9.19942L16.6514 195.06L24.1394 176.988H28.4234V201ZM49.7568 201H34.0248V176.988H49.7568V179.652H37.0128V187.392H49.5048V190.056H37.0128V198.336H49.7568V201ZM52.8649 201.432V198.768C53.8969 198.768 54.7369 198.528 55.3849 198.048C56.0329 197.568 56.6089 196.62 57.1129 195.204C57.6169 193.764 58.0369 191.712 58.3729 189.048L59.8489 176.988H74.5369V201H71.5489V179.652H62.5129L61.3249 189.264C61.0129 191.832 60.5929 193.944 60.0649 195.6C59.5609 197.256 58.9249 198.504 58.1569 199.344C57.4129 200.16 56.6329 200.712 55.8169 201C55.0249 201.288 54.0409 201.432 52.8649 201.432ZM80.1498 176.988H83.1378V186.528H89.7978C92.1018 186.528 93.9258 187.224 95.2698 188.616C96.6378 190.008 97.3218 191.724 97.3218 193.764C97.3218 195.804 96.6498 197.52 95.3058 198.912C93.9618 200.304 92.1258 201 89.7978 201H80.1498V176.988ZM89.4378 189.192H83.1378V198.336H89.4378C90.8538 198.336 92.0058 197.916 92.8938 197.076C93.7818 196.212 94.2258 195.108 94.2258 193.764C94.2258 192.42 93.7818 191.328 92.8938 190.488C92.0058 189.624 90.8538 189.192 89.4378 189.192ZM101.279 176.988H116.867V179.652H104.267V186.528H110.927C113.231 186.528 115.055 187.224 116.399 188.616C117.767 190.008 118.451 191.724 118.451 193.764C118.451 195.804 117.779 197.52 116.435 198.912C115.091 200.304 113.255 201 110.927 201H101.279V176.988ZM110.567 189.192H104.267V198.336H110.567C111.983 198.336 113.135 197.916 114.023 197.076C114.911 196.212 115.355 195.108 115.355 193.764C115.355 192.42 114.911 191.328 114.023 190.488C113.135 189.624 111.983 189.192 110.567 189.192ZM124.82 201.432C123.836 201.432 122.924 201.252 122.084 200.892C121.244 200.532 120.596 200.076 120.14 199.524L121.4 197.148C122.432 198.228 123.524 198.768 124.676 198.768C125.588 198.768 126.308 198.528 126.836 198.048C127.388 197.568 128.012 196.668 128.708 195.348L129.14 194.52L119.924 176.988H123.344L130.868 191.856L138.392 176.988H141.812L131.336 196.752C130.496 198.336 129.596 199.512 128.636 200.28C127.676 201.048 126.404 201.432 124.82 201.432ZM147.931 201H144.943V176.988H154.591C156.919 176.988 158.755 177.684 160.099 179.076C161.443 180.468 162.115 182.184 162.115 184.224C162.115 186.264 161.431 187.98 160.063 189.372C158.719 190.764 156.895 191.46 154.591 191.46H147.931V201ZM154.231 188.796C155.647 188.796 156.799 188.376 157.687 187.536C158.575 186.672 159.019 185.568 159.019 184.224C159.019 182.88 158.575 181.788 157.687 180.948C156.799 180.084 155.647 179.652 154.231 179.652H147.931V188.796H154.231ZM186.088 201H183.1V189.984H169.06V201H166.072V176.988H169.06V187.32H183.1V176.988H186.088V201ZM40.984 245H37.996V223.652H30.4V220.988H48.616V223.652H40.984V245ZM55.5753 245H52.5873V220.988H62.2353C64.5633 220.988 66.3993 221.684 67.7433 223.076C69.0873 224.468 69.7593 226.184 69.7593 228.224C69.7593 230.264 69.0753 231.98 67.7073 233.372C66.3633 234.764 64.5393 235.46 62.2353 235.46H55.5753V245ZM61.8753 232.796C63.2913 232.796 64.4433 232.376 65.3313 231.536C66.2193 230.672 66.6633 229.568 66.6633 228.224C66.6633 226.88 66.2193 225.788 65.3313 224.948C64.4433 224.084 63.2913 223.652 61.8753 223.652H55.5753V232.796H61.8753ZM76.5962 245H73.7162V220.988H76.7042V239.744L90.5282 220.988H93.5882V245H90.6002V225.848L76.5962 245ZM114.936 245H99.2045V220.988H114.936V223.652H102.192V231.392H114.684V234.056H102.192V242.336H114.936V245ZM131.077 245.432C127.573 245.432 124.633 244.28 122.257 241.976C119.905 239.648 118.729 236.66 118.729 233.012C118.729 229.364 119.905 226.388 122.257 224.084C124.633 221.756 127.573 220.592 131.077 220.592C134.917 220.592 137.953 222.176 140.185 225.344L137.665 226.748C136.969 225.716 136.033 224.876 134.857 224.228C133.681 223.58 132.421 223.256 131.077 223.256C128.437 223.256 126.229 224.18 124.453 226.028C122.701 227.852 121.825 230.18 121.825 233.012C121.825 235.844 122.701 238.184 124.453 240.032C126.229 241.856 128.437 242.768 131.077 242.768C132.421 242.768 133.681 242.456 134.857 241.832C136.033 241.184 136.969 240.332 137.665 239.276L140.221 240.68C137.893 243.848 134.845 245.432 131.077 245.432ZM152.957 245H149.969V223.652H142.373V220.988H160.589V223.652H152.957V245Z" fill="#002EAB"/>
</svg>
