<svg width="147" height="131" viewBox="0 0 147 131" fill="none" xmlns="http://www.w3.org/2000/svg">
<path d="M45.7705 37.1726L54.1577 42.4534C59.4592 33.4242 70.62 10.3053 76.5235 10.872C82.4271 11.4388 91.1797 32.0758 98.061 42.4534L92.0554 46.3882L110.072 52.7044L113.282 33.7556L106.655 37.4832C100.028 26.1968 89.9596 1.58229 76.5235 0.413958C64.6158 -0.621475 51.6726 23.8152 45.7705 37.1726Z" fill="#EA513A"/>
<path d="M66.0349 106.169L66.4146 96.2653C55.9443 96.1887 30.3423 98.0827 27.8814 92.6866C25.4205 87.2906 38.9163 69.3922 44.4629 58.2439L50.8733 61.4776L47.3349 42.7164L29.3198 49.4109L35.8615 53.2862C29.4006 64.6685 13.1182 85.6955 18.8244 97.9157C23.8816 108.746 51.516 107.737 66.0349 106.169Z" fill="#EA513A"/>
<path d="M115.773 53.7401L106.856 58.0669C111.717 67.3408 125.439 89.0376 121.836 93.7488C118.234 98.46 96.0895 94.9777 83.6427 95.3316L83.4783 88.1536L68.591 100.107L82.9774 112.85L83.3173 105.254C96.401 105.597 122.617 110.065 130.713 99.2783C137.888 89.7186 123.99 65.8121 115.773 53.7401Z" fill="#EA513A"/>
</svg>
