<svg width="51" height="114" viewBox="0 0 51 114" fill="none" xmlns="http://www.w3.org/2000/svg">
<path fill-rule="evenodd" clip-rule="evenodd" d="M0 9.19316e-06C6.1212e-07 6.97654 0.659578 13.8848 1.94107 20.3302C3.22257 26.7757 5.10089 32.6322 7.46878 37.5654C9.83668 42.4985 12.6478 46.4117 15.7416 49.0815C17.7189 50.7879 19.787 51.9649 21.8963 52.5923V102.905H8.42591V114H42.574V102.905H29.1032V52.5924C31.2127 51.9651 33.281 50.788 35.2584 49.0815C38.3522 46.4117 41.1633 42.4985 43.5312 37.5654C45.8991 32.6322 47.7774 26.7757 49.0589 20.3302C50.3404 13.8848 51 6.97653 51 0L25.5 6.92519e-06L0 9.19316e-06Z" fill="#EA513A"/>
</svg>
