<svg width="488" height="531" viewBox="0 0 488 531" fill="none" xmlns="http://www.w3.org/2000/svg">
<mask id="mask0_362_79" style="mask-type:alpha" maskUnits="userSpaceOnUse" x="4" y="0" width="480" height="530">
<rect x="4" width="480" height="530" fill="white"/>
</mask>
<g mask="url(#mask0_362_79)">
<mask id="mask1_362_79" style="mask-type:alpha" maskUnits="userSpaceOnUse" x="-1185" y="-70" width="2248" height="992">
<path d="M-717.77 421.542C-728.713 443.392 -742.608 460.588 -780.909 497.732C-819.211 534.876 -846.569 547.985 -824.683 596.054C-802.796 644.123 -828.33 683.452 -757.199 703.116C-686.068 722.781 -698.835 740.26 -634.999 731.52C-571.163 722.781 -428.9 773.034 -423.429 703.116C-417.957 633.198 -494.56 611.349 -379.656 562.188C-264.752 513.026 -184.5 539.246 -107.897 487.9C-31.2944 436.554 81.7862 436.554 54.428 337.139C27.0698 237.724 28.893 163.436 -78.7159 199.488C-186.325 235.539 -359.592 197.302 -423.429 172.176C-487.265 147.049 -585.755 86.9641 -645.943 129.57C-706.131 172.176 -782.734 210.413 -746.256 273.776C-717.074 324.466 -714.122 384.034 -717.77 421.542ZM797.964 611.955C749.612 570.799 678.195 507.565 694.61 461.681C711.025 415.797 694.61 400.503 694.61 352.434C694.61 304.365 638.07 360.081 630.774 395.04C623.479 429.999 618.007 423.444 630.774 461.681C643.542 499.917 658.133 534.876 661.78 576.39C665.428 617.904 658.132 658.325 694.61 677.99C731.088 697.654 793.1 704.209 825.93 691.1C852.194 680.612 911.044 635.989 797.964 611.955ZM54.428 187.163C91.2621 233.457 147.94 318.639 132.483 352.434C117.025 386.229 106.72 449.663 73.2281 449.663C39.7364 449.663 11.3972 453.731 -16.942 475.731C-45.2812 497.732 -52.0043 529.742 -107.897 534.371C-163.791 539 -215.316 562.188 -274.571 562.188C-333.826 562.188 -379.656 566.777 -379.656 603.813C-379.656 640.848 -382.775 652.864 -359.589 677.99C-336.402 703.116 -303.453 744.239 -341.555 764.3C-379.656 784.361 -506.436 764.3 -555.386 764.3C-604.335 764.3 -627.069 764.3 -673.895 764.3C-720.721 764.3 -711.603 781.274 -746.256 751.955C-780.91 722.635 -777.096 739.067 -824.683 721.092C-872.269 703.116 -864.541 721.304 -869.693 677.99C-874.846 634.675 -864.541 609.15 -887.727 576.39C-910.914 543.63 -921.219 533.975 -887.727 515.853C-854.235 497.732 -809.052 490.838 -794.981 461.681C-780.91 432.523 -813.015 374.465 -841.354 337.139C-869.693 299.813 -898.032 320.268 -905.761 273.776C-913.49 227.285 -950.772 205.681 -887.727 160.929C-824.683 116.178 -806.444 63.7112 -720.721 43.6503C-634.999 23.5894 -630.665 9.70123 -527.047 51.3662C-423.429 93.0312 -511.59 125.437 -341.555 119.264C-171.519 113.092 -302.91 82.2287 -150.909 100.746C-29.3079 115.561 36.6495 164.53 54.428 187.163ZM111.873 221.112C132.483 248.889 178.856 296.435 191.738 316.787C204.619 337.139 191.738 353.823 176.28 380.056C160.822 406.29 199.467 447.63 176.28 461.681C153.093 475.731 142.788 475.731 91.2626 475.731C39.7368 475.731 8.82182 461.092 -4.06007 497.732C-16.942 534.371 -11.846 545.173 -45.2811 545.173C-78.7161 545.173 -107.112 562.188 -135.451 562.188C-163.79 562.188 -202.434 576.39 -238.502 576.39C-274.571 576.39 -313.215 568.235 -313.215 596.054C-313.215 623.873 -346.707 642.604 -292.604 677.99C-238.502 713.376 -207.587 748.869 -223.045 764.3C-238.503 779.731 -256.536 787.447 -292.605 795.162C-328.673 802.878 -382.775 816.767 -447.182 805.965C-511.589 795.162 -506.436 795.162 -601.759 795.162C-697.082 795.162 -626.671 843.373 -757.199 787.447C-887.727 731.52 -916.066 760.755 -931.524 703.116C-946.982 645.477 -944.405 590.593 -957.287 576.39C-970.168 562.188 -983.05 515.853 -957.287 515.853C-931.524 515.853 -905.761 483.123 -905.761 461.681C-905.761 440.239 -905.761 437.647 -931.524 395.04C-957.287 352.434 -995.931 292.096 -993.355 239.63C-990.779 187.163 -1029.42 100.746 -980.473 100.746C-931.524 100.746 -868.456 62.1678 -824.682 34.3911C-780.909 6.6145 -833.625 -39.6799 -694.505 -35.0505C-555.386 -30.421 -514.708 14.3312 -447.182 43.6503C-379.656 72.9694 -351.859 85.3138 -313.215 68.34C-274.571 51.3662 -310.639 35.9344 -223.045 43.6503C-135.451 51.3662 -117.417 48.2791 -60.7386 79.142C-4.06022 110.005 24.2782 115.733 73.2281 143.954C112.388 166.531 103.33 189.573 111.873 221.112ZM158.246 187.163C191.738 239.63 222.653 255.06 248.416 285.924C274.179 316.787 263.874 306.567 248.416 337.139C232.958 367.71 202.043 360.644 225.23 395.04C248.416 429.436 287.06 435.462 248.416 461.681C209.772 487.9 153.093 507.564 132.483 497.732C111.873 487.9 47.4656 486.534 34.5842 515.853C21.7028 545.173 -94.3493 584.33 -94.3493 584.33C-94.3493 584.33 -171.519 596.054 -197.282 596.054C-223.045 596.054 -246.231 585.296 -253.96 603.813C-261.689 622.33 -279.723 646.913 -238.502 662.452C-197.282 677.99 -166.366 690.229 -150.909 721.092C-135.451 751.955 -125.146 792.077 -161.214 805.965C-197.282 819.852 -277.689 866.147 -328.673 864.604C-379.656 863.06 -405.961 841.394 -480.674 822.876C-555.386 804.359 -653.038 828.619 -678.573 828.619C-704.108 828.619 -692.126 849.172 -780.909 818.309C-869.693 787.447 -836.201 818.309 -887.727 795.162C-939.253 772.015 -942.279 783.595 -965.465 734.756C-988.652 685.918 -959.408 675.054 -990.323 651.8C-1021.24 628.546 -1060.34 690.227 -1068.07 647.02C-1075.8 603.813 -1003.66 514.118 -980.473 487.9C-957.287 461.681 -926.371 457.213 -980.473 418.634C-1034.58 380.056 -1050.03 388.081 -1068.07 352.434C-1082.49 323.916 -1063.77 151.156 -1052.61 68.3399C-1044.88 74.5124 -1019.63 81.6107 -980.473 60.6242C-931.524 34.3911 -931.524 43.6496 -931.524 11.2435C-931.524 -21.1625 -944.405 -22.7049 -869.693 -35.0505C-809.923 -44.9269 -635.251 -61.7987 -555.386 -69.0001C-535.634 -63.3419 -486.341 -44.927 -447.182 -16.5331C-398.232 18.9593 -405.962 39.0203 -359.589 25.1319C-313.215 11.2436 -192.186 -2.64478 -135.451 11.2436C-78.7159 25.1319 106.719 57.5387 132.483 100.746C153.093 135.313 150.438 141.939 158.246 187.163ZM225.23 153.213C258.721 221.112 250.992 242.518 305.094 258.147C359.197 273.776 341.162 305.83 305.094 329.132C269.026 352.434 214.924 371.446 276.755 395.04C338.586 418.634 333.434 441.783 305.094 475.731C276.755 509.68 250.993 542.087 191.738 534.371C132.483 526.655 128.097 501.964 91.2626 523.568C54.428 545.173 47.4657 568.236 21.7028 596.054C-4.06012 623.873 -21.981 639.304 -78.716 631.589C-135.451 623.873 -186.977 600.726 -161.214 631.589C-135.451 662.452 -117.417 645.691 -60.7386 677.99C-4.06025 710.289 11.3967 710.29 -16.942 764.3C-45.2807 818.309 -13.5798 843 -60.7386 864.604C-98.4656 881.887 -605.456 889.294 -854.235 890.837C-845.648 883.121 -840.323 861.517 -887.727 836.827C-946.982 805.964 -1008.81 872.319 -1052.61 818.309C-1087.65 775.102 -1154.8 426.865 -1184 258.147L-1068.07 -35.0505L34.5842 -47.396C53.4772 -35.5653 95.3851 -7.27449 111.873 11.2436C132.483 34.3912 135.059 23.5904 191.738 51.3662C237.08 73.5869 211.221 117.97 225.23 153.213ZM276.755 129.57C276.755 172.176 230.382 202.594 305.094 221.112C379.807 239.63 454.519 255.06 410.722 285.924C366.925 316.787 328.281 309.828 328.281 352.434C328.281 395.04 354.044 398.573 382.383 437.152C410.722 475.731 377.231 494.248 341.162 523.568C305.094 552.888 305.094 568.401 248.416 562.188C191.738 555.974 191.737 547.985 132.483 562.188C73.2281 576.39 54.428 616.157 54.428 631.589C54.428 647.02 17.5934 685.141 54.428 703.116C91.2626 721.092 92.0282 725.72 73.2281 772.015C54.428 818.309 112.916 826.025 54.428 864.604C7.63751 895.467 -744.314 894.952 -1114.44 890.837L-1114.44 -16.5331L225.23 -47.396C242.405 -44.3097 276.755 -28.261 276.755 11.2436C276.755 60.6243 305.094 41.0595 305.094 85.3146C305.094 120.719 283.148 107.958 276.755 129.57ZM-78.7159 273.776C-23.5138 323.164 -49.5344 341.478 -78.7159 380.056C-107.897 418.634 -119.993 463.563 -197.282 475.731C-274.571 487.9 -278.638 497.335 -379.656 515.853C-480.674 534.371 -498.708 562.188 -498.708 562.188C-498.708 562.188 -606.458 661.722 -663.59 611.955C-720.721 562.188 -712.791 533.783 -673.895 497.732C-634.999 461.681 -624.055 473.294 -634.999 395.04C-645.943 316.787 -748.607 285.924 -663.59 247.345C-578.572 208.766 -545.623 224.198 -462.64 265.863C-379.656 307.528 -496.132 347.65 -359.589 316.787C-223.045 285.924 -279.78 289.405 -179.248 273.776C-98.8224 261.273 -78.7159 268.566 -78.7159 273.776ZM-161.214 380.056C-135.451 432.178 -153.485 437.645 -223.045 449.663C-292.605 461.681 -271.995 469.206 -359.589 487.9C-447.182 506.594 -509.013 566.777 -555.386 545.173C-601.759 523.568 -619.793 514.311 -573.42 475.731C-527.047 437.152 -470.369 452.942 -498.708 395.04C-527.047 337.139 -608.109 294.54 -514.478 305.756C-423.92 316.605 -518.184 380.056 -423.429 380.056C-328.673 380.056 -326.097 395.196 -274.571 366.167C-233.35 342.945 -172.909 356.395 -161.214 380.056ZM661.78 329.132C588.486 380.056 580.757 412.623 588.486 437.152C596.215 461.681 598.791 486.534 606.52 515.853C614.249 545.173 606.52 558.285 606.52 608.781C606.52 627.109 588.662 639.349 619.668 669.341C650.674 699.333 613.648 721.729 701.816 718.803C797.964 715.613 843.539 771.941 884.759 731.52C925.98 691.1 943.589 661.722 884.759 611.955C825.93 562.188 781.708 623.873 768.826 523.568C755.945 423.264 817.279 504.157 755.945 395.04C706.877 307.747 679.548 316.787 661.78 329.132ZM619.401 316.787C575.605 366.167 534.384 339.933 534.384 407.832C534.384 552.888 531.807 606.355 560.147 654.736C588.486 703.116 560.147 698.741 560.147 731.52C560.147 764.3 556.663 765.091 630.774 751.955C695.645 740.456 656.202 722.508 743.795 758C831.389 793.492 871.877 822.939 918.251 787.447C964.624 751.955 1023.88 607.608 941.437 576.39C825.929 475.731 861.573 479.264 853.844 437.152C846.115 395.04 830.657 388.354 784.284 337.139C737.911 285.924 726.538 275.122 678.656 285.924C640.351 294.565 623.192 310.1 619.401 316.787ZM560.147 309.071C506.045 366.167 488.011 362.187 490.587 395.04C493.163 427.893 490.587 484.949 490.587 523.568C490.587 562.188 503.469 603.811 506.045 662.452C508.621 721.092 477.706 731.894 477.706 751.955C477.706 772.015 503.469 802.878 573.028 795.163C642.588 787.447 620.394 738.065 694.61 772.015C853.844 864.604 802.318 895.467 900.217 880.035C998.116 864.604 1026.45 864.604 1034.18 818.309C1040.37 781.274 1024.74 606.384 1016.15 523.568C1013.57 539.054 997.6 559.191 954.319 515.853C900.217 461.681 889.912 415.548 871.878 366.167C853.844 316.787 851.268 296.726 784.284 265.863C717.3 235 688.52 208.766 630.774 247.345C584.578 278.208 564.441 301.355 560.147 309.071ZM506.045 316.787C449.366 380.056 421.027 358.451 431.332 437.152C441.637 515.853 431.332 521.192 431.332 576.39C431.332 631.589 480.282 690.229 431.332 721.092C382.383 751.955 384.959 772.016 431.332 795.163C477.706 818.309 538.526 796.195 613.734 830.144C688.943 864.093 671.919 830.654 694.61 880.035C712.762 919.54 887.335 923.243 972.353 920.157L1049.64 449.663L998.116 380.056C982.658 386.871 945.044 387.829 918.251 337.139C884.759 273.776 895.915 270.512 825.93 235C755.945 199.488 763.414 185.873 661.78 198.198C560.147 210.523 534.384 168.448 534.384 221.112C534.384 263.243 515.491 302.45 506.045 316.787ZM853.844 68.34C838.386 100.747 873.958 130.067 784.284 119.264C694.61 108.462 717.041 150.127 661.78 100.746C606.52 51.3662 668.351 51.3662 573.028 51.3662C477.706 51.3662 431.332 66.7969 431.332 25.1319C431.332 -8.20003 462.248 -16.533 477.706 -16.533L838.386 -16.533C828.081 8.15733 861.772 51.7186 853.844 68.34ZM918.251 -27.335C918.251 25.132 895.064 17.4178 918.251 51.3663C941.437 85.3147 946.59 122.901 900.217 129.57C853.844 136.239 838.386 143.954 784.284 143.954C730.182 143.954 633.994 191.17 633.994 136.896C633.994 132.044 646.539 113.423 600.165 96.4481C570.734 85.6749 570.452 102.289 490.587 85.3147C410.722 68.34 382.383 77.5997 382.383 34.3912C382.383 -8.81729 356.62 -47.396 369.502 -47.396C379.807 -47.396 739.628 -34.022 918.251 -27.335ZM410.722 864.604C341.162 764.3 299.942 776.101 341.162 739.609C382.383 703.116 410.722 712.948 410.722 662.452C410.722 611.955 433.909 567.486 369.502 576.39C305.094 585.294 328.281 631.235 276.755 603.813C225.229 576.39 220.077 549.802 176.28 585.294C132.483 620.787 91.2631 593.682 111.873 642.391C132.483 691.099 132.483 677.884 132.483 721.092C132.483 764.3 91.2631 753.498 111.873 795.163C132.483 836.827 124.754 830.654 158.246 864.604C185.039 891.763 337.727 875.92 410.722 864.604ZM297.423 795.163C297.423 776.415 277.079 725.31 312.29 709.713C352.993 691.684 413.446 602.474 363.15 612.696C319.332 621.601 289.372 647.523 252.822 618.788C227.783 599.104 142.788 606.151 158.246 649.253C173.704 692.355 158.246 716.791 158.246 758.456C158.246 800.121 112.707 829.867 192.572 819.065C256.464 810.424 297.423 808.137 297.423 795.163ZM305.094 -38.2827C316.911 11.2436 354.044 51.0363 354.044 79.142C354.044 107.248 299.942 108.83 341.163 147.996C382.383 187.163 363.614 212.03 410.722 209.119C457.83 206.209 481.089 184.864 456.211 166.43C431.332 147.996 374.952 127.4 410.722 119.264C446.492 111.129 420.403 115.389 490.587 104.643C548.377 95.7941 538.439 122.342 584.812 132.044C631.186 141.746 599.768 176.474 630.774 180.354C661.78 184.235 739.688 176.132 768.826 176.132C797.964 176.132 825.505 194.566 871.878 176.132C918.251 157.698 941.232 156.728 969.674 166.43C992.427 174.192 998.116 191.703 998.116 199.488L1062 119.264L1016.15 -27.335L305.094 -38.2827Z" stroke="#EA513A"/>
</mask>
<g mask="url(#mask1_362_79)">
<rect x="-950" y="1" width="1467" height="530" fill="#EA513A"/>
</g>
</g>
</svg>
