<svg width="488" height="670" viewBox="0 0 488 670" fill="none" xmlns="http://www.w3.org/2000/svg">
<mask id="mask0_366_89" style="mask-type:alpha" maskUnits="userSpaceOnUse" x="4" y="0" width="480" height="669">
<rect x="4" width="480" height="669" fill="white"/>
</mask>
<g mask="url(#mask0_366_89)">
<mask id="mask1_366_89" style="mask-type:alpha" maskUnits="userSpaceOnUse" x="-2492" y="-495" width="3466" height="1529">
<path d="M-1771.88 262.624C-1788.75 296.326 -1810.19 322.849 -1869.26 380.141C-1928.34 437.433 -1970.54 457.653 -1936.78 531.796C-1903.02 605.938 -1942.41 666.6 -1832.69 696.93C-1722.98 727.261 -1742.67 754.222 -1644.21 740.742C-1545.75 727.261 -1326.32 804.774 -1317.88 696.931C-1309.44 589.087 -1427.59 555.386 -1250.36 479.559C-1073.13 403.732 -949.348 444.173 -831.194 364.976C-713.039 285.778 -538.621 285.778 -580.819 132.439C-623.017 -20.901 -620.205 -135.485 -786.183 -79.878C-952.162 -24.2714 -1219.41 -83.2486 -1317.88 -122.005C-1416.34 -160.761 -1568.25 -253.437 -1661.09 -187.721C-1753.92 -122.005 -1872.08 -63.0259 -1815.81 34.7064C-1770.8 112.892 -1766.25 204.771 -1771.88 262.624ZM566.028 556.322C491.449 492.841 381.294 395.307 406.613 324.535C431.931 253.763 406.613 230.172 406.613 156.03C406.613 81.8878 319.404 167.825 308.151 221.747C296.899 275.669 288.459 265.558 308.151 324.535C327.844 383.512 350.349 437.433 355.976 501.465C361.602 565.497 350.348 627.844 406.613 658.175C462.877 688.506 558.526 698.616 609.163 678.396C649.673 662.219 740.446 593.393 566.028 556.322ZM-580.819 -98.8879C-524.005 -27.4823 -436.583 103.904 -460.426 156.03C-484.268 208.156 -500.163 305.999 -551.821 305.999C-603.48 305.999 -647.191 312.273 -690.902 346.207C-734.613 380.141 -744.983 429.513 -831.194 436.654C-917.405 443.795 -996.879 479.559 -1088.28 479.559C-1179.67 479.559 -1250.36 486.638 -1250.36 543.762C-1250.36 600.887 -1255.17 619.42 -1219.41 658.175C-1183.64 696.931 -1132.82 760.359 -1191.59 791.302C-1250.36 822.244 -1445.91 791.302 -1521.41 791.302C-1596.91 791.302 -1631.98 791.302 -1704.2 791.302C-1776.43 791.302 -1762.36 817.484 -1815.81 772.26C-1869.26 727.037 -1863.38 752.382 -1936.78 724.656C-2010.18 696.93 -1998.26 724.984 -2006.21 658.175C-2014.15 591.366 -1998.26 551.996 -2034.02 501.465C-2069.78 450.935 -2085.68 436.043 -2034.02 408.092C-1982.36 380.141 -1912.67 369.508 -1890.97 324.535C-1869.26 279.562 -1918.78 190.012 -1962.49 132.439C-2006.21 74.8656 -2049.92 106.416 -2061.84 34.7063C-2073.76 -37.0031 -2131.26 -70.3257 -2034.02 -139.351C-1936.78 -208.377 -1908.65 -289.303 -1776.43 -320.245C-1644.21 -351.188 -1637.52 -372.609 -1477.7 -308.344C-1317.88 -244.079 -1453.86 -194.096 -1191.59 -203.617C-929.325 -213.137 -1131.99 -260.741 -897.535 -232.179C-709.975 -209.329 -608.241 -133.797 -580.819 -98.8879ZM-492.215 -46.5242C-460.426 -3.68085 -388.898 69.6559 -369.029 101.047C-349.161 132.439 -369.029 158.172 -392.872 198.635C-416.714 239.098 -357.108 302.863 -392.872 324.535C-428.635 346.207 -444.53 346.207 -524.005 346.207C-603.479 346.207 -651.163 323.628 -671.032 380.141C-690.902 436.654 -683.042 453.315 -734.613 453.315C-786.184 453.315 -829.982 479.559 -873.693 479.559C-917.404 479.559 -977.009 501.465 -1032.64 501.465C-1088.27 501.465 -1147.88 488.887 -1147.88 531.796C-1147.88 574.704 -1199.54 603.595 -1116.09 658.175C-1032.64 712.755 -984.958 767.5 -1008.8 791.302C-1032.64 815.103 -1060.46 827.004 -1116.09 838.905C-1171.72 850.806 -1255.17 872.228 -1354.51 855.566C-1453.86 838.905 -1445.91 838.905 -1592.94 838.905C-1739.97 838.905 -1631.36 913.266 -1832.69 827.004C-2034.02 740.742 -2077.73 785.834 -2101.57 696.93C-2125.42 608.027 -2121.44 523.372 -2141.31 501.465C-2161.18 479.559 -2181.05 408.092 -2141.31 408.092C-2101.57 408.092 -2061.84 357.608 -2061.84 324.535C-2061.84 291.462 -2061.84 287.464 -2101.57 221.747C-2141.31 156.03 -2200.92 62.9639 -2196.94 -17.962C-2192.97 -98.888 -2252.58 -232.179 -2177.08 -232.179C-2101.57 -232.179 -2004.3 -291.683 -1936.78 -334.527C-1869.26 -377.37 -1950.57 -448.776 -1735.99 -441.635C-1521.41 -434.495 -1458.67 -365.468 -1354.51 -320.245C-1250.36 -275.023 -1207.49 -255.983 -1147.88 -282.163C-1088.28 -308.344 -1143.91 -332.146 -1008.8 -320.245C-873.693 -308.344 -845.877 -313.106 -758.455 -265.502C-671.033 -217.898 -627.323 -209.064 -551.821 -165.534C-491.42 -130.711 -505.391 -95.1707 -492.215 -46.5242ZM-420.688 -98.8879C-369.029 -17.962 -321.345 5.83865 -281.607 53.443C-241.87 101.047 -257.765 85.2844 -281.607 132.439C-305.45 179.593 -353.134 168.694 -317.371 221.747C-281.607 274.8 -222.001 284.095 -281.607 324.535C-341.213 364.976 -428.637 395.306 -460.426 380.141C-492.215 364.976 -591.558 362.869 -611.427 408.092C-631.295 453.315 -810.297 513.711 -810.297 513.711C-810.297 513.711 -929.325 531.796 -969.062 531.796C-1008.8 531.796 -1044.56 515.201 -1056.48 543.762C-1068.41 572.324 -1096.22 610.242 -1032.64 634.208C-969.062 658.175 -921.378 677.053 -897.535 724.656C-873.693 772.26 -857.798 834.145 -913.43 855.566C-969.062 876.987 -1093.08 948.393 -1171.72 946.013C-1250.36 943.633 -1290.93 910.214 -1406.17 881.652C-1521.41 853.09 -1672.03 890.509 -1711.42 890.509C-1750.8 890.509 -1732.32 922.21 -1869.26 874.607C-2006.21 827.004 -1954.55 874.607 -2034.02 838.905C-2113.5 803.203 -2118.16 821.063 -2153.93 745.733C-2189.69 670.404 -2144.58 653.647 -2192.27 617.779C-2239.95 581.911 -2300.26 677.051 -2312.18 610.406C-2324.1 543.762 -2212.84 405.416 -2177.08 364.976C-2141.31 324.535 -2093.63 317.643 -2177.08 258.139C-2260.52 198.635 -2284.37 211.013 -2312.18 156.03C-2334.44 112.044 -2305.56 -154.426 -2288.34 -282.163C-2276.42 -272.643 -2237.48 -261.694 -2177.08 -294.064C-2101.57 -334.527 -2101.57 -320.246 -2101.57 -370.23C-2101.57 -420.214 -2121.44 -422.593 -2006.21 -441.635C-1914.01 -456.869 -1644.6 -482.892 -1521.41 -494C-1490.95 -485.272 -1414.91 -456.869 -1354.51 -413.073C-1279.01 -358.329 -1290.94 -327.387 -1219.41 -348.808C-1147.88 -370.23 -961.202 -391.652 -873.693 -370.23C-786.183 -348.808 -500.164 -298.823 -460.426 -232.179C-428.635 -178.863 -432.732 -168.642 -420.688 -98.8879ZM-317.371 -151.253C-265.712 -46.5242 -277.633 -13.5071 -194.185 10.5997C-110.737 34.7064 -138.553 84.1465 -194.185 120.088C-249.817 156.03 -333.266 185.355 -237.896 221.747C-142.527 258.139 -150.474 293.844 -194.185 346.207C-237.896 398.57 -277.633 448.556 -369.029 436.654C-460.426 424.752 -467.19 386.668 -524.005 419.992C-580.819 453.315 -591.558 488.888 -631.295 531.796C-671.033 574.704 -698.674 598.506 -786.183 586.605C-873.693 574.704 -953.168 539.001 -913.43 586.605C-873.693 634.209 -845.877 608.356 -758.455 658.175C-671.033 707.994 -647.192 707.996 -690.902 791.302C-734.612 874.607 -685.716 912.69 -758.455 946.013C-816.646 972.671 -1598.64 984.096 -1982.36 986.476C-1969.12 974.575 -1960.9 941.252 -2034.02 903.169C-2125.42 855.566 -2220.79 957.913 -2288.34 874.607C-2342.38 807.963 -2445.96 270.834 -2491 10.5996L-2312.18 -441.635L-611.427 -460.677C-582.286 -442.429 -517.646 -398.793 -492.215 -370.23C-460.426 -334.527 -456.451 -351.186 -369.029 -308.344C-299.092 -274.07 -338.978 -205.612 -317.371 -151.253ZM-237.896 -187.721C-237.896 -122.005 -309.423 -75.0864 -194.185 -46.5242C-78.947 -17.9619 36.291 5.83867 -31.2624 53.443C-98.8158 101.047 -158.422 90.313 -158.422 156.03C-158.422 221.747 -118.684 227.196 -74.9734 286.701C-31.2624 346.207 -82.9208 374.768 -138.553 419.992C-194.185 465.215 -194.185 489.142 -281.607 479.559C-369.029 469.976 -369.03 457.653 -460.426 479.559C-551.821 501.465 -580.819 562.803 -580.819 586.605C-580.819 610.407 -637.634 669.205 -580.819 696.931C-524.005 724.656 -522.824 731.796 -551.821 803.202C-580.819 874.607 -490.606 886.508 -580.819 946.013C-652.99 993.616 -1812.82 992.823 -2383.71 986.476L-2383.71 -413.074L-317.371 -460.677C-290.879 -455.917 -237.896 -431.163 -237.896 -370.23C-237.896 -294.064 -194.185 -324.241 -194.185 -255.981C-194.185 -201.373 -228.036 -221.055 -237.896 -187.721ZM-786.183 34.7064C-701.038 110.884 -741.173 139.131 -786.183 198.635C-831.194 258.139 -849.85 327.438 -969.062 346.207C-1088.28 364.976 -1094.55 379.53 -1250.36 408.092C-1406.17 436.654 -1433.99 479.559 -1433.99 479.559C-1433.99 479.559 -1600.19 633.084 -1688.31 556.321C-1776.43 479.559 -1764.2 435.746 -1704.2 380.141C-1644.21 324.535 -1627.33 342.447 -1644.21 221.747C-1661.09 101.047 -1819.44 53.443 -1688.31 -6.06167C-1557.17 -65.5663 -1506.35 -41.7645 -1378.36 22.5006C-1250.36 86.7656 -1430.02 148.652 -1219.41 101.047C-1008.8 53.4429 -1096.31 58.8131 -941.246 34.7064C-817.196 15.421 -786.183 26.6708 -786.183 34.7064ZM-913.43 198.635C-873.693 279.029 -901.509 287.462 -1008.8 305.999C-1116.09 324.535 -1084.3 336.142 -1219.41 364.976C-1354.51 393.81 -1449.88 486.638 -1521.41 453.315C-1592.94 419.992 -1620.75 405.713 -1549.23 346.207C-1477.7 286.701 -1390.28 311.055 -1433.99 221.747C-1477.7 132.439 -1602.73 66.7327 -1458.31 84.0335C-1318.63 100.767 -1464.03 198.635 -1317.88 198.635C-1171.72 198.635 -1167.75 221.987 -1088.28 177.213C-1024.69 141.393 -931.469 162.139 -913.43 198.635ZM355.976 120.088C242.925 198.635 231.004 248.867 242.925 286.701C254.846 324.535 258.82 362.869 270.741 408.092C282.662 453.315 270.741 473.539 270.741 551.426C270.741 579.695 243.196 598.575 291.02 644.835C338.845 691.096 281.735 725.64 417.727 721.127C566.028 716.205 636.324 803.088 699.904 740.742C763.483 678.396 790.644 633.084 699.904 556.322C609.163 479.559 540.954 574.704 521.086 419.992C501.217 265.28 595.821 390.051 501.217 221.747C425.534 87.1038 383.381 101.047 355.976 120.088ZM290.609 101.047C223.056 177.213 159.476 136.749 159.476 241.478C159.476 465.215 155.502 547.684 199.214 622.308C242.925 696.931 199.214 690.182 199.214 740.742C199.214 791.302 193.839 792.522 308.151 772.26C408.209 754.525 347.371 726.841 482.478 781.585C617.584 836.328 680.034 881.748 751.561 827.004C823.089 772.26 914.484 549.616 787.325 501.465C609.163 346.207 664.14 351.656 652.219 286.701C640.298 221.747 616.455 211.434 544.928 132.439C473.401 53.443 455.859 36.7816 382.005 53.443C322.922 66.7721 296.457 90.733 290.609 101.047ZM199.214 89.1458C115.766 177.213 87.9494 171.074 91.9231 221.747C95.8969 272.42 91.9231 360.424 91.9231 419.992C91.9231 479.559 111.792 543.761 115.765 634.209C119.739 724.656 72.0544 741.319 72.0544 772.26C72.0544 803.202 111.792 850.806 219.083 838.905C326.373 827.004 292.14 750.837 406.613 803.202C652.219 946.013 572.744 993.616 723.746 969.815C874.747 946.013 918.458 946.013 930.379 874.607C939.916 817.483 915.809 547.728 902.564 419.992C898.59 443.877 873.952 474.937 807.194 408.092C723.746 324.535 707.851 253.378 680.035 177.213C652.219 101.047 648.245 70.1044 544.928 22.5007C441.611 -25.1031 397.22 -65.5662 308.151 -6.06158C236.896 41.5421 205.837 77.2449 199.214 89.1458ZM115.766 101.047C28.3433 198.635 -15.3678 165.311 0.527108 286.701C16.422 408.092 0.527102 416.326 0.527098 501.465C0.527094 586.605 76.0276 677.053 0.527088 724.656C-74.9734 772.26 -71.0002 803.203 0.527083 838.905C72.0544 874.607 165.865 840.497 281.868 892.861C397.872 945.225 371.614 893.649 406.613 969.815C434.611 1030.75 703.877 1036.46 835.01 1031.7L954.222 305.999L874.747 198.635C850.905 209.147 792.888 210.624 751.562 132.439C699.903 34.7065 717.11 29.6718 609.163 -25.1031C501.217 -79.878 512.738 -100.877 355.976 -81.8674C199.214 -62.8575 159.476 -127.755 159.476 -46.5242C159.476 18.4603 130.336 78.9337 115.766 101.047ZM652.219 -282.163C628.377 -232.179 683.244 -186.955 544.928 -203.616C406.613 -220.278 441.21 -156.013 355.976 -232.179C270.741 -308.344 366.111 -308.344 219.083 -308.344C72.0546 -308.344 0.527133 -284.543 0.527135 -348.808C0.527138 -400.22 48.212 -413.073 72.0544 -413.073L628.377 -413.073C612.482 -374.99 664.448 -307.801 652.219 -282.163ZM751.562 -429.735C751.562 -348.808 715.798 -360.707 751.562 -308.344C787.325 -255.981 795.273 -198.007 723.746 -187.721C652.219 -177.435 628.376 -165.534 544.928 -165.534C461.48 -165.534 313.117 -92.7071 313.117 -176.42C313.117 -183.904 332.467 -212.627 260.939 -238.809C215.543 -255.425 215.109 -229.799 91.9232 -255.981C-31.2623 -282.163 -74.9733 -267.881 -74.9733 -334.527C-74.9733 -401.173 -114.711 -460.677 -94.842 -460.677C-78.9471 -460.677 476.05 -440.049 751.562 -429.735ZM-31.2624 946.013C-138.553 791.302 -202.133 809.505 -138.553 753.218C-74.9734 696.931 -31.2624 712.096 -31.2624 634.209C-31.2624 556.321 4.50123 487.732 -94.842 501.465C-194.185 515.199 -158.422 586.059 -237.896 543.762C-317.371 501.465 -325.317 460.455 -392.872 515.199C-460.426 569.943 -524.004 528.136 -492.215 603.266C-460.426 678.396 -460.426 658.011 -460.426 724.656C-460.426 791.302 -524.004 774.641 -492.215 838.905C-460.426 903.17 -472.346 893.649 -420.688 946.013C-379.361 987.904 -143.851 963.467 -31.2624 946.013ZM-206.018 838.905C-206.018 809.989 -237.398 731.163 -183.087 707.106C-120.306 679.297 -27.0619 541.698 -104.639 557.464C-172.225 571.199 -218.436 611.182 -274.811 566.862C-313.432 536.499 -444.53 547.369 -420.688 613.851C-396.845 680.332 -420.688 718.024 -420.688 782.288C-420.688 846.553 -490.928 892.435 -367.743 875.773C-269.194 862.444 -206.018 858.917 -206.018 838.905ZM-194.185 -446.621C-175.958 -370.23 -118.684 -308.853 -118.684 -265.502C-118.684 -222.151 -202.133 -219.711 -138.553 -159.299C-74.9733 -98.8879 -103.923 -60.5327 -31.2624 -65.0221C41.3982 -69.5115 77.2727 -102.434 38.9 -130.867C0.527233 -159.299 -86.4345 -191.068 -31.2624 -203.616C23.9098 -216.165 -16.3311 -209.594 91.9232 -226.169C181.06 -239.817 165.731 -198.869 237.258 -183.904C308.786 -168.94 260.327 -115.375 308.151 -109.389C355.976 -103.404 476.143 -115.902 521.086 -115.902C566.028 -115.902 608.508 -87.4691 680.035 -115.902C751.562 -144.335 787.008 -145.831 830.878 -130.867C865.974 -118.895 874.747 -91.886 874.747 -79.878L973.284 -203.616L902.564 -429.735L-194.185 -446.621Z" stroke="#EA513A"/>
</mask>
<g mask="url(#mask1_366_89)">
<path d="M-1544 -148H718.736V669.485H-1544V-148Z" fill="#EA513A"/>
</g>
</g>
</svg>
