<svg width="488" height="538" viewBox="0 0 488 538" fill="none" xmlns="http://www.w3.org/2000/svg">
<mask id="mask0_366_89" style="mask-type:alpha" maskUnits="userSpaceOnUse" x="4" y="0" width="480" height="530">
<rect x="4" width="480" height="530" fill="white"/>
</mask>
<g mask="url(#mask0_366_89)">
<mask id="mask1_366_89" style="mask-type:alpha" maskUnits="userSpaceOnUse" x="-519" y="-126" width="2248" height="992">
<path d="M-51.77 365.542C-62.7132 387.392 -76.6081 404.588 -114.909 441.732C-153.211 478.876 -180.569 491.985 -158.683 540.054C-136.796 588.123 -162.33 627.452 -91.199 647.116C-20.0677 666.781 -32.8348 684.26 31.001 675.52C94.8368 666.781 237.1 717.034 242.571 647.116C248.043 577.198 171.44 555.349 286.344 506.188C401.248 457.026 481.5 483.246 558.103 431.9C634.706 380.554 747.786 380.554 720.428 281.139C693.07 181.724 694.893 107.436 587.284 143.488C479.675 179.539 306.408 141.302 242.571 116.176C178.735 91.0488 80.2454 30.9641 20.0574 73.5698C-40.1307 116.176 -116.734 154.413 -80.2561 217.776C-51.074 268.466 -48.1223 328.034 -51.77 365.542ZM1463.96 555.955C1415.61 514.799 1344.19 451.565 1360.61 405.681C1377.02 359.797 1360.61 344.503 1360.61 296.434C1360.61 248.365 1304.07 304.081 1296.77 339.04C1289.48 373.999 1284.01 367.444 1296.77 405.681C1309.54 443.917 1324.13 478.876 1327.78 520.39C1331.43 561.904 1324.13 602.325 1360.61 621.99C1397.09 641.654 1459.1 648.209 1491.93 635.1C1518.19 624.612 1577.04 579.989 1463.96 555.955ZM720.428 131.163C757.262 177.457 813.94 262.639 798.483 296.434C783.025 330.229 772.72 393.663 739.228 393.663C705.736 393.663 677.397 397.731 649.058 419.731C620.719 441.732 613.996 473.742 558.103 478.371C502.209 483 450.684 506.188 391.429 506.188C332.174 506.188 286.344 510.777 286.344 547.813C286.344 584.848 283.225 596.864 306.411 621.99C329.598 647.116 362.547 688.239 324.445 708.3C286.344 728.361 159.564 708.3 110.614 708.3C61.6646 708.3 38.9311 708.3 -7.89518 708.3C-54.7215 708.3 -45.6026 725.274 -80.2561 695.955C-114.91 666.635 -111.096 683.067 -158.683 665.092C-206.269 647.116 -198.541 665.304 -203.693 621.99C-208.846 578.675 -198.541 553.15 -221.727 520.39C-244.914 487.63 -255.219 477.975 -221.727 459.853C-188.235 441.732 -143.052 434.838 -128.981 405.681C-114.91 376.523 -147.015 318.465 -175.354 281.139C-203.693 243.813 -232.032 264.268 -239.761 217.776C-247.49 171.285 -284.772 149.681 -221.727 104.929C-158.683 60.1782 -140.444 7.71119 -54.7215 -12.3497C31.0011 -32.4106 35.335 -46.2988 138.953 -4.63381C242.571 37.0312 154.41 69.4368 324.445 63.2642C494.481 57.0916 363.09 26.2287 515.091 44.7465C636.692 59.5607 702.649 108.53 720.428 131.163ZM777.873 165.112C798.483 192.889 844.856 240.435 857.738 260.787C870.619 281.139 857.738 297.823 842.28 324.056C826.822 350.29 865.467 391.63 842.28 405.681C819.093 419.731 808.788 419.731 757.263 419.731C705.737 419.731 674.822 405.092 661.94 441.732C649.058 478.371 654.154 489.173 620.719 489.173C587.284 489.173 558.888 506.188 530.549 506.188C502.21 506.188 463.566 520.39 427.498 520.39C391.429 520.39 352.785 512.235 352.785 540.054C352.785 567.873 319.293 586.604 373.396 621.99C427.498 657.376 458.413 692.869 442.955 708.3C427.497 723.731 409.464 731.447 373.395 739.162C337.327 746.878 283.225 760.767 218.818 749.965C154.411 739.162 159.564 739.162 64.2409 739.162C-31.0817 739.162 39.329 787.373 -91.199 731.447C-221.727 675.52 -250.066 704.755 -265.524 647.116C-280.982 589.477 -278.405 534.593 -291.287 520.39C-304.168 506.188 -317.05 459.853 -291.287 459.853C-265.524 459.853 -239.761 427.123 -239.761 405.681C-239.761 384.239 -239.761 381.647 -265.524 339.04C-291.287 296.434 -329.931 236.096 -327.355 183.63C-324.779 131.163 -363.423 44.7464 -314.473 44.7464C-265.524 44.7464 -202.456 6.16778 -158.682 -21.6089C-114.909 -49.3855 -167.625 -95.6799 -28.5054 -91.0505C110.614 -86.421 151.292 -41.6688 218.818 -12.3497C286.344 16.9694 314.141 29.3138 352.785 12.34C391.429 -4.63381 355.361 -20.0656 442.955 -12.3497C530.549 -4.63379 548.583 -7.72091 605.261 23.142C661.94 54.005 690.278 59.7328 739.228 87.9542C778.388 110.531 769.33 133.573 777.873 165.112ZM824.246 131.163C857.738 183.63 888.653 199.06 914.416 229.924C940.179 260.787 929.874 250.567 914.416 281.139C898.958 311.71 868.043 304.644 891.23 339.04C914.416 373.436 953.06 379.462 914.416 405.681C875.772 431.9 819.093 451.564 798.483 441.732C777.873 431.9 713.466 430.534 700.584 459.853C687.703 489.173 571.651 528.33 571.651 528.33C571.651 528.33 494.481 540.054 468.718 540.054C442.955 540.054 419.769 529.296 412.04 547.813C404.311 566.33 386.277 590.913 427.498 606.452C468.718 621.99 499.634 634.229 515.091 665.092C530.549 695.955 540.854 736.077 504.786 749.965C468.718 763.852 388.311 810.147 337.327 808.604C286.344 807.06 260.039 785.394 185.326 766.876C110.614 748.359 12.9616 772.619 -12.5729 772.619C-38.1075 772.619 -26.126 793.172 -114.909 762.309C-203.693 731.447 -170.201 762.309 -221.727 739.162C-273.253 716.015 -276.279 727.595 -299.465 678.756C-322.652 629.918 -293.408 619.054 -324.323 595.8C-355.239 572.546 -394.338 634.227 -402.067 591.02C-409.796 547.813 -337.66 458.118 -314.473 431.9C-291.287 405.681 -260.371 401.213 -314.473 362.634C-368.575 324.056 -384.033 332.081 -402.067 296.434C-416.494 267.916 -397.773 95.1556 -386.609 12.3399C-378.881 18.5124 -353.633 25.6107 -314.473 4.62424C-265.524 -21.6089 -265.524 -12.3504 -265.524 -44.7565C-265.524 -77.1625 -278.405 -78.7049 -203.693 -91.0505C-143.923 -100.927 30.7492 -117.799 110.614 -125C130.366 -119.342 179.659 -100.927 218.818 -72.5331C267.768 -37.0407 260.038 -16.9797 306.411 -30.8681C352.785 -44.7564 473.814 -58.6448 530.549 -44.7564C587.284 -30.8681 772.719 1.53875 798.483 44.7465C819.093 79.3127 816.438 85.939 824.246 131.163ZM891.23 97.2131C924.721 165.112 916.992 186.518 971.094 202.147C1025.2 217.776 1007.16 249.83 971.094 273.132C935.026 296.434 880.924 315.446 942.755 339.04C1004.59 362.634 999.434 385.783 971.094 419.731C942.755 453.68 916.993 486.087 857.738 478.371C798.483 470.655 794.097 445.964 757.263 467.568C720.428 489.173 713.466 512.236 687.703 540.054C661.94 567.873 644.019 583.304 587.284 575.589C530.549 567.873 479.023 544.726 504.786 575.589C530.549 606.452 548.583 589.691 605.261 621.99C661.94 654.289 677.397 654.29 649.058 708.3C620.719 762.309 652.42 787 605.261 808.604C567.534 825.887 60.544 833.294 -188.235 834.837C-179.648 827.121 -174.323 805.517 -221.727 780.827C-280.982 749.964 -342.813 816.319 -386.609 762.309C-421.647 719.102 -488.802 370.865 -518 202.147L-402.067 -91.0505L700.584 -103.396C719.477 -91.5653 761.385 -63.2745 777.873 -44.7564C798.483 -21.6088 801.059 -32.4096 857.738 -4.63378C903.08 17.5869 877.221 61.9704 891.23 97.2131ZM942.755 73.5699C942.755 116.176 896.382 146.594 971.094 165.112C1045.81 183.63 1120.52 199.06 1076.72 229.924C1032.93 260.787 994.281 253.828 994.281 296.434C994.281 339.04 1020.04 342.573 1048.38 381.152C1076.72 419.731 1043.23 438.248 1007.16 467.568C971.094 496.888 971.094 512.401 914.416 506.188C857.738 499.974 857.737 491.985 798.483 506.188C739.228 520.39 720.428 560.157 720.428 575.589C720.428 591.02 683.593 629.141 720.428 647.116C757.263 665.092 758.028 669.72 739.228 716.015C720.428 762.309 778.916 770.025 720.428 808.604C673.638 839.467 -78.3136 838.952 -448.44 834.837L-448.44 -72.5331L891.23 -103.396C908.405 -100.31 942.755 -84.261 942.755 -44.7564C942.755 4.62429 971.094 -14.9405 971.094 29.3146C971.094 64.7188 949.148 51.9582 942.755 73.5699ZM587.284 217.776C642.486 267.164 616.466 285.478 587.284 324.056C558.103 362.634 546.007 407.563 468.718 419.731C391.429 431.9 387.362 441.335 286.344 459.853C185.326 478.371 167.292 506.188 167.292 506.188C167.292 506.188 59.5415 605.722 2.41002 555.955C-54.7215 506.188 -46.7914 477.783 -7.89517 441.732C31.0011 405.681 41.9447 417.294 31.001 339.04C20.0574 260.787 -82.6074 229.924 2.41004 191.345C87.4275 152.766 120.377 168.198 203.36 209.863C286.344 251.528 169.868 291.65 306.411 260.787C442.955 229.924 386.22 233.405 486.752 217.776C567.178 205.273 587.284 212.566 587.284 217.776ZM504.786 324.056C530.549 376.178 512.515 381.645 442.955 393.663C373.395 405.681 394.005 413.206 306.411 431.9C218.818 450.594 156.987 510.777 110.614 489.173C64.2409 467.568 46.207 458.311 92.5801 419.731C138.953 381.152 195.631 396.942 167.292 339.04C138.953 281.139 57.8906 238.54 151.522 249.756C242.08 260.605 147.816 324.056 242.571 324.056C337.327 324.056 339.903 339.196 391.429 310.167C432.65 286.945 493.091 300.395 504.786 324.056ZM1327.78 273.132C1254.49 324.056 1246.76 356.623 1254.49 381.152C1262.22 405.681 1264.79 430.534 1272.52 459.853C1280.25 489.173 1272.52 502.285 1272.52 552.781C1272.52 571.109 1254.66 583.349 1285.67 613.341C1316.67 643.333 1279.65 665.729 1367.82 662.803C1463.96 659.613 1509.54 715.941 1550.76 675.52C1591.98 635.1 1609.59 605.722 1550.76 555.955C1491.93 506.188 1447.71 567.873 1434.83 467.568C1421.94 367.264 1483.28 448.157 1421.94 339.04C1372.88 251.747 1345.55 260.787 1327.78 273.132ZM1285.4 260.787C1241.6 310.167 1200.38 283.933 1200.38 351.832C1200.38 496.888 1197.81 550.355 1226.15 598.736C1254.49 647.116 1226.15 642.741 1226.15 675.52C1226.15 708.3 1222.66 709.091 1296.77 695.955C1361.64 684.456 1322.2 666.508 1409.8 702C1497.39 737.492 1537.88 766.939 1584.25 731.447C1630.62 695.955 1689.88 551.608 1607.44 520.39C1491.93 419.731 1527.57 423.264 1519.84 381.152C1512.11 339.04 1496.66 332.354 1450.28 281.139C1403.91 229.924 1392.54 219.122 1344.66 229.924C1306.35 238.565 1289.19 254.1 1285.4 260.787ZM1226.15 253.071C1172.04 310.167 1154.01 306.187 1156.59 339.04C1159.16 371.893 1156.59 428.949 1156.59 467.568C1156.59 506.188 1169.47 547.811 1172.04 606.452C1174.62 665.092 1143.71 675.894 1143.71 695.955C1143.71 716.015 1169.47 746.878 1239.03 739.163C1308.59 731.447 1286.39 682.065 1360.61 716.015C1519.84 808.604 1468.32 839.467 1566.22 824.035C1664.12 808.604 1692.45 808.604 1700.18 762.309C1706.37 725.274 1690.74 550.384 1682.15 467.568C1679.57 483.054 1663.6 503.191 1620.32 459.853C1566.22 405.681 1555.91 359.548 1537.88 310.167C1519.84 260.787 1517.27 240.726 1450.28 209.863C1383.3 179 1354.52 152.766 1296.77 191.345C1250.58 222.208 1230.44 245.355 1226.15 253.071ZM1172.04 260.787C1115.37 324.056 1087.03 302.451 1097.33 381.152C1107.64 459.853 1097.33 465.192 1097.33 520.39C1097.33 575.589 1146.28 634.229 1097.33 665.092C1048.38 695.955 1050.96 716.016 1097.33 739.163C1143.71 762.309 1204.53 740.195 1279.73 774.144C1354.94 808.093 1337.92 774.654 1360.61 824.035C1378.76 863.54 1553.34 867.243 1638.35 864.157L1715.64 393.663L1664.12 324.056C1648.66 330.871 1611.04 331.829 1584.25 281.139C1550.76 217.776 1561.91 214.512 1491.93 179C1421.94 143.488 1429.41 129.873 1327.78 142.198C1226.15 154.523 1200.38 112.448 1200.38 165.112C1200.38 207.243 1181.49 246.45 1172.04 260.787ZM1519.84 12.34C1504.39 44.7465 1539.96 74.0667 1450.28 63.2643C1360.61 52.4619 1383.04 94.1268 1327.78 44.7465C1272.52 -4.63376 1334.35 -4.63375 1239.03 -4.63376C1143.71 -4.63376 1097.33 10.7969 1097.33 -30.8681C1097.33 -64.2 1128.25 -72.533 1143.71 -72.533L1504.39 -72.533C1494.08 -47.8427 1527.77 -4.28143 1519.84 12.34ZM1584.25 -83.335C1584.25 -30.868 1561.06 -38.5822 1584.25 -4.63374C1607.44 29.3147 1612.59 66.9012 1566.22 73.5699C1519.84 80.2385 1504.39 87.9542 1450.28 87.9542C1396.18 87.9542 1299.99 135.17 1299.99 80.8965C1299.99 76.0442 1312.54 57.4228 1266.17 40.4481C1236.73 29.6749 1236.45 46.2893 1156.59 29.3147C1076.72 12.34 1048.38 21.5997 1048.38 -21.6088C1048.38 -64.8173 1022.62 -103.396 1035.5 -103.396C1045.81 -103.396 1405.63 -90.022 1584.25 -83.335ZM1076.72 808.604C1007.16 708.3 965.942 720.101 1007.16 683.609C1048.38 647.116 1076.72 656.948 1076.72 606.452C1076.72 555.955 1099.91 511.486 1035.5 520.39C971.094 529.294 994.281 575.235 942.755 547.813C891.229 520.39 886.077 493.802 842.28 529.294C798.483 564.787 757.263 537.682 777.873 586.391C798.483 635.099 798.483 621.884 798.483 665.092C798.483 708.3 757.263 697.498 777.873 739.163C798.483 780.827 790.754 774.654 824.246 808.604C851.039 835.763 1003.73 819.92 1076.72 808.604ZM963.423 739.163C963.423 720.415 943.079 669.31 978.29 653.713C1018.99 635.684 1079.45 546.474 1029.15 556.696C985.332 565.601 955.372 591.523 918.822 562.788C893.783 543.104 808.788 550.151 824.246 593.253C839.704 636.355 824.246 660.791 824.246 702.456C824.246 744.121 778.707 773.867 858.572 763.065C922.464 754.424 963.423 752.137 963.423 739.163ZM971.094 -94.2827C982.911 -44.7564 1020.04 -4.96372 1020.04 23.142C1020.04 51.2478 965.942 52.8297 1007.16 91.9963C1048.38 131.163 1029.61 156.03 1076.72 153.119C1123.83 150.209 1147.09 128.864 1122.21 110.43C1097.33 91.9964 1040.95 71.3999 1076.72 63.2643C1112.49 55.1286 1086.4 59.3887 1156.59 48.6425C1214.38 39.7941 1204.44 66.3422 1250.81 76.0442C1297.19 85.7463 1265.77 120.474 1296.77 124.354C1327.78 128.235 1405.69 120.132 1434.83 120.132C1463.96 120.132 1491.5 138.566 1537.88 120.132C1584.25 101.698 1607.23 100.728 1635.67 110.43C1658.43 118.192 1664.12 135.703 1664.12 143.488L1728 63.2643L1682.15 -83.335L971.094 -94.2827Z" stroke="#EA513A"/>
</mask>
<g mask="url(#mask1_366_89)">
<path d="M-9 10H1458V540H-9V10Z" fill="#EA513A"/>
</g>
</g>
</svg>
