<svg width="254" height="116" viewBox="0 0 254 116" fill="none" xmlns="http://www.w3.org/2000/svg">
<rect width="254" height="116" fill="white"/>
<rect width="254" height="116" fill="#002EAB"/>
<path d="M21 25H87V91H21V25Z" fill="white"/>
<path d="M93.6277 25H159.628V91H93.6277V25Z" fill="white"/>
<path d="M55.0418 69.4247L48.3787 59.8277L54.3838 50.2306H45.8561L41.5511 57.5244V50.2306H34.4219V69.4247H41.5511V61.8567L46.4868 69.4247H55.0418Z" fill="#002EAB"/>
<path d="M61.1788 58.5389H60.7675L62.303 56.0437V50.2306H55.1738V69.4247H62.3853L67.3758 61.4729H67.8145L66.2516 63.9955V69.4247H73.3808V50.2306H66.5258L61.1788 58.5389Z" fill="#002EAB"/>
<path d="M102.845 57.0856V69.4247H109.947V57.0856H114.224V50.2305H98.5674V57.0856H102.845Z" fill="#002EAB"/>
<path d="M125.27 69.9731C131.055 69.9731 135.744 65.4213 135.744 59.8276C135.744 54.2339 131.055 49.6821 125.27 49.6821C119.484 49.6821 114.768 54.2339 114.768 59.8276C114.768 65.4213 119.484 69.9731 125.27 69.9731ZM122.528 59.8276C122.528 58.3195 123.734 57.0856 125.242 57.0856C126.75 57.0856 127.984 58.3195 127.984 59.8276C127.984 61.3357 126.75 62.5422 125.242 62.5422C123.734 62.5422 122.528 61.3357 122.528 59.8276Z" fill="#002EAB"/>
<path d="M136.324 69.4247H143.453V63.0083H147.484V69.4247H154.613V50.2305H147.484V56.6469H143.453V50.2305H136.324V69.4247Z" fill="#002EAB"/>
<path d="M21 25H87V91H21V25Z" fill="white"/>
<path d="M93.6277 25H159.628V91H93.6277V25Z" fill="white"/>
<path d="M166.255 25H232.255V91H166.255V25Z" fill="white"/>
<path d="M52.9048 68.8762L46.3025 58.9843L52.2467 49.6821H44.7191L40.4142 56.9759V49.6821H33.2849V68.8762H40.4142V61.3083L45.3498 68.8762H52.9048Z" fill="#002EAB"/>
<path d="M62.7793 58.9843L62.8616 49.6821H56.5075V68.8762H62.8616L68.818 60.3974L68.5438 68.8762H74.7145V49.6821H68.818L62.7793 58.9843Z" fill="#002EAB"/>
<path d="M101.544 55.4054V69.4247H108.646V55.4054H112.923V50.2305H97.2664V55.4054H101.544Z" fill="#002EAB"/>
<path d="M125.27 69.9731C131.056 69.9731 135.745 65.4213 135.745 59.8276C135.745 54.2339 131.056 49.6821 125.27 49.6821C119.484 49.6821 114.768 54.2339 114.768 59.8276C114.768 65.4213 119.484 69.9731 125.27 69.9731ZM122.528 59.8276C122.528 58.3195 123.735 57.0856 125.243 57.0856C126.751 57.0856 127.985 58.3195 127.985 59.8276C127.985 61.3357 126.751 62.5422 125.243 62.5422C123.735 62.5422 122.528 61.3357 122.528 59.8276Z" fill="#002EAB"/>
<path d="M138.196 69.4247H144.465V63.0083H148.496V69.4247H154.807V50.2305H148.496V56.6469H144.465V50.2305H138.196V69.4247Z" fill="#002EAB"/>
<path d="M213.744 49.6821H205.134L197.621 68.8762H210.847L208.544 62.4873H206.52L209.439 56.9485L213.744 68.8762H221.394L213.744 49.6821Z" fill="#002EAB"/>
<path d="M177.117 68.8762H183.386V62.4599H187.417V68.8762H193.727V49.6821H187.417V56.0985H183.386V49.6821H177.117V68.8762Z" fill="#002EAB"/>
</svg>
