<svg width="271" height="255" viewBox="0 0 271 255" fill="none" xmlns="http://www.w3.org/2000/svg">
<path d="M20.2068 30H17.2188V18.984H3.17881V30H0.190813V5.988H3.17881V16.32H17.2188V5.988H20.2068V30ZM36.7637 30.432C33.2357 30.432 30.3677 29.256 28.1597 26.904C25.9517 24.552 24.8477 21.588 24.8477 18.012C24.8477 14.436 25.9517 11.472 28.1597 9.12C30.3677 6.768 33.2357 5.592 36.7637 5.592C40.2677 5.592 43.1237 6.768 45.3317 9.12C47.5637 11.472 48.6797 14.436 48.6797 18.012C48.6797 21.588 47.5637 24.552 45.3317 26.904C43.1237 29.256 40.2677 30.432 36.7637 30.432ZM36.7637 27.768C39.4037 27.768 41.5277 26.856 43.1357 25.032C44.7677 23.184 45.5837 20.844 45.5837 18.012C45.5837 15.156 44.7677 12.816 43.1357 10.992C41.5277 9.168 39.4037 8.256 36.7637 8.256C34.0997 8.256 31.9637 9.168 30.3557 10.992C28.7477 12.816 27.9437 15.156 27.9437 18.012C27.9437 20.844 28.7477 23.184 30.3557 25.032C31.9637 26.856 34.0997 27.768 36.7637 27.768ZM64.2911 30H53.3471V5.988H64.0391C66.1031 5.988 67.7351 6.552 68.9351 7.68C70.1591 8.808 70.7711 10.284 70.7711 12.108C70.7711 13.548 70.3631 14.772 69.5471 15.78C68.7311 16.764 67.7351 17.376 66.5591 17.616C67.8311 17.808 68.9231 18.48 69.8351 19.632C70.7711 20.784 71.2391 22.08 71.2391 23.52C71.2391 25.464 70.6151 27.036 69.3671 28.236C68.1431 29.412 66.4511 30 64.2911 30ZM63.5351 16.392C64.8551 16.392 65.8751 16.032 66.5951 15.312C67.3151 14.592 67.6751 13.668 67.6751 12.54C67.6751 11.412 67.3031 10.488 66.5591 9.768C65.8391 9.024 64.8311 8.652 63.5351 8.652H56.3351V16.392H63.5351ZM63.6791 27.336C65.0711 27.336 66.1631 26.964 66.9551 26.22C67.7471 25.476 68.1431 24.468 68.1431 23.196C68.1431 22.02 67.7471 21.036 66.9551 20.244C66.1871 19.452 65.0951 19.056 63.6791 19.056H56.3351V27.336H63.6791ZM86.9317 30.432C83.4037 30.432 80.5357 29.256 78.3277 26.904C76.1197 24.552 75.0157 21.588 75.0157 18.012C75.0157 14.436 76.1197 11.472 78.3277 9.12C80.5357 6.768 83.4037 5.592 86.9317 5.592C90.4357 5.592 93.2917 6.768 95.4997 9.12C97.7317 11.472 98.8477 14.436 98.8477 18.012C98.8477 21.588 97.7317 24.552 95.4997 26.904C93.2917 29.256 90.4357 30.432 86.9317 30.432ZM86.9317 27.768C89.5717 27.768 91.6957 26.856 93.3037 25.032C94.9357 23.184 95.7517 20.844 95.7517 18.012C95.7517 15.156 94.9357 12.816 93.3037 10.992C91.6957 9.168 89.5717 8.256 86.9317 8.256C84.2677 8.256 82.1317 9.168 80.5237 10.992C78.9157 12.816 78.1117 15.156 78.1117 18.012C78.1117 20.844 78.9157 23.184 80.5237 25.032C82.1317 26.856 84.2677 27.768 86.9317 27.768ZM106.503 30H103.515V5.988H113.163C115.491 5.988 117.327 6.684 118.671 8.076C120.015 9.468 120.687 11.184 120.687 13.224C120.687 15.264 120.003 16.98 118.635 18.372C117.291 19.764 115.467 20.46 113.163 20.46H106.503V30ZM112.803 17.796C114.219 17.796 115.371 17.376 116.259 16.536C117.147 15.672 117.591 14.568 117.591 13.224C117.591 11.88 117.147 10.788 116.259 9.948C115.371 9.084 114.219 8.652 112.803 8.652H106.503V17.796H112.803ZM135.588 30.432C132.06 30.432 129.192 29.256 126.984 26.904C124.776 24.552 123.672 21.588 123.672 18.012C123.672 14.436 124.776 11.472 126.984 9.12C129.192 6.768 132.06 5.592 135.588 5.592C139.092 5.592 141.948 6.768 144.156 9.12C146.388 11.472 147.504 14.436 147.504 18.012C147.504 21.588 146.388 24.552 144.156 26.904C141.948 29.256 139.092 30.432 135.588 30.432ZM135.588 27.768C138.228 27.768 140.352 26.856 141.96 25.032C143.592 23.184 144.408 20.844 144.408 18.012C144.408 15.156 143.592 12.816 141.96 10.992C140.352 9.168 138.228 8.256 135.588 8.256C132.924 8.256 130.788 9.168 129.18 10.992C127.572 12.816 126.768 15.156 126.768 18.012C126.768 20.844 127.572 23.184 129.18 25.032C130.788 26.856 132.924 27.768 135.588 27.768ZM163.547 30.432C160.043 30.432 157.103 29.28 154.727 26.976C152.375 24.648 151.199 21.66 151.199 18.012C151.199 14.364 152.375 11.388 154.727 9.084C157.103 6.756 160.043 5.592 163.547 5.592C167.387 5.592 170.423 7.176 172.655 10.344L170.135 11.748C169.439 10.716 168.503 9.876 167.327 9.228C166.151 8.58 164.891 8.256 163.547 8.256C160.907 8.256 158.699 9.18 156.923 11.028C155.171 12.852 154.295 15.18 154.295 18.012C154.295 20.844 155.171 23.184 156.923 25.032C158.699 26.856 160.907 27.768 163.547 27.768C164.891 27.768 166.151 27.456 167.327 26.832C168.503 26.184 169.439 25.332 170.135 24.276L172.691 25.68C170.363 28.848 167.315 30.432 163.547 30.432ZM179.379 30H176.499V5.988H179.487V24.744L193.311 5.988H196.371V30H193.383V10.848L179.379 30ZM204.868 30H201.988V5.988H204.976V24.744L218.8 5.988H221.86V30H218.872V10.848L204.868 30ZM218.224 1.452C216.664 3.564 214.564 4.62 211.924 4.62C209.308 4.62 207.196 3.564 205.588 1.452L206.92 0.299998C208.168 2.028 209.836 2.892 211.924 2.892C214.036 2.892 215.692 2.028 216.892 0.299998L218.224 1.452ZM238.852 30.432C235.348 30.432 232.408 29.28 230.032 26.976C227.68 24.648 226.504 21.66 226.504 18.012C226.504 14.364 227.68 11.388 230.032 9.084C232.408 6.756 235.348 5.592 238.852 5.592C242.692 5.592 245.728 7.176 247.96 10.344L245.44 11.748C244.744 10.716 243.808 9.876 242.632 9.228C241.456 8.58 240.196 8.256 238.852 8.256C236.212 8.256 234.004 9.18 232.228 11.028C230.476 12.852 229.6 15.18 229.6 18.012C229.6 20.844 230.476 23.184 232.228 25.032C234.004 26.856 236.212 27.768 238.852 27.768C240.196 27.768 241.456 27.456 242.632 26.832C243.808 26.184 244.744 25.332 245.44 24.276L247.996 25.68C245.668 28.848 242.62 30.432 238.852 30.432ZM270.02 30H266.312L257.204 19.2L254.792 21.936V30H251.804V5.988H254.792V18.408L265.412 5.988H269.156L259.148 17.4L270.02 30ZM58.8435 74H55.8555V52.652H41.8155V74H38.8275V49.988H58.8435V74ZM67.4444 74H64.4564V49.988H74.1044C76.4324 49.988 78.2684 50.684 79.6124 52.076C80.9564 53.468 81.6284 55.184 81.6284 57.224C81.6284 59.264 80.9444 60.98 79.5764 62.372C78.2324 63.764 76.4084 64.46 74.1044 64.46H67.4444V74ZM73.7444 61.796C75.1604 61.796 76.3124 61.376 77.2004 60.536C78.0884 59.672 78.5324 58.568 78.5324 57.224C78.5324 55.88 78.0884 54.788 77.2004 53.948C76.3124 53.084 75.1604 52.652 73.7444 52.652H67.4444V61.796H73.7444ZM88.4653 74H85.5853V49.988H88.5733V68.744L102.397 49.988H105.457V74H102.469V54.848L88.4653 74ZM134.582 74H131.594V54.236L123.422 74H122.198L114.062 54.236V74H111.074V49.988H115.358L122.81 68.06L130.298 49.988H134.582V74ZM151.127 74.432C147.599 74.432 144.731 73.256 142.523 70.904C140.315 68.552 139.211 65.588 139.211 62.012C139.211 58.436 140.315 55.472 142.523 53.12C144.731 50.768 147.599 49.592 151.127 49.592C154.631 49.592 157.487 50.768 159.695 53.12C161.927 55.472 163.043 58.436 163.043 62.012C163.043 65.588 161.927 68.552 159.695 70.904C157.487 73.256 154.631 74.432 151.127 74.432ZM151.127 71.768C153.767 71.768 155.891 70.856 157.499 69.032C159.131 67.184 159.947 64.844 159.947 62.012C159.947 59.156 159.131 56.816 157.499 54.992C155.891 53.168 153.767 52.256 151.127 52.256C148.463 52.256 146.327 53.168 144.719 54.992C143.111 56.816 142.307 59.156 142.307 62.012C142.307 64.844 143.111 67.184 144.719 69.032C146.327 70.856 148.463 71.768 151.127 71.768ZM170.698 74H167.71V49.988H177.358C179.686 49.988 181.522 50.684 182.866 52.076C184.21 53.468 184.882 55.184 184.882 57.224C184.882 59.264 184.198 60.98 182.83 62.372C181.486 63.764 179.662 64.46 177.358 64.46H170.698V74ZM176.998 61.796C178.414 61.796 179.566 61.376 180.454 60.536C181.342 59.672 181.786 58.568 181.786 57.224C181.786 55.88 181.342 54.788 180.454 53.948C179.566 53.084 178.414 52.652 176.998 52.652H170.698V61.796H176.998ZM200.215 74.432C196.711 74.432 193.771 73.28 191.395 70.976C189.043 68.648 187.867 65.66 187.867 62.012C187.867 58.364 189.043 55.388 191.395 53.084C193.771 50.756 196.711 49.592 200.215 49.592C204.055 49.592 207.091 51.176 209.323 54.344L206.803 55.748C206.107 54.716 205.171 53.876 203.995 53.228C202.819 52.58 201.559 52.256 200.215 52.256C197.575 52.256 195.367 53.18 193.591 55.028C191.839 56.852 190.963 59.18 190.963 62.012C190.963 64.844 191.839 67.184 193.591 69.032C195.367 70.856 197.575 71.768 200.215 71.768C201.559 71.768 202.819 71.456 203.995 70.832C205.171 70.184 206.107 69.332 206.803 68.276L209.359 69.68C207.031 72.848 203.983 74.432 200.215 74.432ZM231.383 74H227.675L218.567 63.2L216.155 65.936V74H213.167V49.988H216.155V62.408L226.775 49.988H230.519L220.511 61.4L231.383 74ZM54.7885 93.988H70.3765V96.652H57.7765V103.528H64.4365C66.7405 103.528 68.5645 104.224 69.9085 105.616C71.2765 107.008 71.9605 108.724 71.9605 110.764C71.9605 112.804 71.2885 114.52 69.9445 115.912C68.6005 117.304 66.7645 118 64.4365 118H54.7885V93.988ZM64.0765 106.192H57.7765V115.336H64.0765C65.4925 115.336 66.6445 114.916 67.5325 114.076C68.4205 113.212 68.8645 112.108 68.8645 110.764C68.8645 109.42 68.4205 108.328 67.5325 107.488C66.6445 106.624 65.4925 106.192 64.0765 106.192ZM96.4734 118H93.0534L90.9294 112.672H78.9774L76.8534 118H73.4334L83.0814 93.988H86.7894L96.4734 118ZM90.0294 110.008L84.9534 97.084L79.8414 110.008H90.0294ZM102.493 118H99.6127V93.988H102.601V112.744L116.425 93.988H119.485V118H116.497V98.848L102.493 118ZM128.089 118H125.101V93.988H134.749C137.077 93.988 138.913 94.684 140.257 96.076C141.601 97.468 142.273 99.184 142.273 101.224C142.273 103.264 141.589 104.98 140.221 106.372C138.877 107.764 137.053 108.46 134.749 108.46H128.089V118ZM134.389 105.796C135.805 105.796 136.957 105.376 137.845 104.536C138.733 103.672 139.177 102.568 139.177 101.224C139.177 99.88 138.733 98.788 137.845 97.948C136.957 97.084 135.805 96.652 134.389 96.652H128.089V105.796H134.389ZM149.11 118H146.23V93.988H149.218V112.744L163.042 93.988H166.102V118H163.114V98.848L149.11 118ZM189.934 118H186.226L177.118 107.2L174.706 109.936V118H171.718V93.988H174.706V106.408L185.326 93.988H189.07L179.062 105.4L189.934 118ZM196.219 118H193.339V93.988H196.327V112.744L210.151 93.988H213.211V118H210.223V98.848L196.219 118ZM18.8266 162.432C15.3226 162.432 12.3826 161.28 10.0066 158.976C7.65458 156.648 6.47858 153.66 6.47858 150.012C6.47858 146.364 7.65458 143.388 10.0066 141.084C12.3826 138.756 15.3226 137.592 18.8266 137.592C22.6666 137.592 25.7026 139.176 27.9346 142.344L25.4146 143.748C24.7186 142.716 23.7826 141.876 22.6066 141.228C21.4306 140.58 20.1706 140.256 18.8266 140.256C16.1866 140.256 13.9786 141.18 12.2026 143.028C10.4506 144.852 9.57458 147.18 9.57458 150.012C9.57458 152.844 10.4506 155.184 12.2026 157.032C13.9786 158.856 16.1866 159.768 18.8266 159.768C20.1706 159.768 21.4306 159.456 22.6066 158.832C23.7826 158.184 24.7186 157.332 25.4146 156.276L27.9706 157.68C25.6426 160.848 22.5946 162.432 18.8266 162.432ZM52.2292 162H48.8092L46.6852 156.672H34.7332L32.6092 162H29.1892L38.8372 137.988H42.5452L52.2292 162ZM45.7852 154.008L40.7092 141.084L35.5972 154.008H45.7852ZM57.7805 162.432C56.7965 162.432 55.8845 162.252 55.0445 161.892C54.2045 161.532 53.5565 161.076 53.1005 160.524L54.3605 158.148C55.3925 159.228 56.4845 159.768 57.6365 159.768C58.5485 159.768 59.2685 159.528 59.7965 159.048C60.3485 158.568 60.9725 157.668 61.6685 156.348L62.1005 155.52L52.8845 137.988H56.3045L63.8285 152.856L71.3525 137.988H74.7725L64.2965 157.752C63.4565 159.336 62.5565 160.512 61.5965 161.28C60.6365 162.048 59.3645 162.432 57.7805 162.432ZM86.8317 162H83.8437V140.652H76.2477V137.988H94.4637V140.652H86.8317V162ZM101.423 162H98.435V137.988H114.167V140.652H101.423V162ZM133.96 162H118.228V137.988H133.96V140.652H121.216V148.392H133.708V151.056H121.216V159.336H133.96V162ZM162.232 162H159.244V142.236L151.072 162H149.848L141.712 142.236V162H138.724V137.988H143.008L150.46 156.06L157.948 137.988H162.232V162ZM187.849 162H184.861V140.652H170.821V162H167.833V137.988H187.849V162ZM202.39 162H199.402V140.652H191.806V137.988H210.022V140.652H202.39V162ZM223.953 162.432C220.425 162.432 217.557 161.256 215.349 158.904C213.141 156.552 212.037 153.588 212.037 150.012C212.037 146.436 213.141 143.472 215.349 141.12C217.557 138.768 220.425 137.592 223.953 137.592C227.457 137.592 230.313 138.768 232.521 141.12C234.753 143.472 235.869 146.436 235.869 150.012C235.869 153.588 234.753 156.552 232.521 158.904C230.313 161.256 227.457 162.432 223.953 162.432ZM223.953 159.768C226.593 159.768 228.717 158.856 230.325 157.032C231.957 155.184 232.773 152.844 232.773 150.012C232.773 147.156 231.957 144.816 230.325 142.992C228.717 141.168 226.593 140.256 223.953 140.256C221.289 140.256 219.153 141.168 217.545 142.992C215.937 144.816 215.133 147.156 215.133 150.012C215.133 152.844 215.937 155.184 217.545 157.032C219.153 158.856 221.289 159.768 223.953 159.768ZM260.553 162H257.565V150.984H243.525V162H240.537V137.988H243.525V148.32H257.565V137.988H260.553V162ZM33.8844 206.432C30.1164 206.432 27.0684 204.848 24.7404 201.68L27.2964 200.276C27.9924 201.332 28.9284 202.184 30.1044 202.832C31.2804 203.456 32.5404 203.768 33.8844 203.768C36.3564 203.768 38.4444 202.964 40.1484 201.356C41.8764 199.724 42.8484 197.624 43.0644 195.056H29.8884V192.392H42.9924C42.6564 189.968 41.6484 188.012 39.9684 186.524C38.2884 185.012 36.2604 184.256 33.8844 184.256C32.5404 184.256 31.2804 184.58 30.1044 185.228C28.9284 185.876 27.9924 186.716 27.2964 187.748L24.7764 186.344C27.0084 183.176 30.0444 181.592 33.8844 181.592C37.3884 181.592 40.3164 182.756 42.6684 185.084C45.0444 187.388 46.2324 190.364 46.2324 194.012C46.2324 197.66 45.0444 200.648 42.6684 202.976C40.3164 205.28 37.3884 206.432 33.8844 206.432ZM47.8766 210.428V203.588C48.9326 203.516 49.7726 203.264 50.3966 202.832C51.0206 202.4 51.5846 201.488 52.0886 200.096C52.6166 198.704 53.0486 196.688 53.3846 194.048L54.8606 181.988H69.5486V203.336H71.7446V210.428H68.7566V206H50.8646V210.428H47.8766ZM56.3366 194.264C55.7846 198.896 54.5606 201.92 52.6646 203.336H66.5606V184.652H57.5246L56.3366 194.264ZM82.4602 198.476H73.8202V196.1H82.4602V198.476ZM84.6852 210.428V203.588C85.7412 203.516 86.5812 203.264 87.2052 202.832C87.8292 202.4 88.3932 201.488 88.8972 200.096C89.4252 198.704 89.8572 196.688 90.1932 194.048L91.6692 181.988H106.357V203.336H108.553V210.428H105.565V206H87.6732V210.428H84.6852ZM93.1452 194.264C92.5932 198.896 91.3692 201.92 89.4732 203.336H103.369V184.652H94.3332L93.1452 194.264ZM132.913 206H129.493L127.369 200.672H115.417L113.293 206H109.873L119.521 181.988H123.229L132.913 206ZM126.469 198.008L121.393 185.084L116.281 198.008H126.469ZM159.56 206H156.572V186.236L148.4 206H147.176L139.04 186.236V206H136.052V181.988H140.336L147.788 200.06L155.276 181.988H159.56V206ZM188.67 206H185.682V186.236L177.51 206H176.286L168.15 186.236V206H165.162V181.988H169.446L176.898 200.06L184.386 181.988H188.67V206ZM214.827 206H211.407L209.283 200.672H197.331L195.207 206H191.787L201.435 181.988H205.143L214.827 206ZM208.383 198.008L203.307 185.084L198.195 198.008H208.383ZM241.474 206H238.486V186.236L230.314 206H229.09L220.954 186.236V206H217.966V181.988H222.25L229.702 200.06L237.19 181.988H241.474V206ZM14.4219 250H3.47792V225.988H14.1699C16.2339 225.988 17.8659 226.552 19.0659 227.68C20.2899 228.808 20.9019 230.284 20.9019 232.108C20.9019 233.548 20.4939 234.772 19.6779 235.78C18.8619 236.764 17.8659 237.376 16.6899 237.616C17.9619 237.808 19.0539 238.48 19.9659 239.632C20.9019 240.784 21.3699 242.08 21.3699 243.52C21.3699 245.464 20.7459 247.036 19.4979 248.236C18.2739 249.412 16.5819 250 14.4219 250ZM13.6659 236.392C14.9859 236.392 16.0059 236.032 16.7259 235.312C17.4459 234.592 17.8059 233.668 17.8059 232.54C17.8059 231.412 17.4339 230.488 16.6899 229.768C15.9699 229.024 14.9619 228.652 13.6659 228.652H6.46592V236.392H13.6659ZM13.8099 247.336C15.2019 247.336 16.2939 246.964 17.0859 246.22C17.8779 245.476 18.2739 244.468 18.2739 243.196C18.2739 242.02 17.8779 241.036 17.0859 240.244C16.3179 239.452 15.2259 239.056 13.8099 239.056H6.46592V247.336H13.8099ZM24.4625 250.432V247.768C25.4945 247.768 26.3345 247.528 26.9825 247.048C27.6305 246.568 28.2065 245.62 28.7105 244.204C29.2145 242.764 29.6345 240.712 29.9705 238.048L31.4465 225.988H46.1345V250H43.1465V228.652H34.1105L32.9225 238.264C32.6105 240.832 32.1905 242.944 31.6625 244.6C31.1585 246.256 30.5225 247.504 29.7545 248.344C29.0105 249.16 28.2305 249.712 27.4145 250C26.6225 250.288 25.6385 250.432 24.4625 250.432ZM72.3035 250H68.8835L66.7595 244.672H54.8075L52.6835 250H49.2635L58.9115 225.988H62.6195L72.3035 250ZM65.8595 242.008L60.7835 229.084L55.6715 242.008H65.8595ZM73.7868 254.428V247.588C74.8428 247.516 75.6828 247.264 76.3068 246.832C76.9308 246.4 77.4948 245.488 77.9988 244.096C78.5268 242.704 78.9588 240.688 79.2948 238.048L80.7708 225.988H95.4588V247.336H97.6548V254.428H94.6668V250H76.7748V254.428H73.7868ZM82.2468 238.264C81.6948 242.896 80.4708 245.92 78.5748 247.336H92.4708V228.652H83.4348L82.2468 238.264ZM104.338 250H101.458V225.988H104.446V244.744L118.27 225.988H121.33V250H118.342V230.848L104.338 250ZM137.891 250H126.947V225.988H137.639C139.703 225.988 141.335 226.552 142.535 227.68C143.759 228.808 144.371 230.284 144.371 232.108C144.371 233.548 143.963 234.772 143.147 235.78C142.331 236.764 141.335 237.376 140.159 237.616C141.431 237.808 142.523 238.48 143.435 239.632C144.371 240.784 144.839 242.08 144.839 243.52C144.839 245.464 144.215 247.036 142.967 248.236C141.743 249.412 140.051 250 137.891 250ZM137.135 236.392C138.455 236.392 139.475 236.032 140.195 235.312C140.915 234.592 141.275 233.668 141.275 232.54C141.275 231.412 140.903 230.488 140.159 229.768C139.439 229.024 138.431 228.652 137.135 228.652H129.935V236.392H137.135ZM137.279 247.336C138.671 247.336 139.763 246.964 140.555 246.22C141.347 245.476 141.743 244.468 141.743 243.196C141.743 242.02 141.347 241.036 140.555 240.244C139.787 239.452 138.695 239.056 137.279 239.056H129.935V247.336H137.279ZM160.531 250.432C157.003 250.432 154.135 249.256 151.927 246.904C149.719 244.552 148.615 241.588 148.615 238.012C148.615 234.436 149.719 231.472 151.927 229.12C154.135 226.768 157.003 225.592 160.531 225.592C164.035 225.592 166.891 226.768 169.099 229.12C171.331 231.472 172.447 234.436 172.447 238.012C172.447 241.588 171.331 244.552 169.099 246.904C166.891 249.256 164.035 250.432 160.531 250.432ZM160.531 247.768C163.171 247.768 165.295 246.856 166.903 245.032C168.535 243.184 169.351 240.844 169.351 238.012C169.351 235.156 168.535 232.816 166.903 230.992C165.295 229.168 163.171 228.256 160.531 228.256C157.867 228.256 155.731 229.168 154.123 230.992C152.515 232.816 151.711 235.156 151.711 238.012C151.711 240.844 152.515 243.184 154.123 245.032C155.731 246.856 157.867 247.768 160.531 247.768ZM188.491 250.432C184.987 250.432 182.047 249.28 179.671 246.976C177.319 244.648 176.143 241.66 176.143 238.012C176.143 234.364 177.319 231.388 179.671 229.084C182.047 226.756 184.987 225.592 188.491 225.592C192.331 225.592 195.367 227.176 197.599 230.344L195.079 231.748C194.383 230.716 193.447 229.876 192.271 229.228C191.095 228.58 189.835 228.256 188.491 228.256C185.851 228.256 183.643 229.18 181.867 231.028C180.115 232.852 179.239 235.18 179.239 238.012C179.239 240.844 180.115 243.184 181.867 245.032C183.643 246.856 185.851 247.768 188.491 247.768C189.835 247.768 191.095 247.456 192.271 246.832C193.447 246.184 194.383 245.332 195.079 244.276L197.635 245.68C195.307 248.848 192.259 250.432 188.491 250.432ZM210.371 250H207.383V228.652H199.787V225.988H218.003V228.652H210.371V250ZM231.934 250.432C228.406 250.432 225.538 249.256 223.33 246.904C221.122 244.552 220.018 241.588 220.018 238.012C220.018 234.436 221.122 231.472 223.33 229.12C225.538 226.768 228.406 225.592 231.934 225.592C235.438 225.592 238.294 226.768 240.502 229.12C242.734 231.472 243.85 234.436 243.85 238.012C243.85 241.588 242.734 244.552 240.502 246.904C238.294 249.256 235.438 250.432 231.934 250.432ZM231.934 247.768C234.574 247.768 236.698 246.856 238.306 245.032C239.938 243.184 240.754 240.844 240.754 238.012C240.754 235.156 239.938 232.816 238.306 230.992C236.698 229.168 234.574 228.256 231.934 228.256C229.27 228.256 227.134 229.168 225.526 230.992C223.918 232.816 223.114 235.156 223.114 238.012C223.114 240.844 223.918 243.184 225.526 245.032C227.134 246.856 229.27 247.768 231.934 247.768ZM266.733 250H263.025L253.917 239.2L251.505 241.936V250H248.517V225.988H251.505V238.408L262.125 225.988H265.869L255.861 237.4L266.733 250Z" fill="#002EAB"/>
</svg>
