<svg width="1471" height="146" viewBox="0 0 1471 146" fill="none" xmlns="http://www.w3.org/2000/svg">
<g clip-path="url(#clip0_258_3)">
<rect width="1471" height="146" fill="white"/>
<rect x="6" y="3" width="1186" height="116" fill="white"/>
<mask id="mask0_258_3" style="mask-type:alpha" maskUnits="userSpaceOnUse" x="-70" y="-448" width="1612" height="713">
<path d="M265.276 -94.4519C257.431 -78.7573 247.469 -66.4056 220.01 -39.7248C192.551 -13.044 172.938 -3.62733 188.629 30.9006C204.32 65.4284 186.013 93.6785 237.009 107.804C288.004 121.929 278.851 134.484 324.616 128.206C370.381 121.929 472.372 158.026 476.295 107.804C480.218 57.5812 425.299 41.8867 507.676 6.5741C590.054 -28.7385 647.587 -9.90515 702.505 -46.7872C757.423 -83.6693 838.493 -83.6692 818.879 -155.079C799.266 -226.489 800.573 -279.851 723.426 -253.955C646.279 -228.059 522.061 -255.524 476.295 -273.573C430.53 -291.622 359.921 -334.781 316.771 -304.177C273.621 -273.573 218.703 -246.107 244.854 -200.593C265.775 -164.182 267.891 -121.394 265.276 -94.4519ZM1351.93 42.3222C1317.27 12.7595 1266.07 -32.6618 1277.84 -65.6202C1289.61 -98.5787 1277.84 -109.565 1277.84 -144.093C1277.84 -178.621 1237.3 -138.6 1232.07 -113.488C1226.84 -88.3772 1222.92 -93.0856 1232.07 -65.6202C1241.23 -38.1549 1251.69 -13.0437 1254.3 16.7759C1256.92 46.5954 1251.69 75.6303 1277.84 89.7553C1303.99 103.88 1348.45 108.589 1371.98 99.172C1390.81 91.6387 1433 59.5862 1351.93 42.3222ZM818.879 -262.807C845.286 -229.554 885.92 -168.368 874.838 -144.093C863.756 -119.818 856.368 -74.2527 832.358 -74.2527C808.347 -74.2527 788.03 -71.3307 767.713 -55.5277C747.396 -39.7248 742.576 -16.732 702.505 -13.4067C662.434 -10.0814 625.495 6.5741 583.014 6.5741C540.533 6.5741 507.676 9.87073 507.676 36.4735C507.676 63.0762 505.44 71.707 522.063 89.7553C538.686 107.804 562.308 137.342 534.992 151.752C507.676 166.162 416.785 151.752 381.692 151.752C346.6 151.752 330.302 151.752 296.731 151.752C263.16 151.752 269.698 163.945 244.854 142.884C220.01 121.824 222.744 133.627 188.629 120.715C154.513 107.804 160.054 120.868 156.36 89.7552C152.666 58.6424 160.054 40.3077 143.431 16.7758C126.808 -6.75606 119.42 -13.6914 143.431 -26.7081C167.442 -39.7248 199.835 -44.6763 209.922 -65.6203C220.01 -86.5643 196.994 -128.268 176.677 -155.079C156.36 -181.891 136.043 -167.198 130.502 -200.593C124.961 -233.988 98.233 -249.506 143.431 -281.651C188.629 -313.796 201.704 -351.483 263.16 -365.893C324.616 -380.303 327.723 -390.279 402.009 -360.351C476.295 -330.423 413.091 -307.146 534.992 -311.579C656.894 -316.013 562.697 -338.182 671.67 -324.881C758.848 -314.24 806.134 -279.065 818.879 -262.807ZM860.063 -238.422C874.838 -218.47 908.084 -184.317 917.319 -169.698C926.554 -155.079 917.319 -143.095 906.237 -124.252C895.155 -105.408 922.86 -75.7128 906.237 -65.6203C889.615 -55.5277 882.227 -55.5277 845.287 -55.5277C808.347 -55.5277 786.183 -66.0429 776.948 -39.7248C767.713 -13.4067 771.366 -5.64773 747.396 -5.64773C723.426 -5.64774 703.069 6.57411 682.752 6.5741C662.435 6.5741 634.73 16.7758 608.872 16.7758C583.014 16.7758 555.309 10.9181 555.309 30.9006C555.309 50.8831 531.299 64.3375 570.085 89.7553C608.872 115.173 631.036 140.668 619.954 151.752C608.872 162.836 595.943 168.379 570.085 173.921C544.228 179.463 505.441 189.439 459.266 181.68C413.091 173.921 416.785 173.921 348.447 173.921C280.108 173.921 330.587 208.551 237.009 168.379C143.431 128.206 123.114 149.206 112.032 107.804C100.95 66.4013 102.797 26.9776 93.5622 16.7758C84.3273 6.57405 75.0924 -26.7081 93.5622 -26.7081C112.032 -26.7081 130.502 -50.2183 130.502 -65.6203C130.502 -81.0223 130.502 -82.8842 112.032 -113.488C93.5622 -144.093 65.8573 -187.433 67.7043 -225.12C69.5513 -262.808 41.8466 -324.881 76.9393 -324.881C112.032 -324.881 157.247 -352.592 188.629 -372.544C220.01 -392.496 182.218 -425.75 281.955 -422.424C381.693 -419.099 410.855 -386.953 459.266 -365.893C507.676 -344.833 527.605 -335.966 555.309 -348.158C583.014 -360.351 557.156 -371.436 619.954 -365.893C682.752 -360.351 695.681 -362.568 736.314 -340.399C776.948 -318.23 797.264 -314.116 832.358 -293.845C860.432 -277.627 853.938 -261.076 860.063 -238.422ZM893.308 -262.807C917.319 -225.12 939.483 -214.037 957.953 -191.867C976.423 -169.698 969.035 -177.039 957.953 -155.079C946.871 -133.12 924.707 -138.195 941.33 -113.488C957.953 -88.7816 985.658 -84.4533 957.953 -65.6203C930.248 -46.7872 889.614 -32.6624 874.838 -39.7248C860.063 -46.7872 813.888 -47.7684 804.653 -26.708C795.418 -5.64774 712.218 22.4787 712.218 22.4787C712.218 22.4787 656.894 30.9006 638.424 30.9006C619.954 30.9006 603.331 23.1726 597.79 36.4735C592.249 49.7744 579.32 67.4328 608.872 78.594C638.424 89.7553 660.588 98.5465 671.67 120.715C682.752 142.884 690.14 171.704 664.282 181.68C638.424 191.656 580.778 224.909 544.227 223.801C507.676 222.692 488.818 207.129 435.255 193.828C381.692 180.526 311.684 197.953 293.377 197.953C275.071 197.953 283.661 212.716 220.01 190.547C156.36 168.379 180.37 190.547 143.431 173.921C106.491 157.294 104.322 165.612 87.6989 130.531C71.076 95.45 92.0415 87.6464 69.8776 70.9429C47.7137 54.2394 19.6826 98.5455 14.1416 67.5095C8.60066 36.4734 60.3164 -27.9542 76.9393 -46.7872C93.5622 -65.6203 115.726 -68.8299 76.9393 -96.5408C38.1525 -124.252 27.0706 -118.487 14.1416 -144.093C3.7985 -164.577 17.22 -288.672 25.2236 -348.159C30.7646 -343.725 48.8651 -338.626 76.9393 -353.701C112.032 -372.544 112.032 -365.894 112.032 -389.171C112.032 -412.448 102.797 -413.556 156.36 -422.424C199.21 -429.519 324.436 -441.638 381.692 -446.81C395.853 -442.746 431.192 -429.519 459.266 -409.123C494.359 -383.629 488.817 -369.219 522.063 -379.195C555.309 -389.171 642.077 -399.147 682.752 -389.171C723.426 -379.195 856.368 -355.917 874.838 -324.881C889.614 -300.052 887.71 -295.292 893.308 -262.807ZM941.33 -287.194C965.341 -238.422 959.8 -223.046 998.587 -211.819C1037.37 -200.593 1024.44 -177.569 998.587 -160.831C972.729 -144.093 933.942 -130.436 978.27 -113.488C1022.6 -96.5408 1018.9 -79.9131 998.587 -55.5277C978.27 -31.1423 959.8 -7.86399 917.319 -13.4067C874.838 -18.9494 871.694 -36.6848 845.287 -21.1663C818.879 -5.64775 813.888 10.9183 795.418 30.9006C776.948 50.8828 764.1 61.9673 723.426 56.4251C682.752 50.8828 645.812 34.2561 664.282 56.4251C682.752 78.5941 695.681 66.5547 736.314 89.7553C776.948 112.956 788.029 112.957 767.713 151.752C747.396 190.547 770.123 208.282 736.314 223.801C709.267 236.215 345.796 241.536 167.442 242.644C173.598 237.102 177.415 221.584 143.431 203.849C100.95 181.68 56.6224 229.342 25.2236 190.547C0.104493 159.511 -48.0404 -90.6289 -68.9729 -211.819L14.1416 -422.424L804.653 -431.292C818.198 -422.794 848.242 -402.473 860.063 -389.171C874.838 -372.544 876.686 -380.302 917.319 -360.351C949.826 -344.39 931.287 -312.509 941.33 -287.194ZM978.27 -304.177C978.27 -273.573 945.024 -251.723 998.587 -238.422C1052.15 -225.12 1105.71 -214.037 1074.31 -191.867C1042.91 -169.698 1015.21 -174.697 1015.21 -144.093C1015.21 -113.488 1033.68 -110.951 1054 -83.2394C1074.31 -55.5277 1050.3 -42.2268 1024.44 -21.1663C998.587 -0.105769 998.587 11.0371 957.953 6.57412C917.319 2.11113 917.319 -3.62764 874.838 6.57411C832.358 16.7759 818.879 45.3406 818.879 56.4251C818.879 67.5095 792.472 94.8917 818.879 107.804C845.287 120.715 845.836 124.04 832.357 157.294C818.879 190.547 860.811 196.09 818.879 223.801C785.334 245.97 246.247 245.6 -19.104 242.644L-19.104 -409.123L941.33 -431.292C953.643 -429.075 978.27 -417.547 978.27 -389.171C978.27 -353.701 998.587 -367.754 998.587 -335.966C998.587 -310.535 982.853 -319.701 978.27 -304.177ZM723.426 -200.593C763.001 -165.117 744.347 -151.963 723.426 -124.252C702.505 -96.5408 693.834 -64.2683 638.424 -55.5277C583.014 -46.7872 580.098 -40.0094 507.676 -26.7081C435.255 -13.4067 422.326 6.57409 422.326 6.57409C422.326 6.57409 345.077 78.0703 304.119 42.3222C263.16 6.57405 268.845 -13.8294 296.731 -39.7248C324.616 -65.6203 332.462 -57.2788 324.616 -113.488C316.771 -169.698 243.168 -191.867 304.119 -219.578C365.069 -247.29 388.692 -236.205 448.184 -206.277C507.676 -176.349 424.172 -147.529 522.063 -169.698C619.954 -191.867 579.28 -189.366 651.353 -200.593C709.011 -209.574 723.426 -204.335 723.426 -200.593ZM664.282 -124.252C682.752 -86.8125 669.823 -82.8851 619.954 -74.2527C570.085 -65.6203 584.86 -60.2152 522.063 -46.7872C459.266 -33.3593 414.938 9.87079 381.692 -5.64775C348.447 -21.1663 335.518 -27.8161 368.764 -55.5277C402.009 -83.2394 442.643 -71.8977 422.326 -113.488C402.009 -155.079 343.894 -185.678 411.02 -177.621C475.943 -169.829 408.363 -124.252 476.295 -124.252C544.227 -124.252 546.074 -113.377 583.014 -134.228C612.566 -150.909 655.897 -141.248 664.282 -124.252ZM1254.3 -160.831C1201.76 -124.252 1196.21 -100.859 1201.76 -83.2394C1207.3 -65.6202 1209.14 -47.7683 1214.68 -26.708C1220.23 -5.64772 1214.68 3.7706 1214.68 40.0424C1214.68 53.2071 1201.88 61.9995 1224.11 83.543C1246.34 105.086 1219.79 121.173 1283 119.072C1351.93 116.78 1384.61 157.241 1414.16 128.206C1443.71 99.172 1456.34 78.0703 1414.16 42.3222C1371.98 6.5741 1340.28 50.8828 1331.04 -21.1663C1321.81 -93.2154 1365.78 -35.1096 1321.81 -113.488C1286.63 -176.192 1267.04 -169.698 1254.3 -160.831ZM1223.92 -169.698C1192.52 -134.228 1162.97 -153.072 1162.97 -104.3C1162.97 -0.105772 1161.12 38.3 1181.44 73.0518C1201.76 107.804 1181.44 104.661 1181.44 128.206C1181.44 151.752 1178.94 152.32 1232.07 142.884C1278.58 134.625 1250.3 121.733 1313.1 147.227C1375.9 172.721 1404.92 193.873 1438.17 168.379C1471.42 142.885 1513.9 39.1995 1454.79 16.7759C1371.98 -55.5277 1397.54 -52.9903 1392 -83.2394C1386.45 -113.488 1375.37 -118.291 1342.13 -155.079C1308.88 -191.867 1300.73 -199.626 1266.4 -191.867C1238.94 -185.66 1226.64 -174.501 1223.92 -169.698ZM1181.44 -175.241C1142.65 -134.228 1129.72 -137.087 1131.57 -113.488C1133.42 -89.8901 1131.57 -48.9067 1131.57 -21.1663C1131.57 6.57412 1140.8 36.4726 1142.65 78.5941C1144.5 120.715 1122.34 128.475 1122.34 142.884C1122.34 157.294 1140.81 179.463 1190.67 173.921C1240.54 168.379 1224.63 132.908 1277.84 157.294C1392 223.801 1355.06 245.97 1425.24 234.885C1495.43 223.801 1515.74 223.801 1521.28 190.547C1525.72 163.945 1514.51 38.3204 1508.36 -21.1663C1506.51 -10.0428 1495.06 4.42173 1464.03 -26.708C1425.24 -65.6202 1417.85 -98.7579 1404.92 -134.228C1392 -169.698 1390.15 -184.108 1342.13 -206.277C1294.1 -228.446 1273.47 -247.29 1232.07 -219.578C1198.95 -197.41 1184.52 -180.783 1181.44 -175.241ZM1142.65 -169.698C1102.02 -124.252 1081.7 -139.771 1089.09 -83.2394C1096.48 -26.7081 1089.09 -22.8734 1089.09 16.7758C1089.09 56.4251 1124.18 98.5465 1089.09 120.715C1054 142.884 1055.84 157.294 1089.09 173.921C1122.34 190.547 1165.94 174.662 1219.86 199.048C1273.77 223.434 1261.57 199.415 1277.84 234.885C1290.85 263.261 1416.01 265.922 1476.96 263.705L1532.37 -74.2526L1495.43 -124.252C1484.34 -119.356 1457.38 -118.668 1438.17 -155.079C1414.16 -200.593 1422.16 -202.937 1371.98 -228.446C1321.81 -253.955 1327.16 -263.734 1254.3 -254.881C1181.44 -246.028 1162.97 -276.251 1162.97 -238.422C1162.97 -208.159 1149.42 -179.996 1142.65 -169.698ZM1392 -348.158C1380.91 -324.881 1406.42 -303.82 1342.13 -311.579C1277.84 -319.339 1293.92 -289.411 1254.3 -324.881C1214.68 -360.351 1259.01 -360.351 1190.67 -360.351C1122.34 -360.351 1089.09 -349.267 1089.09 -379.195C1089.09 -403.137 1111.25 -409.123 1122.34 -409.123L1380.91 -409.123C1373.53 -391.388 1397.68 -360.098 1392 -348.158ZM1438.17 -416.882C1438.17 -379.195 1421.55 -384.736 1438.17 -360.351C1454.79 -335.965 1458.49 -308.967 1425.24 -304.177C1392 -299.387 1380.91 -293.844 1342.13 -293.844C1303.34 -293.844 1234.38 -259.929 1234.38 -298.914C1234.38 -302.399 1243.37 -315.775 1210.13 -327.968C1189.03 -335.707 1188.83 -323.773 1131.57 -335.966C1074.31 -348.158 1054 -341.507 1054 -372.544C1054 -403.581 1035.53 -431.292 1044.76 -431.292C1052.15 -431.292 1310.11 -421.685 1438.17 -416.882ZM1074.31 223.801C1024.44 151.752 994.893 160.229 1024.44 134.016C1054 107.804 1074.31 114.866 1074.31 78.5941C1074.31 42.3222 1090.94 10.3801 1044.76 16.7758C998.587 23.1716 1015.21 56.1711 978.27 36.4735C941.33 16.7759 937.637 -2.32273 906.237 23.1716C874.838 48.6659 845.287 29.1964 860.063 64.1842C874.838 99.172 874.838 89.6789 874.838 120.715C874.838 151.752 845.287 143.993 860.063 173.921C874.838 203.849 869.298 199.415 893.308 223.801C912.517 243.309 1021.98 231.929 1074.31 223.801ZM993.087 173.921C993.087 160.455 978.502 123.745 1003.75 112.542C1032.93 99.5915 1076.27 35.5122 1040.21 42.8542C1008.79 49.2507 987.315 67.8707 961.112 47.2307C943.161 33.0911 882.227 38.1532 893.308 69.1134C904.39 100.074 893.308 117.627 893.308 147.554C893.308 177.482 860.661 198.849 917.917 191.09C963.723 184.883 993.087 183.24 993.087 173.921ZM998.587 -424.746C1007.06 -389.171 1033.68 -360.588 1033.68 -340.399C1033.68 -320.211 994.893 -319.075 1024.44 -290.941C1054 -262.807 1040.54 -244.946 1074.31 -247.036C1108.09 -249.127 1124.76 -264.459 1106.92 -277.7C1089.09 -290.941 1048.67 -305.736 1074.31 -311.579C1099.96 -317.423 1081.25 -314.363 1131.57 -322.082C1173 -328.438 1165.88 -309.369 1199.12 -302.399C1232.37 -295.43 1209.84 -270.486 1232.07 -267.698C1254.3 -264.91 1310.16 -270.731 1331.04 -270.731C1351.93 -270.731 1371.68 -257.49 1404.92 -270.731C1438.17 -283.972 1454.65 -284.669 1475.04 -277.7C1491.35 -272.125 1495.43 -259.547 1495.43 -253.955L1541.23 -311.579L1508.36 -416.882L998.587 -424.746Z" stroke="#A6B8E3"/>
</mask>
<g mask="url(#mask0_258_3)">
<rect x="1471" y="-1.25854" width="147.259" height="1487.3" transform="rotate(90 1471 -1.25854)" fill="#A6B8E3"/>
</g>
<circle cx="231.5" cy="31.5" r="10.5" fill="#EA513A"/>
<ellipse cx="1312.69" cy="51.7672" rx="20.6918" ry="20.7672" fill="#EA513A"/>
</g>
<defs>
<clipPath id="clip0_258_3">
<rect width="1471" height="146" fill="white"/>
</clipPath>
</defs>
</svg>
