<svg width="177" height="91" viewBox="0 0 177 91" fill="none" xmlns="http://www.w3.org/2000/svg">
<path d="M157.998 44.4846L161.672 49.9216L176.999 46.4762L170.341 36.6238L167.29 40.8043L168.799 43.038L164.424 44.1027L170.119 36.2948L166.855 31.4638L157.998 44.4846Z" fill="#EA513A"/>
<path d="M143.793 29.4549L148.93 33.5376L162.514 25.6483L153.205 18.25L151.55 23.1541L153.66 24.8314L149.807 27.1609L152.895 18.003L148.33 14.3754L143.793 29.4549Z" fill="#EA513A"/>
<path d="M125.848 19.3952L131.98 21.7302L142.537 10.0971L131.425 5.86579L131.332 11.0408L133.852 12.0001L130.885 15.3874L131.053 5.7245L125.605 3.64972L125.848 19.3952Z" fill="#EA513A"/>
<path d="M105.347 15.1189L111.894 15.5607L118.592 1.35113L106.728 0.550616L108.152 5.52686L110.841 5.70834L108.993 9.81454L106.332 0.523886L100.515 0.131366L105.347 15.1189Z" fill="#EA513A"/>
<path d="M83.8143 16.5658L90.2732 15.4087L93.33 3.46312e-05L81.6257 2.09673L84.2121 6.58001L86.8657 6.10466L86.0673 10.5362L81.2348 2.16674L75.4958 3.19482L83.8143 16.5658Z" fill="#EA513A"/>
<path d="M63.8525 22.1196L70.1331 20.2191L71.3767 4.55945L59.9957 8.0034L63.0861 12.1554L65.6663 11.3746L65.3888 15.8689L59.6157 8.1184L54.0352 9.80709L63.8525 22.1196Z" fill="#EA513A"/>
<path d="M45.2929 31.2412L50.7127 27.5421L47.1959 12.2319L37.3746 18.9349L41.5693 21.9671L43.796 20.4474L44.881 24.8176L37.0467 19.1587L32.231 22.4454L45.2929 31.2412Z" fill="#EA513A"/>
<path d="M30.3759 45.4073L34.4208 40.2405L26.4321 26.7146L19.1023 36.0774L24.0183 37.6967L25.6801 35.574L28.0378 39.4102L18.8575 36.39L15.2635 40.9809L30.3759 45.4073Z" fill="#EA513A"/>
<path d="M20.2232 63.7244L22.5823 57.6014L10.9907 46.9992L6.71581 58.0948L11.8905 58.2073L12.8596 55.6918L16.2352 58.672L6.57307 58.4653L4.47694 63.9059L20.2232 63.7244Z" fill="#EA513A"/>
<path d="M15.2334 84.7222L16.0392 78.21L2.22494 70.731L0.764668 82.5316L5.8125 81.3875L6.14356 78.7121L10.1404 80.786L0.715907 82.9257L-0.000112083 88.712L15.2334 84.7222Z" fill="#EA513A"/>
</svg>
