<svg width="291" height="289" viewBox="0 0 291 289" fill="none" xmlns="http://www.w3.org/2000/svg">
<path fill-rule="evenodd" clip-rule="evenodd" d="M175.581 99.824C190.131 90.053 199.713 73.3947 199.713 54.4869C199.713 24.3946 175.441 0 145.5 0C115.559 0 91.2866 24.3946 91.2866 54.4869C91.2866 73.3947 100.869 90.053 115.419 99.824L51.7044 99.824L0 289H119.798H171.202H291L239.296 99.824L175.581 99.824ZM178.304 54.4869C178.304 72.6955 163.617 87.4564 145.5 87.4564C127.383 87.4564 112.696 72.6955 112.696 54.4869C112.696 36.2784 127.383 21.5175 145.5 21.5175C163.617 21.5175 178.304 36.2784 178.304 54.4869Z" fill="white"/>
</svg>
