<svg width="1021" height="1672" viewBox="0 0 1021 1672" fill="none" xmlns="http://www.w3.org/2000/svg">
<g clip-path="url(#clip0_370_9)">
<rect width="1021" height="1672" fill="#98C32F"/>
<rect x="-46" width="1109" height="418" fill="white"/>
<rect x="-46" y="836" width="1109" height="418" fill="white"/>
<rect x="-19" y="418" width="1109" height="418" fill="#A6B8E3"/>
<rect x="-19" y="1254" width="1109" height="418" fill="#A6B8E3"/>
<path d="M838.032 467.384C838.736 468.248 839.68 468.68 840.864 468.68C842.048 468.68 842.984 468.248 843.672 467.384C844.36 466.504 844.704 465.432 844.704 464.168C844.704 462.936 844.36 461.888 843.672 461.024C842.984 460.16 842.048 459.728 840.864 459.728C839.68 459.728 838.736 460.16 838.032 461.024C837.344 461.888 837 462.936 837 464.168C837 465.432 837.344 466.504 838.032 467.384ZM840.864 470.288C839.12 470.288 837.728 469.672 836.688 468.44C835.648 467.208 835.128 465.616 835.128 463.664C835.128 460.912 835.624 458.88 836.616 457.568C837.608 456.24 839.136 455.44 841.2 455.168C842.432 454.976 843.28 454.792 843.744 454.616C844.224 454.44 844.464 454.232 844.464 453.992H846.216C846.216 454.44 846.08 454.832 845.808 455.168C845.536 455.488 845.144 455.744 844.632 455.936C844.136 456.128 843.664 456.28 843.216 456.392C842.784 456.488 842.264 456.576 841.656 456.656C840.056 456.88 838.896 457.32 838.176 457.976C837.472 458.632 837.008 459.504 836.784 460.592C837.84 458.944 839.296 458.12 841.152 458.12C842.752 458.12 844.056 458.704 845.064 459.872C846.072 461.04 846.576 462.472 846.576 464.168C846.576 465.896 846.056 467.352 845.016 468.536C843.976 469.704 842.592 470.288 840.864 470.288ZM854.884 470.288C853.156 470.288 851.74 469.728 850.636 468.608C849.532 467.472 848.98 466 848.98 464.192C848.98 462.496 849.524 461.064 850.612 459.896C851.7 458.712 853.06 458.12 854.692 458.12C856.404 458.12 857.756 458.712 858.748 459.896C859.756 461.064 860.26 462.544 860.26 464.336V464.792H850.876C850.956 465.928 851.372 466.88 852.124 467.648C852.876 468.416 853.852 468.8 855.052 468.8C856.492 468.8 857.684 468.312 858.628 467.336L859.492 468.512C858.308 469.696 856.772 470.288 854.884 470.288ZM858.484 463.472C858.468 462.48 858.132 461.592 857.476 460.808C856.82 460.008 855.884 459.608 854.668 459.608C853.516 459.608 852.604 460 851.932 460.784C851.276 461.568 850.924 462.464 850.876 463.472H858.484ZM861.807 470.288V468.8C862.351 468.8 862.799 468.44 863.151 467.72C863.503 467 863.791 465.8 864.015 464.12L864.759 458.408H872.823V470H871.023V459.992H866.343L865.815 464.336C865.559 466.464 865.111 467.992 864.471 468.92C863.831 469.832 862.943 470.288 861.807 470.288ZM875.769 474.536L876.057 472.904C876.345 473.032 876.673 473.096 877.041 473.096C877.457 473.096 877.801 473.008 878.073 472.832C878.345 472.656 878.577 472.336 878.769 471.872L879.537 470.12L874.689 458.408H876.633L880.497 467.912L884.337 458.408H886.305L880.497 472.352C879.857 473.888 878.721 474.672 877.089 474.704C876.609 474.704 876.169 474.648 875.769 474.536ZM897.783 470H895.695L892.215 465.248L888.735 470H886.671L891.111 464.048L886.911 458.408H888.999L892.215 462.824L895.431 458.408H897.519L893.319 464.048L897.783 470ZM908.903 470H907.103V468.68C906.127 469.752 904.847 470.288 903.263 470.288C902.191 470.288 901.247 469.944 900.431 469.256C899.615 468.568 899.207 467.632 899.207 466.448C899.207 465.232 899.607 464.296 900.407 463.64C901.223 462.968 902.175 462.632 903.263 462.632C904.911 462.632 906.191 463.16 907.103 464.216V462.128C907.103 461.36 906.831 460.76 906.287 460.328C905.743 459.896 905.039 459.68 904.175 459.68C902.815 459.68 901.631 460.216 900.623 461.288L899.783 460.04C901.015 458.76 902.559 458.12 904.415 458.12C905.743 458.12 906.823 458.44 907.655 459.08C908.487 459.72 908.903 460.704 908.903 462.032V470ZM903.911 468.992C905.351 468.992 906.415 468.512 907.103 467.552V465.368C906.415 464.408 905.351 463.928 903.911 463.928C903.079 463.928 902.391 464.168 901.847 464.648C901.319 465.112 901.055 465.72 901.055 466.472C901.055 467.208 901.319 467.816 901.847 468.296C902.391 468.76 903.079 468.992 903.911 468.992Z" fill="#002EAB"/>
<path d="M854.547 486.57V491.797L859.656 490.016L860.594 492.617L855.484 494.281L858.648 498.688L856.328 500.352L853.258 495.781L850.164 500.352L847.773 498.688L850.984 494.281L845.828 492.617L846.766 490.016L851.828 491.844V486.57H854.547ZM873.25 486.57V491.797L878.359 490.016L879.297 492.617L874.188 494.281L877.352 498.688L875.031 500.352L871.961 495.781L868.867 500.352L866.477 498.688L869.688 494.281L864.531 492.617L865.469 490.016L870.531 491.844V486.57H873.25ZM891.953 486.57V491.797L897.062 490.016L898 492.617L892.891 494.281L896.055 498.688L893.734 500.352L890.664 495.781L887.57 500.352L885.18 498.688L888.391 494.281L883.234 492.617L884.172 490.016L889.234 491.844V486.57H891.953Z" fill="#EA513A"/>
<path d="M783.448 1306H781.648V1295.99H775.6V1306H773.8V1294.41H783.448V1306ZM796.258 1304.54C795.218 1305.7 793.834 1306.29 792.106 1306.29C790.378 1306.29 788.986 1305.7 787.93 1304.54C786.89 1303.37 786.37 1301.92 786.37 1300.19C786.37 1298.46 786.89 1297.02 787.93 1295.87C788.986 1294.7 790.378 1294.12 792.106 1294.12C793.834 1294.12 795.218 1294.7 796.258 1295.87C797.314 1297.02 797.842 1298.46 797.842 1300.19C797.842 1301.92 797.314 1303.37 796.258 1304.54ZM789.274 1303.38C789.978 1304.25 790.922 1304.68 792.106 1304.68C793.29 1304.68 794.226 1304.25 794.914 1303.38C795.602 1302.5 795.946 1301.44 795.946 1300.19C795.946 1298.94 795.602 1297.89 794.914 1297.02C794.226 1296.16 793.29 1295.73 792.106 1295.73C790.922 1295.73 789.978 1296.17 789.274 1297.05C788.586 1297.91 788.242 1298.96 788.242 1300.19C788.242 1301.44 788.586 1302.5 789.274 1303.38ZM799.409 1306.29V1304.8C799.953 1304.8 800.401 1304.44 800.753 1303.72C801.105 1303 801.393 1301.8 801.617 1300.12L802.361 1294.41H810.425V1306H808.625V1295.99H803.945L803.417 1300.34C803.161 1302.46 802.713 1303.99 802.073 1304.92C801.433 1305.83 800.545 1306.29 799.409 1306.29ZM823.235 1304.54C822.195 1305.7 820.811 1306.29 819.083 1306.29C817.355 1306.29 815.963 1305.7 814.907 1304.54C813.867 1303.37 813.347 1301.92 813.347 1300.19C813.347 1298.46 813.867 1297.02 814.907 1295.87C815.963 1294.7 817.355 1294.12 819.083 1294.12C820.811 1294.12 822.195 1294.7 823.235 1295.87C824.291 1297.02 824.819 1298.46 824.819 1300.19C824.819 1301.92 824.291 1303.37 823.235 1304.54ZM816.251 1303.38C816.955 1304.25 817.899 1304.68 819.083 1304.68C820.267 1304.68 821.203 1304.25 821.891 1303.38C822.579 1302.5 822.923 1301.44 822.923 1300.19C822.923 1298.94 822.579 1297.89 821.891 1297.02C821.203 1296.16 820.267 1295.73 819.083 1295.73C817.899 1295.73 816.955 1296.17 816.251 1297.05C815.563 1297.91 815.219 1298.96 815.219 1300.19C815.219 1301.44 815.563 1302.5 816.251 1303.38ZM832.865 1306.29C831.153 1306.29 829.761 1305.71 828.689 1304.56C827.617 1303.39 827.081 1301.94 827.081 1300.19C827.081 1298.45 827.617 1297 828.689 1295.85C829.761 1294.7 831.153 1294.12 832.865 1294.12C834.657 1294.12 836.073 1294.79 837.113 1296.14L835.913 1297.24C835.177 1296.23 834.193 1295.73 832.961 1295.73C831.745 1295.73 830.769 1296.14 830.033 1296.98C829.313 1297.81 828.953 1298.88 828.953 1300.19C828.953 1301.5 829.313 1302.58 830.033 1303.43C830.769 1304.26 831.745 1304.68 832.961 1304.68C834.177 1304.68 835.161 1304.18 835.913 1303.17L837.113 1304.27C836.073 1305.62 834.657 1306.29 832.865 1306.29ZM848.684 1306H846.884V1304.68C845.908 1305.75 844.628 1306.29 843.044 1306.29C841.972 1306.29 841.028 1305.94 840.212 1305.26C839.396 1304.57 838.988 1303.63 838.988 1302.45C838.988 1301.23 839.388 1300.3 840.188 1299.64C841.004 1298.97 841.956 1298.63 843.044 1298.63C844.692 1298.63 845.972 1299.16 846.884 1300.22V1298.13C846.884 1297.36 846.612 1296.76 846.068 1296.33C845.524 1295.9 844.82 1295.68 843.956 1295.68C842.596 1295.68 841.412 1296.22 840.404 1297.29L839.564 1296.04C840.796 1294.76 842.34 1294.12 844.196 1294.12C845.524 1294.12 846.604 1294.44 847.436 1295.08C848.268 1295.72 848.684 1296.7 848.684 1298.03V1306ZM843.692 1304.99C845.132 1304.99 846.196 1304.51 846.884 1303.55V1301.37C846.196 1300.41 845.132 1299.93 843.692 1299.93C842.86 1299.93 842.172 1300.17 841.628 1300.65C841.1 1301.11 840.836 1301.72 840.836 1302.47C840.836 1303.21 841.1 1303.82 841.628 1304.3C842.172 1304.76 842.86 1304.99 843.692 1304.99ZM856.204 1306H854.404V1295.99H851.044V1294.41H859.588V1295.99H856.204V1306ZM863.676 1306H861.948V1294.41H863.748V1303.26L869.82 1294.41H871.596V1306H869.796V1296.98L863.676 1306ZM885.391 1306H883.087L878.911 1300.79L876.991 1302.69V1306H875.191V1294.41H876.991V1300.58L883.087 1294.41H885.367L880.231 1299.66L885.391 1306ZM895.938 1303.38C896.642 1304.25 897.586 1304.68 898.77 1304.68C899.954 1304.68 900.89 1304.25 901.578 1303.38C902.266 1302.5 902.61 1301.43 902.61 1300.17C902.61 1298.94 902.266 1297.89 901.578 1297.02C900.89 1296.16 899.954 1295.73 898.77 1295.73C897.586 1295.73 896.642 1296.16 895.938 1297.02C895.25 1297.89 894.906 1298.94 894.906 1300.17C894.906 1301.43 895.25 1302.5 895.938 1303.38ZM898.77 1306.29C897.026 1306.29 895.634 1305.67 894.594 1304.44C893.554 1303.21 893.034 1301.62 893.034 1299.66C893.034 1296.91 893.53 1294.88 894.522 1293.57C895.514 1292.24 897.042 1291.44 899.106 1291.17C900.338 1290.98 901.186 1290.79 901.65 1290.62C902.13 1290.44 902.37 1290.23 902.37 1289.99H904.122C904.122 1290.44 903.986 1290.83 903.714 1291.17C903.442 1291.49 903.05 1291.74 902.538 1291.94C902.042 1292.13 901.57 1292.28 901.122 1292.39C900.69 1292.49 900.17 1292.58 899.562 1292.66C897.962 1292.88 896.802 1293.32 896.082 1293.98C895.378 1294.63 894.914 1295.5 894.69 1296.59C895.746 1294.94 897.202 1294.12 899.058 1294.12C900.658 1294.12 901.962 1294.7 902.97 1295.87C903.978 1297.04 904.482 1298.47 904.482 1300.17C904.482 1301.9 903.962 1303.35 902.922 1304.54C901.882 1305.7 900.498 1306.29 898.77 1306.29ZM913.27 1306.29C911.638 1306.29 910.334 1305.61 909.358 1304.25V1310.42H907.558V1294.41H909.358V1296.14C909.79 1295.53 910.35 1295.04 911.038 1294.67C911.726 1294.3 912.47 1294.12 913.27 1294.12C914.806 1294.12 916.046 1294.67 916.99 1295.78C917.95 1296.86 918.43 1298.34 918.43 1300.19C918.43 1302.05 917.95 1303.53 916.99 1304.63C916.046 1305.74 914.806 1306.29 913.27 1306.29ZM912.814 1304.68C913.95 1304.68 914.854 1304.26 915.526 1303.43C916.198 1302.58 916.534 1301.5 916.534 1300.19C916.534 1298.88 916.198 1297.81 915.526 1296.98C914.854 1296.14 913.95 1295.73 912.814 1295.73C912.126 1295.73 911.454 1295.91 910.798 1296.28C910.158 1296.63 909.678 1297.06 909.358 1297.58V1302.81C909.678 1303.34 910.158 1303.78 910.798 1304.15C911.454 1304.5 912.126 1304.68 912.814 1304.68ZM930.34 1306H928.54V1304.68C927.564 1305.75 926.284 1306.29 924.7 1306.29C923.628 1306.29 922.684 1305.94 921.868 1305.26C921.052 1304.57 920.644 1303.63 920.644 1302.45C920.644 1301.23 921.044 1300.3 921.844 1299.64C922.66 1298.97 923.612 1298.63 924.7 1298.63C926.348 1298.63 927.628 1299.16 928.54 1300.22V1298.13C928.54 1297.36 928.268 1296.76 927.724 1296.33C927.18 1295.9 926.476 1295.68 925.612 1295.68C924.252 1295.68 923.068 1296.22 922.06 1297.29L921.22 1296.04C922.452 1294.76 923.996 1294.12 925.852 1294.12C927.18 1294.12 928.26 1294.44 929.092 1295.08C929.924 1295.72 930.34 1296.7 930.34 1298.03V1306ZM925.348 1304.99C926.788 1304.99 927.852 1304.51 928.54 1303.55V1301.37C927.852 1300.41 926.788 1299.93 925.348 1299.93C924.516 1299.93 923.828 1300.17 923.284 1300.65C922.756 1301.11 922.492 1301.72 922.492 1302.47C922.492 1303.21 922.756 1303.82 923.284 1304.3C923.828 1304.76 924.516 1304.99 925.348 1304.99ZM935.676 1306H933.948V1294.41H935.748V1303.26L941.82 1294.41H943.596V1306H941.796V1296.98L935.676 1306ZM942.972 1290.98C941.932 1292.38 940.532 1293.09 938.772 1293.09C937.028 1293.09 935.62 1292.38 934.548 1290.98L935.436 1290.21C936.268 1291.36 937.38 1291.94 938.772 1291.94C940.18 1291.94 941.284 1291.36 942.084 1290.21L942.972 1290.98ZM945.823 1308.95V1304.51C946.415 1304.4 946.879 1304.05 947.215 1303.46C947.551 1302.85 947.823 1301.74 948.031 1300.12L948.775 1294.41H956.839V1304.42H958.183V1308.95H956.383V1306H947.623V1308.95H945.823ZM950.359 1295.99L949.831 1300.34C949.559 1302.37 948.999 1303.73 948.151 1304.42H955.039V1295.99H950.359ZM969.692 1306H967.892V1304.68C966.916 1305.75 965.636 1306.29 964.052 1306.29C962.98 1306.29 962.036 1305.94 961.22 1305.26C960.404 1304.57 959.996 1303.63 959.996 1302.45C959.996 1301.23 960.396 1300.3 961.196 1299.64C962.012 1298.97 962.964 1298.63 964.052 1298.63C965.7 1298.63 966.98 1299.16 967.892 1300.22V1298.13C967.892 1297.36 967.62 1296.76 967.076 1296.33C966.532 1295.9 965.828 1295.68 964.964 1295.68C963.604 1295.68 962.42 1296.22 961.412 1297.29L960.572 1296.04C961.804 1294.76 963.348 1294.12 965.204 1294.12C966.532 1294.12 967.612 1294.44 968.444 1295.08C969.276 1295.72 969.692 1296.7 969.692 1298.03V1306ZM964.7 1304.99C966.14 1304.99 967.204 1304.51 967.892 1303.55V1301.37C967.204 1300.41 966.14 1299.93 964.7 1299.93C963.868 1299.93 963.18 1300.17 962.636 1300.65C962.108 1301.11 961.844 1301.72 961.844 1302.47C961.844 1303.21 962.108 1303.82 962.636 1304.3C963.18 1304.76 963.868 1304.99 964.7 1304.99Z" fill="#002EAB"/>
<path d="M854.547 1322.1V1327.33L859.656 1325.55L860.594 1328.15L855.484 1329.82L858.648 1334.22L856.328 1335.89L853.258 1331.32L850.164 1335.89L847.773 1334.22L850.984 1329.82L845.828 1328.15L846.766 1325.55L851.828 1327.38V1322.1H854.547ZM873.25 1322.1V1327.33L878.359 1325.55L879.297 1328.15L874.188 1329.82L877.352 1334.22L875.031 1335.89L871.961 1331.32L868.867 1335.89L866.477 1334.22L869.688 1329.82L864.531 1328.15L865.469 1325.55L870.531 1327.38V1322.1H873.25ZM891.953 1322.1V1327.33L897.062 1325.55L898 1328.15L892.891 1329.82L896.055 1334.22L893.734 1335.89L890.664 1331.32L887.57 1335.89L885.18 1334.22L888.391 1329.82L883.234 1328.15L884.172 1325.55L889.234 1327.38V1322.1H891.953Z" fill="#EA513A"/>
<path d="M835.52 876.12C836.832 876.12 837.888 876.8 838.688 878.16V871.992H840.488V878.136C840.84 877.528 841.288 877.04 841.832 876.672C842.392 876.304 842.992 876.12 843.632 876.12C844.88 876.12 845.888 876.672 846.656 877.776C847.424 878.864 847.808 880.336 847.808 882.192C847.808 884.048 847.416 885.528 846.632 886.632C845.864 887.736 844.864 888.288 843.632 888.288C842.32 888.288 841.272 887.608 840.488 886.248V892.416H838.688V886.272C838.336 886.88 837.88 887.368 837.32 887.736C836.76 888.104 836.16 888.288 835.52 888.288C834.272 888.288 833.264 887.744 832.496 886.656C831.728 885.552 831.344 884.072 831.344 882.216C831.344 880.36 831.728 878.88 832.496 877.776C833.28 876.672 834.288 876.12 835.52 876.12ZM836.024 877.728C835.144 877.728 834.448 878.152 833.936 879C833.424 879.832 833.168 880.904 833.168 882.216C833.168 883.528 833.424 884.6 833.936 885.432C834.448 886.264 835.144 886.68 836.024 886.68C836.568 886.68 837.088 886.504 837.584 886.152C838.08 885.8 838.448 885.36 838.688 884.832V879.6C838.432 879.072 838.056 878.632 837.56 878.28C837.064 877.912 836.552 877.728 836.024 877.728ZM843.128 886.68C844.008 886.68 844.704 886.264 845.216 885.432C845.728 884.584 845.984 883.504 845.984 882.192C845.984 880.88 845.728 879.808 845.216 878.976C844.704 878.144 844.008 877.728 843.128 877.728C842.6 877.728 842.088 877.912 841.592 878.28C841.096 878.632 840.728 879.064 840.488 879.576V884.808C840.744 885.336 841.112 885.784 841.592 886.152C842.088 886.504 842.6 886.68 843.128 886.68ZM852.676 888H850.948V876.408H852.748V885.264L858.82 876.408H860.596V888H858.796V878.976L852.676 888ZM865.991 888H864.191V876.408H865.991V881.232H872.039V876.408H873.839V888H872.039V882.816H865.991V888ZM883.937 888H877.433V876.408H883.817C884.825 876.408 885.617 876.68 886.193 877.224C886.785 877.768 887.081 878.488 887.081 879.384C887.081 880.04 886.897 880.608 886.529 881.088C886.177 881.552 885.737 881.864 885.209 882.024C885.801 882.168 886.297 882.512 886.697 883.056C887.113 883.6 887.321 884.2 887.321 884.856C887.321 885.8 887.017 886.56 886.409 887.136C885.817 887.712 884.993 888 883.937 888ZM883.577 886.416C884.153 886.416 884.609 886.256 884.945 885.936C885.281 885.616 885.449 885.184 885.449 884.64C885.449 884.144 885.281 883.72 884.945 883.368C884.609 883.016 884.153 882.84 883.577 882.84H879.233V886.416H883.577ZM883.505 881.256C884.049 881.256 884.473 881.112 884.777 880.824C885.081 880.52 885.233 880.128 885.233 879.648C885.233 879.136 885.081 878.736 884.777 878.448C884.473 878.144 884.049 877.992 883.505 877.992H879.233V881.256H883.505ZM899.77 888H897.97V886.68C896.994 887.752 895.714 888.288 894.13 888.288C893.058 888.288 892.114 887.944 891.298 887.256C890.482 886.568 890.074 885.632 890.074 884.448C890.074 883.232 890.474 882.296 891.274 881.64C892.09 880.968 893.042 880.632 894.13 880.632C895.778 880.632 897.058 881.16 897.97 882.216V880.128C897.97 879.36 897.698 878.76 897.154 878.328C896.61 877.896 895.906 877.68 895.042 877.68C893.682 877.68 892.498 878.216 891.49 879.288L890.65 878.04C891.882 876.76 893.426 876.12 895.282 876.12C896.61 876.12 897.69 876.44 898.522 877.08C899.354 877.72 899.77 878.704 899.77 880.032V888ZM894.778 886.992C896.218 886.992 897.282 886.512 897.97 885.552V883.368C897.282 882.408 896.218 881.928 894.778 881.928C893.946 881.928 893.258 882.168 892.714 882.648C892.186 883.112 891.922 883.72 891.922 884.472C891.922 885.208 892.186 885.816 892.714 886.296C893.258 886.76 893.946 886.992 894.778 886.992ZM902.01 888.288V886.8C902.554 886.8 903.002 886.44 903.354 885.72C903.706 885 903.994 883.8 904.218 882.12L904.962 876.408H913.026V888H911.226V877.992H906.546L906.018 882.336C905.762 884.464 905.314 885.992 904.674 886.92C904.034 887.832 903.146 888.288 902.01 888.288Z" fill="#002EAB"/>
<path d="M835.547 904.104V909.331L840.656 907.55L841.594 910.151L836.484 911.815L839.648 916.221L837.328 917.885L834.258 913.315L831.164 917.885L828.773 916.221L831.984 911.815L826.828 910.151L827.766 907.55L832.828 909.378V904.104H835.547ZM854.25 904.104V909.331L859.359 907.55L860.297 910.151L855.188 911.815L858.352 916.221L856.031 917.885L852.961 913.315L849.867 917.885L847.477 916.221L850.688 911.815L845.531 910.151L846.469 907.55L851.531 909.378V904.104H854.25ZM872.953 904.104V909.331L878.062 907.55L879 910.151L873.891 911.815L877.055 916.221L874.734 917.885L871.664 913.315L868.57 917.885L866.18 916.221L869.391 911.815L864.234 910.151L865.172 907.55L870.234 909.378V904.104H872.953ZM891.656 904.104V909.331L896.766 907.55L897.703 910.151L892.594 911.815L895.758 916.221L893.438 917.885L890.367 913.315L887.273 917.885L884.883 916.221L888.094 911.815L882.938 910.151L883.875 907.55L888.938 909.378V904.104H891.656ZM910.359 904.104V909.331L915.469 907.55L916.406 910.151L911.297 911.815L914.461 916.221L912.141 917.885L909.07 913.315L905.977 917.885L903.586 916.221L906.797 911.815L901.641 910.151L902.578 907.55L907.641 909.378V904.104H910.359Z" fill="#EA513A"/>
<path d="M808.912 40.408V41.992H802.6V52H800.8V40.408H808.912ZM820.469 50.536C819.429 51.704 818.045 52.288 816.317 52.288C814.589 52.288 813.197 51.704 812.141 50.536C811.101 49.368 810.581 47.92 810.581 46.192C810.581 44.464 811.101 43.024 812.141 41.872C813.197 40.704 814.589 40.12 816.317 40.12C818.045 40.12 819.429 40.704 820.469 41.872C821.525 43.024 822.053 44.464 822.053 46.192C822.053 47.92 821.525 49.368 820.469 50.536ZM813.485 49.384C814.189 50.248 815.133 50.68 816.317 50.68C817.501 50.68 818.437 50.248 819.125 49.384C819.813 48.504 820.157 47.44 820.157 46.192C820.157 44.944 819.813 43.888 819.125 43.024C818.437 42.16 817.501 41.728 816.317 41.728C815.133 41.728 814.189 42.168 813.485 43.048C812.797 43.912 812.453 44.96 812.453 46.192C812.453 47.44 812.797 48.504 813.485 49.384ZM830.7 52.288C829.068 52.288 827.764 51.608 826.788 50.248V56.416H824.988V40.408H826.788V42.136C827.22 41.528 827.78 41.04 828.468 40.672C829.156 40.304 829.9 40.12 830.7 40.12C832.236 40.12 833.476 40.672 834.42 41.776C835.38 42.864 835.859 44.336 835.859 46.192C835.859 48.048 835.38 49.528 834.42 50.632C833.476 51.736 832.236 52.288 830.7 52.288ZM830.243 50.68C831.38 50.68 832.284 50.264 832.956 49.432C833.628 48.584 833.964 47.504 833.964 46.192C833.964 44.88 833.628 43.808 832.956 42.976C832.284 42.144 831.38 41.728 830.243 41.728C829.556 41.728 828.884 41.912 828.228 42.28C827.588 42.632 827.108 43.064 826.788 43.576V48.808C827.108 49.336 827.588 49.784 828.228 50.152C828.884 50.504 829.556 50.68 830.243 50.68ZM840.954 49.384C841.658 50.248 842.602 50.68 843.786 50.68C844.97 50.68 845.906 50.248 846.594 49.384C847.282 48.504 847.626 47.432 847.626 46.168C847.626 44.936 847.282 43.888 846.594 43.024C845.906 42.16 844.97 41.728 843.786 41.728C842.602 41.728 841.658 42.16 840.954 43.024C840.266 43.888 839.922 44.936 839.922 46.168C839.922 47.432 840.266 48.504 840.954 49.384ZM843.786 52.288C842.042 52.288 840.65 51.672 839.61 50.44C838.57 49.208 838.05 47.616 838.05 45.664C838.05 42.912 838.546 40.88 839.538 39.568C840.53 38.24 842.058 37.44 844.122 37.168C845.354 36.976 846.202 36.792 846.666 36.616C847.146 36.44 847.386 36.232 847.386 35.992H849.138C849.138 36.44 849.002 36.832 848.73 37.168C848.458 37.488 848.066 37.744 847.554 37.936C847.058 38.128 846.586 38.28 846.138 38.392C845.706 38.488 845.186 38.576 844.578 38.656C842.978 38.88 841.818 39.32 841.098 39.976C840.394 40.632 839.93 41.504 839.706 42.592C840.762 40.944 842.218 40.12 844.074 40.12C845.674 40.12 846.978 40.704 847.986 41.872C848.994 43.04 849.498 44.472 849.498 46.168C849.498 47.896 848.978 49.352 847.938 50.536C846.898 51.704 845.514 52.288 843.786 52.288ZM861.621 52H859.821V50.68C858.845 51.752 857.565 52.288 855.981 52.288C854.909 52.288 853.965 51.944 853.149 51.256C852.333 50.568 851.925 49.632 851.925 48.448C851.925 47.232 852.325 46.296 853.125 45.64C853.941 44.968 854.893 44.632 855.981 44.632C857.629 44.632 858.909 45.16 859.821 46.216V44.128C859.821 43.36 859.549 42.76 859.005 42.328C858.461 41.896 857.757 41.68 856.893 41.68C855.533 41.68 854.349 42.216 853.341 43.288L852.501 42.04C853.733 40.76 855.277 40.12 857.133 40.12C858.461 40.12 859.541 40.44 860.373 41.08C861.205 41.72 861.621 42.704 861.621 44.032V52ZM856.629 50.992C858.069 50.992 859.133 50.512 859.821 49.552V47.368C859.133 46.408 858.069 45.928 856.629 45.928C855.797 45.928 855.109 46.168 854.565 46.648C854.037 47.112 853.773 47.72 853.773 48.472C853.773 49.208 854.037 49.816 854.565 50.296C855.109 50.76 855.797 50.992 856.629 50.992ZM869.142 52H867.342V41.992H863.982V40.408H872.526V41.992H869.142V52ZM874.886 40.408H876.686V44.896H881.03C882.182 44.896 883.078 45.24 883.718 45.928C884.358 46.6 884.678 47.44 884.678 48.448C884.678 49.456 884.35 50.304 883.694 50.992C883.054 51.664 882.166 52 881.03 52H874.886V40.408ZM880.838 46.48H876.686V50.416H880.838C881.478 50.416 881.966 50.24 882.302 49.888C882.654 49.52 882.83 49.04 882.83 48.448C882.83 47.856 882.654 47.384 882.302 47.032C881.966 46.664 881.478 46.48 880.838 46.48ZM888.374 52H886.574V40.408H888.374V52ZM893.7 52H891.972V40.408H893.772V49.264L899.844 40.408H901.62V52H899.82V42.976L893.7 52ZM900.996 36.976C899.956 38.384 898.556 39.088 896.796 39.088C895.052 39.088 893.644 38.384 892.572 36.976L893.46 36.208C894.292 37.36 895.404 37.936 896.796 37.936C898.204 37.936 899.308 37.36 900.108 36.208L900.996 36.976ZM921.602 52H919.298L915.122 46.792L913.202 48.688V52H911.402V40.408H913.202V46.576L919.298 40.408H921.578L916.442 45.664L921.602 52ZM925.458 52H923.73V40.408H925.53V49.264L931.602 40.408H933.378V52H931.578V42.976L925.458 52ZM940.884 52H939.084V41.992H935.724V40.408H944.268V41.992H940.884V52Z" fill="#002EAB"/>
<path d="M845.547 68.5703V73.7969L850.656 72.0156L851.594 74.6172L846.484 76.2812L849.648 80.6875L847.328 82.3516L844.258 77.7812L841.164 82.3516L838.773 80.6875L841.984 76.2812L836.828 74.6172L837.766 72.0156L842.828 73.8438V68.5703H845.547ZM864.25 68.5703V73.7969L869.359 72.0156L870.297 74.6172L865.188 76.2812L868.352 80.6875L866.031 82.3516L862.961 77.7812L859.867 82.3516L857.477 80.6875L860.688 76.2812L855.531 74.6172L856.469 72.0156L861.531 73.8438V68.5703H864.25ZM882.953 68.5703V73.7969L888.062 72.0156L889 74.6172L883.891 76.2812L887.055 80.6875L884.734 82.3516L881.664 77.7812L878.57 82.3516L876.18 80.6875L879.391 76.2812L874.234 74.6172L875.172 72.0156L880.234 73.8438V68.5703H882.953ZM901.656 68.5703V73.7969L906.766 72.0156L907.703 74.6172L902.594 76.2812L905.758 80.6875L903.438 82.3516L900.367 77.7812L897.273 82.3516L894.883 80.6875L898.094 76.2812L892.938 74.6172L893.875 72.0156L898.938 73.8438V68.5703H901.656Z" fill="#EA513A"/>
<path d="M188.09 1579.8C225.26 1552.21 257.313 1547.3 287.072 1564.17C291.673 1566.77 297.55 1563.92 298.143 1558.69C299.083 1550.39 292.343 1541.64 267.366 1509.17C334.384 1493.37 378.72 1483.94 451.036 1495.78C433.095 1509.94 438.818 1524.43 424.499 1537.48C420.555 1541.07 417.384 1545.51 414.394 1550.15C410.747 1555.81 414.498 1563.31 421.225 1563.86C427.205 1564.36 432.915 1564.36 437.271 1561.94C460.805 1548.9 482.418 1532.46 505.089 1517.81C508.917 1515.34 514.471 1513.48 518.802 1514.15C539.062 1517.31 559.039 1522.83 579.377 1524.84C596.144 1526.5 593.012 1536.76 593.837 1548.37C594.159 1552.89 599.933 1554.59 602.666 1550.97C608.452 1543.3 613.505 1536.57 618.686 1529.94C622.049 1525.62 625.052 1519.59 629.576 1517.83C654.966 1508 681.168 1500.17 706.235 1489.63C715.734 1485.64 728.004 1477.33 729.769 1469.03C731.471 1461.06 723.454 1447.82 715.863 1441.57C640.892 1379.68 555.868 1348.51 457.325 1359C424.989 1362.45 392.343 1363.06 359.851 1365.16C353.021 1365.6 346.216 1366.34 337.748 1367.24C333.173 1367.73 330.827 1372.91 333.392 1376.72C340.171 1386.77 331.317 1391.45 321.857 1397.1C279.132 1422.63 246.268 1457.09 225.943 1503.27C222.347 1511.42 213.531 1518.02 205.824 1523.5C185.268 1538.14 175.485 1555.84 178.553 1575.99C179.236 1580.42 184.468 1582.49 188.09 1579.8Z" fill="white"/>
<path d="M577.392 1136.53C577.264 1136.6 577.136 1136.67 577.02 1136.74C568.183 1141.71 559.602 1147.57 550.161 1150.9C545.935 1152.38 539.32 1155.58 533.552 1156.96C530.855 1157.62 528.388 1155.25 528.838 1152.53C529.827 1146.46 531.638 1138.26 531.844 1133.77C531.869 1133.2 531.433 1132.75 530.867 1132.74C507.412 1132.73 482.66 1132.09 457.959 1132.87C396.032 1134.82 338.152 1120.65 283.805 1091.26C262.456 1079.71 240.529 1069.19 219.669 1056.85C205.128 1048.24 190.421 1048.24 174.274 1048.12C153.838 1047.98 148.944 1051.09 128.726 1047.28C124.898 1046.56 106.85 1033.66 103.228 1029.51C102.817 1029.03 102.984 1028.3 103.549 1028.03C107.364 1026.16 111.102 1024 115.11 1022.72C122.046 1020.5 129.291 1019.27 136.253 1017.1C152.489 1012.05 168.635 1006.68 183.227 1001.96C183.394 1001.91 183.549 1001.81 183.664 1001.68C199.464 983.793 214.171 967.139 229.007 950.331C229.573 949.689 230.626 950.036 230.703 950.895C232.129 967.562 236.265 984.216 236.278 1000.88C236.291 1014.01 240.876 1020.74 253.657 1022.78C282.263 1027.35 310.818 1032.21 340.721 1037.18C341.261 1037.27 341.775 1036.9 341.865 1036.36C344.511 1020.87 351.601 1020.12 364.356 1024.64C377.291 1029.23 391.999 1030.96 405.82 1030.51C491.651 1027.72 577.585 1025.9 663.198 1019.9C721.553 1015.8 777.147 1032.47 834.385 1035.51C837.609 1035.68 840.704 1038.13 843.787 1040.85C847.243 1043.89 848.013 1048.98 845.598 1052.9C843.518 1056.28 841.321 1059.43 838.315 1060.84C801.578 1078.01 764.854 1095.39 727.089 1110.08C709.53 1116.92 689.543 1117.31 670.931 1121.8C662.633 1123.8 654.193 1127.54 647.308 1132.55C624.072 1149.45 601.991 1167.97 578.305 1184.19C572.332 1188.28 568.812 1191.43 559.088 1190.95C555.915 1190.8 553.732 1187.64 554.721 1184.63C557.187 1177.11 558.24 1168.23 563.173 1163.07" fill="#002EAB"/>
<path d="M406.741 584.112C426.765 586.724 448.267 596.093 464.281 573.508C465.412 571.925 470.527 573.25 473.792 573.096C496.682 571.989 519.675 571.925 542.423 569.518C624.769 560.806 706.947 550.202 789.395 542.699C818.878 540.022 839.185 561.308 843.208 591.01C849.12 634.662 821.41 671.571 777.648 677.427C757.277 680.155 736.494 680.271 716.329 683.939C689.763 688.765 663.609 695.933 636.58 702.252L637.043 709.317C637.415 715.005 631.632 719.059 626.414 716.768C617.07 712.663 607.881 708.609 599.462 704.903C590.234 718.029 582.459 729.097 575.043 739.65C571.573 744.579 563.861 741.104 565.236 735.236C567.01 727.746 568.809 720.101 570.711 712.071C543.374 712.74 518.132 715.932 493.456 713.461C427.137 706.82 363.389 689.37 303.472 659.654C276.43 646.245 256.715 624.47 243.168 597.921C236.536 584.923 228.144 578.437 213.929 578.771C199.393 579.119 189.856 573.044 181.734 560.047C177.891 553.908 171.259 549.507 164.28 544.951C159.358 541.746 160.129 534.347 165.565 532.146C184.998 524.283 202.94 526.2 218.389 539.186C225.368 520.332 232.359 501.401 239.852 481.171C241.767 476.01 248.849 475.521 251.471 480.36C263.578 502.663 269.901 524.116 259.298 548.966C253.283 563.058 257.37 574.113 270.916 582.787C309.307 607.392 350.691 603.48 392.282 596.325C397.564 595.45 401.818 588.449 406.741 584.112Z" fill="white"/>
<path d="M186.467 334.215C208.599 322.2 199.373 293.076 215.045 276.302C207.839 271.529 201.123 267.078 191.82 260.916C189.606 259.45 190.301 256.041 192.9 255.552C208.02 252.709 221.363 250.342 234.578 247.409C242.093 245.737 251.807 244.875 256.221 239.871C294.206 196.764 338.225 162.559 394.88 143.597C392.152 139.712 389.913 136.548 387.366 132.907C385.152 129.768 387.237 125.42 391.071 125.163C396.733 124.79 401.455 124.468 406.191 124.314C437.857 123.259 469.717 124.172 501.165 120.944C600.27 110.768 698.834 108.864 795.906 135.557C818.244 141.693 840.376 149.54 861.286 159.394C869.997 163.498 880.355 174.548 880.947 183.064C881.976 197.767 867.848 202.63 854.556 204.701C829.696 208.56 804.373 210.618 780.144 216.896C756.056 223.135 733.087 233.645 708.369 242.74C720.22 262.692 736.896 282.206 730.951 307.664C728.893 316.502 718.097 319.91 711.329 313.852C691.23 295.868 672.649 279.247 654.172 262.717C647.326 276.392 641.549 293.822 630.972 307.561C617.86 324.593 601.093 338.923 585.099 353.537C582.14 356.238 573.776 356.882 570.816 354.643C567.934 352.456 567.098 344.905 568.269 340.48C572.875 323.191 578.91 306.275 583.838 289.063C586.335 280.341 587.57 271.272 589.706 260.788C580.943 260.788 574.394 260.003 568.089 260.916C517.558 268.236 467.324 266.294 417.334 256.465C371.783 247.512 327.519 252.465 283.77 267.143C265.177 273.382 251.653 282.669 243.637 302.068C233.716 326.072 211.61 340.583 187.753 339.541C184.871 339.438 183.945 335.592 186.467 334.215Z" fill="#002EAB"/>
</g>
<defs>
<clipPath id="clip0_370_9">
<rect width="1021" height="1672" fill="white"/>
</clipPath>
</defs>
</svg>
