<svg width="1021" height="1672" viewBox="0 0 1021 1672" fill="none" xmlns="http://www.w3.org/2000/svg">
<g clip-path="url(#clip0_370_9)">
<rect width="1021" height="1672" fill="#98C32F"/>
<rect x="-46" width="1109" height="418" fill="white"/>
<rect x="-46" y="836" width="1109" height="418" fill="white"/>
<rect x="-19" y="418" width="1109" height="418" fill="#A6B8E3"/>
<rect x="-19" y="1254" width="1109" height="418" fill="#A6B8E3"/>
<path d="M798.032 467.384C798.736 468.248 799.68 468.68 800.864 468.68C802.048 468.68 802.984 468.248 803.672 467.384C804.36 466.504 804.704 465.432 804.704 464.168C804.704 462.936 804.36 461.888 803.672 461.024C802.984 460.16 802.048 459.728 800.864 459.728C799.68 459.728 798.736 460.16 798.032 461.024C797.344 461.888 797 462.936 797 464.168C797 465.432 797.344 466.504 798.032 467.384ZM800.864 470.288C799.12 470.288 797.728 469.672 796.688 468.44C795.648 467.208 795.128 465.616 795.128 463.664C795.128 460.912 795.624 458.88 796.616 457.568C797.608 456.24 799.136 455.44 801.2 455.168C802.432 454.976 803.28 454.792 803.744 454.616C804.224 454.44 804.464 454.232 804.464 453.992H806.216C806.216 454.44 806.08 454.832 805.808 455.168C805.536 455.488 805.144 455.744 804.632 455.936C804.136 456.128 803.664 456.28 803.216 456.392C802.784 456.488 802.264 456.576 801.656 456.656C800.056 456.88 798.896 457.32 798.176 457.976C797.472 458.632 797.008 459.504 796.784 460.592C797.84 458.944 799.296 458.12 801.152 458.12C802.752 458.12 804.056 458.704 805.064 459.872C806.072 461.04 806.576 462.472 806.576 464.168C806.576 465.896 806.056 467.352 805.016 468.536C803.976 469.704 802.592 470.288 800.864 470.288ZM814.884 470.288C813.156 470.288 811.74 469.728 810.636 468.608C809.532 467.472 808.98 466 808.98 464.192C808.98 462.496 809.524 461.064 810.612 459.896C811.7 458.712 813.06 458.12 814.692 458.12C816.404 458.12 817.756 458.712 818.748 459.896C819.756 461.064 820.26 462.544 820.26 464.336V464.792H810.876C810.956 465.928 811.372 466.88 812.124 467.648C812.876 468.416 813.852 468.8 815.052 468.8C816.492 468.8 817.684 468.312 818.628 467.336L819.492 468.512C818.308 469.696 816.772 470.288 814.884 470.288ZM818.484 463.472C818.468 462.48 818.132 461.592 817.476 460.808C816.82 460.008 815.884 459.608 814.668 459.608C813.516 459.608 812.604 460 811.932 460.784C811.276 461.568 810.924 462.464 810.876 463.472H818.484ZM821.807 470.288V468.8C822.351 468.8 822.799 468.44 823.151 467.72C823.503 467 823.791 465.8 824.015 464.12L824.759 458.408H832.823V470H831.023V459.992H826.343L825.815 464.336C825.559 466.464 825.111 467.992 824.471 468.92C823.831 469.832 822.943 470.288 821.807 470.288ZM835.769 474.536L836.057 472.904C836.345 473.032 836.673 473.096 837.041 473.096C837.457 473.096 837.801 473.008 838.073 472.832C838.345 472.656 838.577 472.336 838.769 471.872L839.537 470.12L834.689 458.408H836.633L840.497 467.912L844.337 458.408H846.305L840.497 472.352C839.857 473.888 838.721 474.672 837.089 474.704C836.609 474.704 836.169 474.648 835.769 474.536ZM857.783 470H855.695L852.215 465.248L848.735 470H846.671L851.111 464.048L846.911 458.408H848.999L852.215 462.824L855.431 458.408H857.519L853.319 464.048L857.783 470ZM868.903 470H867.103V468.68C866.127 469.752 864.847 470.288 863.263 470.288C862.191 470.288 861.247 469.944 860.431 469.256C859.615 468.568 859.207 467.632 859.207 466.448C859.207 465.232 859.607 464.296 860.407 463.64C861.223 462.968 862.175 462.632 863.263 462.632C864.911 462.632 866.191 463.16 867.103 464.216V462.128C867.103 461.36 866.831 460.76 866.287 460.328C865.743 459.896 865.039 459.68 864.175 459.68C862.815 459.68 861.631 460.216 860.623 461.288L859.783 460.04C861.015 458.76 862.559 458.12 864.415 458.12C865.743 458.12 866.823 458.44 867.655 459.08C868.487 459.72 868.903 460.704 868.903 462.032V470ZM863.911 468.992C865.351 468.992 866.415 468.512 867.103 467.552V465.368C866.415 464.408 865.351 463.928 863.911 463.928C863.079 463.928 862.391 464.168 861.847 464.648C861.319 465.112 861.055 465.72 861.055 466.472C861.055 467.208 861.319 467.816 861.847 468.296C862.391 468.76 863.079 468.992 863.911 468.992Z" fill="#002EAB"/>
<path d="M814.547 486.57V491.797L819.656 490.016L820.594 492.617L815.484 494.281L818.648 498.688L816.328 500.352L813.258 495.781L810.164 500.352L807.773 498.688L810.984 494.281L805.828 492.617L806.766 490.016L811.828 491.844V486.57H814.547ZM833.25 486.57V491.797L838.359 490.016L839.297 492.617L834.188 494.281L837.352 498.688L835.031 500.352L831.961 495.781L828.867 500.352L826.477 498.688L829.688 494.281L824.531 492.617L825.469 490.016L830.531 491.844V486.57H833.25ZM851.953 486.57V491.797L857.062 490.016L858 492.617L852.891 494.281L856.055 498.688L853.734 500.352L850.664 495.781L847.57 500.352L845.18 498.688L848.391 494.281L843.234 492.617L844.172 490.016L849.234 491.844V486.57H851.953Z" fill="#EA513A"/>
<path d="M743.448 1306H741.648V1295.99H735.6V1306H733.8V1294.41H743.448V1306ZM756.258 1304.54C755.218 1305.7 753.834 1306.29 752.106 1306.29C750.378 1306.29 748.986 1305.7 747.93 1304.54C746.89 1303.37 746.37 1301.92 746.37 1300.19C746.37 1298.46 746.89 1297.02 747.93 1295.87C748.986 1294.7 750.378 1294.12 752.106 1294.12C753.834 1294.12 755.218 1294.7 756.258 1295.87C757.314 1297.02 757.842 1298.46 757.842 1300.19C757.842 1301.92 757.314 1303.37 756.258 1304.54ZM749.274 1303.38C749.978 1304.25 750.922 1304.68 752.106 1304.68C753.29 1304.68 754.226 1304.25 754.914 1303.38C755.602 1302.5 755.946 1301.44 755.946 1300.19C755.946 1298.94 755.602 1297.89 754.914 1297.02C754.226 1296.16 753.29 1295.73 752.106 1295.73C750.922 1295.73 749.978 1296.17 749.274 1297.05C748.586 1297.91 748.242 1298.96 748.242 1300.19C748.242 1301.44 748.586 1302.5 749.274 1303.38ZM759.409 1306.29V1304.8C759.953 1304.8 760.401 1304.44 760.753 1303.72C761.105 1303 761.393 1301.8 761.617 1300.12L762.361 1294.41H770.425V1306H768.625V1295.99H763.945L763.417 1300.34C763.161 1302.46 762.713 1303.99 762.073 1304.92C761.433 1305.83 760.545 1306.29 759.409 1306.29ZM783.235 1304.54C782.195 1305.7 780.811 1306.29 779.083 1306.29C777.355 1306.29 775.963 1305.7 774.907 1304.54C773.867 1303.37 773.347 1301.92 773.347 1300.19C773.347 1298.46 773.867 1297.02 774.907 1295.87C775.963 1294.7 777.355 1294.12 779.083 1294.12C780.811 1294.12 782.195 1294.7 783.235 1295.87C784.291 1297.02 784.819 1298.46 784.819 1300.19C784.819 1301.92 784.291 1303.37 783.235 1304.54ZM776.251 1303.38C776.955 1304.25 777.899 1304.68 779.083 1304.68C780.267 1304.68 781.203 1304.25 781.891 1303.38C782.579 1302.5 782.923 1301.44 782.923 1300.19C782.923 1298.94 782.579 1297.89 781.891 1297.02C781.203 1296.16 780.267 1295.73 779.083 1295.73C777.899 1295.73 776.955 1296.17 776.251 1297.05C775.563 1297.91 775.219 1298.96 775.219 1300.19C775.219 1301.44 775.563 1302.5 776.251 1303.38ZM792.865 1306.29C791.153 1306.29 789.761 1305.71 788.689 1304.56C787.617 1303.39 787.081 1301.94 787.081 1300.19C787.081 1298.45 787.617 1297 788.689 1295.85C789.761 1294.7 791.153 1294.12 792.865 1294.12C794.657 1294.12 796.073 1294.79 797.113 1296.14L795.913 1297.24C795.177 1296.23 794.193 1295.73 792.961 1295.73C791.745 1295.73 790.769 1296.14 790.033 1296.98C789.313 1297.81 788.953 1298.88 788.953 1300.19C788.953 1301.5 789.313 1302.58 790.033 1303.43C790.769 1304.26 791.745 1304.68 792.961 1304.68C794.177 1304.68 795.161 1304.18 795.913 1303.17L797.113 1304.27C796.073 1305.62 794.657 1306.29 792.865 1306.29ZM808.684 1306H806.884V1304.68C805.908 1305.75 804.628 1306.29 803.044 1306.29C801.972 1306.29 801.028 1305.94 800.212 1305.26C799.396 1304.57 798.988 1303.63 798.988 1302.45C798.988 1301.23 799.388 1300.3 800.188 1299.64C801.004 1298.97 801.956 1298.63 803.044 1298.63C804.692 1298.63 805.972 1299.16 806.884 1300.22V1298.13C806.884 1297.36 806.612 1296.76 806.068 1296.33C805.524 1295.9 804.82 1295.68 803.956 1295.68C802.596 1295.68 801.412 1296.22 800.404 1297.29L799.564 1296.04C800.796 1294.76 802.34 1294.12 804.196 1294.12C805.524 1294.12 806.604 1294.44 807.436 1295.08C808.268 1295.72 808.684 1296.7 808.684 1298.03V1306ZM803.692 1304.99C805.132 1304.99 806.196 1304.51 806.884 1303.55V1301.37C806.196 1300.41 805.132 1299.93 803.692 1299.93C802.86 1299.93 802.172 1300.17 801.628 1300.65C801.1 1301.11 800.836 1301.72 800.836 1302.47C800.836 1303.21 801.1 1303.82 801.628 1304.3C802.172 1304.76 802.86 1304.99 803.692 1304.99ZM816.204 1306H814.404V1295.99H811.044V1294.41H819.588V1295.99H816.204V1306ZM823.676 1306H821.948V1294.41H823.748V1303.26L829.82 1294.41H831.596V1306H829.796V1296.98L823.676 1306ZM845.391 1306H843.087L838.911 1300.79L836.991 1302.69V1306H835.191V1294.41H836.991V1300.58L843.087 1294.41H845.367L840.231 1299.66L845.391 1306ZM855.938 1303.38C856.642 1304.25 857.586 1304.68 858.77 1304.68C859.954 1304.68 860.89 1304.25 861.578 1303.38C862.266 1302.5 862.61 1301.43 862.61 1300.17C862.61 1298.94 862.266 1297.89 861.578 1297.02C860.89 1296.16 859.954 1295.73 858.77 1295.73C857.586 1295.73 856.642 1296.16 855.938 1297.02C855.25 1297.89 854.906 1298.94 854.906 1300.17C854.906 1301.43 855.25 1302.5 855.938 1303.38ZM858.77 1306.29C857.026 1306.29 855.634 1305.67 854.594 1304.44C853.554 1303.21 853.034 1301.62 853.034 1299.66C853.034 1296.91 853.53 1294.88 854.522 1293.57C855.514 1292.24 857.042 1291.44 859.106 1291.17C860.338 1290.98 861.186 1290.79 861.65 1290.62C862.13 1290.44 862.37 1290.23 862.37 1289.99H864.122C864.122 1290.44 863.986 1290.83 863.714 1291.17C863.442 1291.49 863.05 1291.74 862.538 1291.94C862.042 1292.13 861.57 1292.28 861.122 1292.39C860.69 1292.49 860.17 1292.58 859.562 1292.66C857.962 1292.88 856.802 1293.32 856.082 1293.98C855.378 1294.63 854.914 1295.5 854.69 1296.59C855.746 1294.94 857.202 1294.12 859.058 1294.12C860.658 1294.12 861.962 1294.7 862.97 1295.87C863.978 1297.04 864.482 1298.47 864.482 1300.17C864.482 1301.9 863.962 1303.35 862.922 1304.54C861.882 1305.7 860.498 1306.29 858.77 1306.29ZM873.27 1306.29C871.638 1306.29 870.334 1305.61 869.358 1304.25V1310.42H867.558V1294.41H869.358V1296.14C869.79 1295.53 870.35 1295.04 871.038 1294.67C871.726 1294.3 872.47 1294.12 873.27 1294.12C874.806 1294.12 876.046 1294.67 876.99 1295.78C877.95 1296.86 878.43 1298.34 878.43 1300.19C878.43 1302.05 877.95 1303.53 876.99 1304.63C876.046 1305.74 874.806 1306.29 873.27 1306.29ZM872.814 1304.68C873.95 1304.68 874.854 1304.26 875.526 1303.43C876.198 1302.58 876.534 1301.5 876.534 1300.19C876.534 1298.88 876.198 1297.81 875.526 1296.98C874.854 1296.14 873.95 1295.73 872.814 1295.73C872.126 1295.73 871.454 1295.91 870.798 1296.28C870.158 1296.63 869.678 1297.06 869.358 1297.58V1302.81C869.678 1303.34 870.158 1303.78 870.798 1304.15C871.454 1304.5 872.126 1304.68 872.814 1304.68ZM890.34 1306H888.54V1304.68C887.564 1305.75 886.284 1306.29 884.7 1306.29C883.628 1306.29 882.684 1305.94 881.868 1305.26C881.052 1304.57 880.644 1303.63 880.644 1302.45C880.644 1301.23 881.044 1300.3 881.844 1299.64C882.66 1298.97 883.612 1298.63 884.7 1298.63C886.348 1298.63 887.628 1299.16 888.54 1300.22V1298.13C888.54 1297.36 888.268 1296.76 887.724 1296.33C887.18 1295.9 886.476 1295.68 885.612 1295.68C884.252 1295.68 883.068 1296.22 882.06 1297.29L881.22 1296.04C882.452 1294.76 883.996 1294.12 885.852 1294.12C887.18 1294.12 888.26 1294.44 889.092 1295.08C889.924 1295.72 890.34 1296.7 890.34 1298.03V1306ZM885.348 1304.99C886.788 1304.99 887.852 1304.51 888.54 1303.55V1301.37C887.852 1300.41 886.788 1299.93 885.348 1299.93C884.516 1299.93 883.828 1300.17 883.284 1300.65C882.756 1301.11 882.492 1301.72 882.492 1302.47C882.492 1303.21 882.756 1303.82 883.284 1304.3C883.828 1304.76 884.516 1304.99 885.348 1304.99ZM895.676 1306H893.948V1294.41H895.748V1303.26L901.82 1294.41H903.596V1306H901.796V1296.98L895.676 1306ZM902.972 1290.98C901.932 1292.38 900.532 1293.09 898.772 1293.09C897.028 1293.09 895.62 1292.38 894.548 1290.98L895.436 1290.21C896.268 1291.36 897.38 1291.94 898.772 1291.94C900.18 1291.94 901.284 1291.36 902.084 1290.21L902.972 1290.98ZM905.823 1308.95V1304.51C906.415 1304.4 906.879 1304.05 907.215 1303.46C907.551 1302.85 907.823 1301.74 908.031 1300.12L908.775 1294.41H916.839V1304.42H918.183V1308.95H916.383V1306H907.623V1308.95H905.823ZM910.359 1295.99L909.831 1300.34C909.559 1302.37 908.999 1303.73 908.151 1304.42H915.039V1295.99H910.359ZM929.692 1306H927.892V1304.68C926.916 1305.75 925.636 1306.29 924.052 1306.29C922.98 1306.29 922.036 1305.94 921.22 1305.26C920.404 1304.57 919.996 1303.63 919.996 1302.45C919.996 1301.23 920.396 1300.3 921.196 1299.64C922.012 1298.97 922.964 1298.63 924.052 1298.63C925.7 1298.63 926.98 1299.16 927.892 1300.22V1298.13C927.892 1297.36 927.62 1296.76 927.076 1296.33C926.532 1295.9 925.828 1295.68 924.964 1295.68C923.604 1295.68 922.42 1296.22 921.412 1297.29L920.572 1296.04C921.804 1294.76 923.348 1294.12 925.204 1294.12C926.532 1294.12 927.612 1294.44 928.444 1295.08C929.276 1295.72 929.692 1296.7 929.692 1298.03V1306ZM924.7 1304.99C926.14 1304.99 927.204 1304.51 927.892 1303.55V1301.37C927.204 1300.41 926.14 1299.93 924.7 1299.93C923.868 1299.93 923.18 1300.17 922.636 1300.65C922.108 1301.11 921.844 1301.72 921.844 1302.47C921.844 1303.21 922.108 1303.82 922.636 1304.3C923.18 1304.76 923.868 1304.99 924.7 1304.99Z" fill="#002EAB"/>
<path d="M814.547 1322.1V1327.33L819.656 1325.55L820.594 1328.15L815.484 1329.82L818.648 1334.22L816.328 1335.89L813.258 1331.32L810.164 1335.89L807.773 1334.22L810.984 1329.82L805.828 1328.15L806.766 1325.55L811.828 1327.38V1322.1H814.547ZM833.25 1322.1V1327.33L838.359 1325.55L839.297 1328.15L834.188 1329.82L837.352 1334.22L835.031 1335.89L831.961 1331.32L828.867 1335.89L826.477 1334.22L829.688 1329.82L824.531 1328.15L825.469 1325.55L830.531 1327.38V1322.1H833.25ZM851.953 1322.1V1327.33L857.062 1325.55L858 1328.15L852.891 1329.82L856.055 1334.22L853.734 1335.89L850.664 1331.32L847.57 1335.89L845.18 1334.22L848.391 1329.82L843.234 1328.15L844.172 1325.55L849.234 1327.38V1322.1H851.953Z" fill="#EA513A"/>
<path d="M795.52 876.12C796.832 876.12 797.888 876.8 798.688 878.16V871.992H800.488V878.136C800.84 877.528 801.288 877.04 801.832 876.672C802.392 876.304 802.992 876.12 803.632 876.12C804.88 876.12 805.888 876.672 806.656 877.776C807.424 878.864 807.808 880.336 807.808 882.192C807.808 884.048 807.416 885.528 806.632 886.632C805.864 887.736 804.864 888.288 803.632 888.288C802.32 888.288 801.272 887.608 800.488 886.248V892.416H798.688V886.272C798.336 886.88 797.88 887.368 797.32 887.736C796.76 888.104 796.16 888.288 795.52 888.288C794.272 888.288 793.264 887.744 792.496 886.656C791.728 885.552 791.344 884.072 791.344 882.216C791.344 880.36 791.728 878.88 792.496 877.776C793.28 876.672 794.288 876.12 795.52 876.12ZM796.024 877.728C795.144 877.728 794.448 878.152 793.936 879C793.424 879.832 793.168 880.904 793.168 882.216C793.168 883.528 793.424 884.6 793.936 885.432C794.448 886.264 795.144 886.68 796.024 886.68C796.568 886.68 797.088 886.504 797.584 886.152C798.08 885.8 798.448 885.36 798.688 884.832V879.6C798.432 879.072 798.056 878.632 797.56 878.28C797.064 877.912 796.552 877.728 796.024 877.728ZM803.128 886.68C804.008 886.68 804.704 886.264 805.216 885.432C805.728 884.584 805.984 883.504 805.984 882.192C805.984 880.88 805.728 879.808 805.216 878.976C804.704 878.144 804.008 877.728 803.128 877.728C802.6 877.728 802.088 877.912 801.592 878.28C801.096 878.632 800.728 879.064 800.488 879.576V884.808C800.744 885.336 801.112 885.784 801.592 886.152C802.088 886.504 802.6 886.68 803.128 886.68ZM812.676 888H810.948V876.408H812.748V885.264L818.82 876.408H820.596V888H818.796V878.976L812.676 888ZM825.991 888H824.191V876.408H825.991V881.232H832.039V876.408H833.839V888H832.039V882.816H825.991V888ZM843.937 888H837.433V876.408H843.817C844.825 876.408 845.617 876.68 846.193 877.224C846.785 877.768 847.081 878.488 847.081 879.384C847.081 880.04 846.897 880.608 846.529 881.088C846.177 881.552 845.737 881.864 845.209 882.024C845.801 882.168 846.297 882.512 846.697 883.056C847.113 883.6 847.321 884.2 847.321 884.856C847.321 885.8 847.017 886.56 846.409 887.136C845.817 887.712 844.993 888 843.937 888ZM843.577 886.416C844.153 886.416 844.609 886.256 844.945 885.936C845.281 885.616 845.449 885.184 845.449 884.64C845.449 884.144 845.281 883.72 844.945 883.368C844.609 883.016 844.153 882.84 843.577 882.84H839.233V886.416H843.577ZM843.505 881.256C844.049 881.256 844.473 881.112 844.777 880.824C845.081 880.52 845.233 880.128 845.233 879.648C845.233 879.136 845.081 878.736 844.777 878.448C844.473 878.144 844.049 877.992 843.505 877.992H839.233V881.256H843.505ZM859.77 888H857.97V886.68C856.994 887.752 855.714 888.288 854.13 888.288C853.058 888.288 852.114 887.944 851.298 887.256C850.482 886.568 850.074 885.632 850.074 884.448C850.074 883.232 850.474 882.296 851.274 881.64C852.09 880.968 853.042 880.632 854.13 880.632C855.778 880.632 857.058 881.16 857.97 882.216V880.128C857.97 879.36 857.698 878.76 857.154 878.328C856.61 877.896 855.906 877.68 855.042 877.68C853.682 877.68 852.498 878.216 851.49 879.288L850.65 878.04C851.882 876.76 853.426 876.12 855.282 876.12C856.61 876.12 857.69 876.44 858.522 877.08C859.354 877.72 859.77 878.704 859.77 880.032V888ZM854.778 886.992C856.218 886.992 857.282 886.512 857.97 885.552V883.368C857.282 882.408 856.218 881.928 854.778 881.928C853.946 881.928 853.258 882.168 852.714 882.648C852.186 883.112 851.922 883.72 851.922 884.472C851.922 885.208 852.186 885.816 852.714 886.296C853.258 886.76 853.946 886.992 854.778 886.992ZM862.01 888.288V886.8C862.554 886.8 863.002 886.44 863.354 885.72C863.706 885 863.994 883.8 864.218 882.12L864.962 876.408H873.026V888H871.226V877.992H866.546L866.018 882.336C865.762 884.464 865.314 885.992 864.674 886.92C864.034 887.832 863.146 888.288 862.01 888.288Z" fill="#002EAB"/>
<path d="M795.547 904.104V909.331L800.656 907.55L801.594 910.151L796.484 911.815L799.648 916.221L797.328 917.885L794.258 913.315L791.164 917.885L788.773 916.221L791.984 911.815L786.828 910.151L787.766 907.55L792.828 909.378V904.104H795.547ZM814.25 904.104V909.331L819.359 907.55L820.297 910.151L815.188 911.815L818.352 916.221L816.031 917.885L812.961 913.315L809.867 917.885L807.477 916.221L810.688 911.815L805.531 910.151L806.469 907.55L811.531 909.378V904.104H814.25ZM832.953 904.104V909.331L838.062 907.55L839 910.151L833.891 911.815L837.055 916.221L834.734 917.885L831.664 913.315L828.57 917.885L826.18 916.221L829.391 911.815L824.234 910.151L825.172 907.55L830.234 909.378V904.104H832.953ZM851.656 904.104V909.331L856.766 907.55L857.703 910.151L852.594 911.815L855.758 916.221L853.438 917.885L850.367 913.315L847.273 917.885L844.883 916.221L848.094 911.815L842.938 910.151L843.875 907.55L848.938 909.378V904.104H851.656ZM870.359 904.104V909.331L875.469 907.55L876.406 910.151L871.297 911.815L874.461 916.221L872.141 917.885L869.07 913.315L865.977 917.885L863.586 916.221L866.797 911.815L861.641 910.151L862.578 907.55L867.641 909.378V904.104H870.359Z" fill="#EA513A"/>
<path d="M768.912 40.408V41.992H762.6V52H760.8V40.408H768.912ZM780.469 50.536C779.429 51.704 778.045 52.288 776.317 52.288C774.589 52.288 773.197 51.704 772.141 50.536C771.101 49.368 770.581 47.92 770.581 46.192C770.581 44.464 771.101 43.024 772.141 41.872C773.197 40.704 774.589 40.12 776.317 40.12C778.045 40.12 779.429 40.704 780.469 41.872C781.525 43.024 782.053 44.464 782.053 46.192C782.053 47.92 781.525 49.368 780.469 50.536ZM773.485 49.384C774.189 50.248 775.133 50.68 776.317 50.68C777.501 50.68 778.437 50.248 779.125 49.384C779.813 48.504 780.157 47.44 780.157 46.192C780.157 44.944 779.813 43.888 779.125 43.024C778.437 42.16 777.501 41.728 776.317 41.728C775.133 41.728 774.189 42.168 773.485 43.048C772.797 43.912 772.453 44.96 772.453 46.192C772.453 47.44 772.797 48.504 773.485 49.384ZM790.7 52.288C789.068 52.288 787.764 51.608 786.788 50.248V56.416H784.988V40.408H786.788V42.136C787.22 41.528 787.78 41.04 788.468 40.672C789.156 40.304 789.9 40.12 790.7 40.12C792.236 40.12 793.476 40.672 794.42 41.776C795.38 42.864 795.859 44.336 795.859 46.192C795.859 48.048 795.38 49.528 794.42 50.632C793.476 51.736 792.236 52.288 790.7 52.288ZM790.243 50.68C791.38 50.68 792.284 50.264 792.956 49.432C793.628 48.584 793.964 47.504 793.964 46.192C793.964 44.88 793.628 43.808 792.956 42.976C792.284 42.144 791.38 41.728 790.243 41.728C789.556 41.728 788.884 41.912 788.228 42.28C787.588 42.632 787.108 43.064 786.788 43.576V48.808C787.108 49.336 787.588 49.784 788.228 50.152C788.884 50.504 789.556 50.68 790.243 50.68ZM800.954 49.384C801.658 50.248 802.602 50.68 803.786 50.68C804.97 50.68 805.906 50.248 806.594 49.384C807.282 48.504 807.626 47.432 807.626 46.168C807.626 44.936 807.282 43.888 806.594 43.024C805.906 42.16 804.97 41.728 803.786 41.728C802.602 41.728 801.658 42.16 800.954 43.024C800.266 43.888 799.922 44.936 799.922 46.168C799.922 47.432 800.266 48.504 800.954 49.384ZM803.786 52.288C802.042 52.288 800.65 51.672 799.61 50.44C798.57 49.208 798.05 47.616 798.05 45.664C798.05 42.912 798.546 40.88 799.538 39.568C800.53 38.24 802.058 37.44 804.122 37.168C805.354 36.976 806.202 36.792 806.666 36.616C807.146 36.44 807.386 36.232 807.386 35.992H809.138C809.138 36.44 809.002 36.832 808.73 37.168C808.458 37.488 808.066 37.744 807.554 37.936C807.058 38.128 806.586 38.28 806.138 38.392C805.706 38.488 805.186 38.576 804.578 38.656C802.978 38.88 801.818 39.32 801.098 39.976C800.394 40.632 799.93 41.504 799.706 42.592C800.762 40.944 802.218 40.12 804.074 40.12C805.674 40.12 806.978 40.704 807.986 41.872C808.994 43.04 809.498 44.472 809.498 46.168C809.498 47.896 808.978 49.352 807.938 50.536C806.898 51.704 805.514 52.288 803.786 52.288ZM821.621 52H819.821V50.68C818.845 51.752 817.565 52.288 815.981 52.288C814.909 52.288 813.965 51.944 813.149 51.256C812.333 50.568 811.925 49.632 811.925 48.448C811.925 47.232 812.325 46.296 813.125 45.64C813.941 44.968 814.893 44.632 815.981 44.632C817.629 44.632 818.909 45.16 819.821 46.216V44.128C819.821 43.36 819.549 42.76 819.005 42.328C818.461 41.896 817.757 41.68 816.893 41.68C815.533 41.68 814.349 42.216 813.341 43.288L812.501 42.04C813.733 40.76 815.277 40.12 817.133 40.12C818.461 40.12 819.541 40.44 820.373 41.08C821.205 41.72 821.621 42.704 821.621 44.032V52ZM816.629 50.992C818.069 50.992 819.133 50.512 819.821 49.552V47.368C819.133 46.408 818.069 45.928 816.629 45.928C815.797 45.928 815.109 46.168 814.565 46.648C814.037 47.112 813.773 47.72 813.773 48.472C813.773 49.208 814.037 49.816 814.565 50.296C815.109 50.76 815.797 50.992 816.629 50.992ZM829.142 52H827.342V41.992H823.982V40.408H832.526V41.992H829.142V52ZM834.886 40.408H836.686V44.896H841.03C842.182 44.896 843.078 45.24 843.718 45.928C844.358 46.6 844.678 47.44 844.678 48.448C844.678 49.456 844.35 50.304 843.694 50.992C843.054 51.664 842.166 52 841.03 52H834.886V40.408ZM840.838 46.48H836.686V50.416H840.838C841.478 50.416 841.966 50.24 842.302 49.888C842.654 49.52 842.83 49.04 842.83 48.448C842.83 47.856 842.654 47.384 842.302 47.032C841.966 46.664 841.478 46.48 840.838 46.48ZM848.374 52H846.574V40.408H848.374V52ZM853.7 52H851.972V40.408H853.772V49.264L859.844 40.408H861.62V52H859.82V42.976L853.7 52ZM860.996 36.976C859.956 38.384 858.556 39.088 856.796 39.088C855.052 39.088 853.644 38.384 852.572 36.976L853.46 36.208C854.292 37.36 855.404 37.936 856.796 37.936C858.204 37.936 859.308 37.36 860.108 36.208L860.996 36.976ZM881.602 52H879.298L875.122 46.792L873.202 48.688V52H871.402V40.408H873.202V46.576L879.298 40.408H881.578L876.442 45.664L881.602 52ZM885.458 52H883.73V40.408H885.53V49.264L891.602 40.408H893.378V52H891.578V42.976L885.458 52ZM900.884 52H899.084V41.992H895.724V40.408H904.268V41.992H900.884V52Z" fill="#002EAB"/>
<path d="M805.547 68.5703V73.7969L810.656 72.0156L811.594 74.6172L806.484 76.2812L809.648 80.6875L807.328 82.3516L804.258 77.7812L801.164 82.3516L798.773 80.6875L801.984 76.2812L796.828 74.6172L797.766 72.0156L802.828 73.8438V68.5703H805.547ZM824.25 68.5703V73.7969L829.359 72.0156L830.297 74.6172L825.188 76.2812L828.352 80.6875L826.031 82.3516L822.961 77.7812L819.867 82.3516L817.477 80.6875L820.688 76.2812L815.531 74.6172L816.469 72.0156L821.531 73.8438V68.5703H824.25ZM842.953 68.5703V73.7969L848.062 72.0156L849 74.6172L843.891 76.2812L847.055 80.6875L844.734 82.3516L841.664 77.7812L838.57 82.3516L836.18 80.6875L839.391 76.2812L834.234 74.6172L835.172 72.0156L840.234 73.8438V68.5703H842.953ZM861.656 68.5703V73.7969L866.766 72.0156L867.703 74.6172L862.594 76.2812L865.758 80.6875L863.438 82.3516L860.367 77.7812L857.273 82.3516L854.883 80.6875L858.094 76.2812L852.938 74.6172L853.875 72.0156L858.938 73.8438V68.5703H861.656Z" fill="#EA513A"/>
<path d="M158.09 1579.8C195.26 1552.21 227.313 1547.3 257.072 1564.17C261.673 1566.77 267.55 1563.92 268.143 1558.69C269.083 1550.39 262.343 1541.64 237.366 1509.17C304.384 1493.37 348.72 1483.94 421.036 1495.78C403.095 1509.94 408.818 1524.43 394.499 1537.48C390.555 1541.07 387.384 1545.51 384.394 1550.15C380.747 1555.81 384.498 1563.31 391.225 1563.86C397.205 1564.36 402.915 1564.36 407.271 1561.94C430.805 1548.9 452.418 1532.46 475.089 1517.81C478.917 1515.34 484.471 1513.48 488.802 1514.15C509.062 1517.31 529.039 1522.83 549.377 1524.84C566.144 1526.5 563.012 1536.76 563.837 1548.37C564.159 1552.89 569.933 1554.59 572.666 1550.97C578.452 1543.3 583.505 1536.57 588.686 1529.94C592.049 1525.62 595.052 1519.59 599.576 1517.83C624.966 1508 651.168 1500.17 676.235 1489.63C685.734 1485.64 698.004 1477.33 699.769 1469.03C701.471 1461.06 693.454 1447.82 685.863 1441.57C610.892 1379.68 525.868 1348.51 427.325 1359C394.989 1362.45 362.343 1363.06 329.851 1365.16C323.021 1365.6 316.216 1366.34 307.748 1367.24C303.173 1367.73 300.827 1372.91 303.392 1376.72C310.171 1386.77 301.317 1391.45 291.857 1397.1C249.132 1422.63 216.268 1457.09 195.943 1503.27C192.347 1511.42 183.531 1518.02 175.824 1523.5C155.268 1538.14 145.485 1555.84 148.553 1575.99C149.236 1580.42 154.468 1582.49 158.09 1579.8Z" fill="white"/>
<path d="M547.392 1136.53C547.264 1136.6 547.136 1136.67 547.02 1136.74C538.183 1141.71 529.602 1147.57 520.161 1150.9C515.935 1152.38 509.32 1155.58 503.552 1156.96C500.855 1157.62 498.388 1155.25 498.838 1152.53C499.827 1146.46 501.638 1138.26 501.844 1133.77C501.869 1133.2 501.433 1132.75 500.867 1132.74C477.412 1132.73 452.66 1132.09 427.959 1132.87C366.032 1134.82 308.152 1120.65 253.805 1091.26C232.456 1079.71 210.529 1069.19 189.669 1056.85C175.128 1048.24 160.421 1048.24 144.274 1048.12C123.838 1047.98 118.944 1051.09 98.7256 1047.28C94.8978 1046.56 76.8504 1033.66 73.2281 1029.51C72.817 1029.03 72.984 1028.3 73.5492 1028.03C77.3642 1026.16 81.1021 1024 85.1098 1022.72C92.0461 1020.5 99.2908 1019.27 106.253 1017.1C122.489 1012.05 138.635 1006.68 153.227 1001.96C153.394 1001.91 153.549 1001.81 153.664 1001.68C169.464 983.793 184.171 967.139 199.007 950.331C199.573 949.689 200.626 950.036 200.703 950.895C202.129 967.562 206.265 984.216 206.278 1000.88C206.291 1014.01 210.876 1020.74 223.657 1022.78C252.263 1027.35 280.818 1032.21 310.721 1037.18C311.261 1037.27 311.775 1036.9 311.865 1036.36C314.511 1020.87 321.601 1020.12 334.356 1024.64C347.291 1029.23 361.999 1030.96 375.82 1030.51C461.651 1027.72 547.585 1025.9 633.198 1019.9C691.553 1015.8 747.147 1032.47 804.385 1035.51C807.609 1035.68 810.704 1038.13 813.787 1040.85C817.243 1043.89 818.013 1048.98 815.598 1052.9C813.518 1056.28 811.321 1059.43 808.315 1060.84C771.578 1078.01 734.854 1095.39 697.089 1110.08C679.53 1116.92 659.543 1117.31 640.931 1121.8C632.633 1123.8 624.193 1127.54 617.308 1132.55C594.072 1149.45 571.991 1167.97 548.305 1184.19C542.332 1188.28 538.812 1191.43 529.088 1190.95C525.915 1190.8 523.732 1187.64 524.721 1184.63C527.187 1177.11 528.24 1168.23 533.173 1163.07" fill="#002EAB"/>
<path d="M376.741 584.112C396.765 586.724 418.267 596.093 434.281 573.508C435.412 571.925 440.527 573.25 443.792 573.096C466.682 571.989 489.675 571.925 512.423 569.518C594.769 560.806 676.947 550.202 759.395 542.699C788.878 540.022 809.185 561.308 813.208 591.01C819.12 634.662 791.41 671.571 747.648 677.427C727.277 680.155 706.494 680.271 686.329 683.939C659.763 688.765 633.609 695.933 606.58 702.252L607.043 709.317C607.415 715.005 601.632 719.059 596.414 716.768C587.07 712.663 577.881 708.609 569.462 704.903C560.234 718.029 552.459 729.097 545.043 739.65C541.573 744.579 533.861 741.104 535.236 735.236C537.01 727.746 538.809 720.101 540.711 712.071C513.374 712.74 488.132 715.932 463.456 713.461C397.137 706.82 333.389 689.37 273.472 659.654C246.43 646.245 226.715 624.47 213.168 597.921C206.536 584.923 198.144 578.437 183.929 578.771C169.393 579.119 159.856 573.044 151.734 560.047C147.891 553.908 141.259 549.507 134.28 544.951C129.358 541.746 130.129 534.347 135.565 532.146C154.998 524.283 172.94 526.2 188.389 539.186C195.368 520.332 202.359 501.401 209.852 481.171C211.767 476.01 218.849 475.521 221.471 480.36C233.578 502.663 239.901 524.116 229.298 548.966C223.283 563.058 227.37 574.113 240.916 582.787C279.307 607.392 320.691 603.48 362.282 596.325C367.564 595.45 371.818 588.449 376.741 584.112Z" fill="white"/>
<path d="M156.467 334.215C178.599 322.2 169.373 293.076 185.045 276.302C177.839 271.529 171.123 267.078 161.82 260.916C159.606 259.45 160.301 256.041 162.9 255.552C178.02 252.709 191.363 250.342 204.578 247.409C212.093 245.737 221.807 244.875 226.221 239.871C264.206 196.764 308.225 162.559 364.88 143.597C362.152 139.712 359.913 136.548 357.366 132.907C355.152 129.768 357.237 125.42 361.071 125.163C366.733 124.79 371.455 124.468 376.191 124.314C407.857 123.259 439.717 124.172 471.165 120.944C570.27 110.768 668.834 108.864 765.906 135.557C788.244 141.693 810.376 149.54 831.286 159.394C839.997 163.498 850.355 174.548 850.947 183.064C851.976 197.767 837.848 202.63 824.556 204.701C799.696 208.56 774.373 210.618 750.144 216.896C726.056 223.135 703.087 233.645 678.369 242.74C690.22 262.692 706.896 282.206 700.951 307.664C698.893 316.502 688.097 319.91 681.329 313.852C661.23 295.868 642.649 279.247 624.172 262.717C617.326 276.392 611.549 293.822 600.972 307.561C587.86 324.593 571.093 338.923 555.099 353.537C552.14 356.238 543.776 356.882 540.816 354.643C537.934 352.456 537.098 344.905 538.269 340.48C542.875 323.191 548.91 306.275 553.838 289.063C556.335 280.341 557.57 271.272 559.706 260.788C550.943 260.788 544.394 260.003 538.089 260.916C487.558 268.236 437.324 266.294 387.334 256.465C341.783 247.512 297.519 252.465 253.77 267.143C235.177 273.382 221.653 282.669 213.637 302.068C203.716 326.072 181.61 340.583 157.753 339.541C154.871 339.438 153.945 335.592 156.467 334.215Z" fill="#002EAB"/>
</g>
<defs>
<clipPath id="clip0_370_9">
<rect width="1021" height="1672" fill="white"/>
</clipPath>
</defs>
</svg>
